# Blender v2.93.0 OBJ File: 'Santa.blend'
# www.blender.org
mtllib SantaRightArm.mtl
o Mesh_0142.004_Mesh_0142Mesh.002
v -0.047537 -0.059527 -0.014594
v -0.055958 -0.052330 -0.018385
v -0.057368 -0.057650 -0.014710
v -0.065646 -0.054382 -0.008943
v -0.064241 -0.049335 -0.012310
v -0.069947 -0.049857 0.000511
v -0.068711 -0.045624 -0.002298
v -0.038751 -0.059518 -0.008626
v -0.046278 -0.054353 -0.018363
v -0.044378 -0.047909 -0.019569
v -0.053525 -0.045467 -0.019309
v -0.050553 -0.037681 -0.019638
v -0.061679 -0.042757 -0.013000
v -0.059066 -0.035403 -0.012650
v -0.063440 -0.032521 -0.002776
v -0.037706 -0.054964 -0.012184
v -0.032470 -0.053266 -0.002009
v -0.036370 -0.049837 -0.013452
v -0.031629 -0.049018 -0.003289
v -0.031507 -0.049885 0.008560
v -0.030766 -0.046170 0.007204
v -0.035282 -0.044467 0.020926
v -0.034122 -0.040539 0.020408
v -0.044172 -0.041258 0.027016
v -0.042565 -0.036429 0.026466
v -0.044614 -0.043510 0.027467
v -0.035790 -0.047050 0.021638
v -0.038120 -0.084559 0.029347
v -0.039151 -0.064118 -0.004265
v -0.044362 -0.089887 0.022961
v -0.053862 -0.091838 0.019209
v -0.048304 -0.064351 -0.010236
v -0.064076 -0.089887 0.019098
v -0.058518 -0.062400 -0.010356
v -0.072265 -0.084559 0.022656
v -0.067054 -0.058790 -0.004594
v -0.076237 -0.077280 0.028931
v -0.071182 -0.053124 0.003995
v -0.074928 -0.070001 0.036241
v -0.070099 -0.047732 0.013749
v -0.068686 -0.064673 0.042627
v -0.064137 -0.043710 0.021784
v -0.055052 -0.042886 0.028476
v -0.033395 -0.060340 0.004441
v -0.032449 -0.055056 0.013923
v -0.036811 -0.077280 0.036657
v -0.040784 -0.070001 0.042931
v -0.048972 -0.064673 0.046490
v -0.036297 -0.048667 0.023027
v -0.031977 -0.052953 0.010904
v -0.033283 -0.057260 0.001227
v -0.069103 -0.045293 0.010898
v -0.063383 -0.041917 0.019709
v -0.054477 -0.041544 0.027303
v -0.045054 -0.044796 0.028594
v -0.041708 -0.040626 -0.020227
v -0.044439 -0.022125 -0.018700
v -0.052814 -0.020606 -0.011125
v -0.057051 -0.018684 -0.002550
v -0.062845 -0.029639 0.007098
v -0.056321 -0.016763 0.006024
v -0.051951 -0.015244 0.016729
v -0.046130 -0.003128 0.016279
v -0.043384 -0.015414 0.025773
v -0.037800 -0.003213 0.025175
v -0.035908 -0.019352 0.027262
v -0.031693 -0.008145 0.027349
v -0.024452 -0.013128 0.021375
v -0.022739 -0.002864 0.027781
v -0.010099 -0.002864 0.024578
v -0.010099 0.008988 0.024578
v -0.002002 -0.002864 0.015829
v -0.002002 0.008988 0.015829
v 0.000961 -0.002864 0.003876
v 0.000961 0.008988 0.003876
v -0.002002 -0.002864 -0.008076
v -0.002002 0.008988 -0.008076
v -0.010099 -0.002864 -0.016825
v -0.010099 0.008988 -0.016825
v -0.021156 0.008988 -0.020028
v -0.013062 0.019253 -0.011278
v -0.021156 0.019253 -0.013623
v -0.017048 0.024359 -0.003816
v -0.021156 0.024359 -0.005006
v -0.021156 0.025959 0.003876
v -0.025265 0.024359 -0.003816
v -0.028273 0.024359 -0.000565
v -0.029251 0.019253 -0.011278
v -0.035177 0.019253 -0.004873
v -0.032214 0.008988 -0.016825
v -0.040311 0.008988 -0.008076
v -0.046562 -0.005809 -0.009600
v -0.049467 -0.004848 -0.002325
v -0.059186 -0.062723 0.046378
v -0.066110 -0.039549 -0.003142
v -0.036965 -0.026063 -0.019998
v -0.038327 -0.006568 -0.017763
v -0.032221 -0.011500 -0.019770
v -0.027476 0.003062 -0.019541
v -0.031395 -0.034991 -0.013734
v -0.028611 -0.035885 -0.003763
v -0.025355 -0.018134 -0.004416
v -0.025655 -0.019835 0.003876
v -0.028454 -0.034814 0.006249
v -0.025355 -0.018134 0.012169
v -0.024452 -0.013128 -0.013623
v -0.013062 -0.013128 -0.011278
v -0.007136 -0.013128 -0.004873
v -0.017320 -0.018134 -0.003305
v -0.014513 -0.018134 -0.000270
v -0.025655 -0.019835 0.003876
v -0.013485 -0.018134 0.003876
v -0.004966 -0.013128 0.003876
v -0.007136 -0.013128 0.012626
v -0.014513 -0.018134 0.008023
v -0.017320 -0.018134 0.011058
v -0.025355 -0.018134 0.012169
v -0.013062 -0.013128 0.019031
v -0.040125 -0.030560 0.026620
v -0.051746 -0.034024 0.025974
v -0.048969 -0.027616 0.025816
v -0.060265 -0.033812 0.017256
v -0.053902 -0.039236 0.026805
v -0.062631 -0.039158 0.018309
v -0.057770 -0.027360 0.017179
v -0.065551 -0.036244 0.007459
v -0.068108 -0.041888 0.008724
v -0.007136 0.019253 -0.004873
v -0.014040 0.024359 -0.000565
v -0.004966 0.019253 0.003876
v -0.012939 0.024359 0.003876
v -0.013062 0.019253 0.019031
v -0.007136 0.019253 0.012626
v -0.017048 0.024359 0.011569
v -0.014040 0.024359 0.008318
v -0.032214 0.008988 0.024578
v -0.040311 0.008988 0.015829
v -0.029251 0.019253 0.019031
v -0.035177 0.019253 0.012626
v -0.043864 0.008988 0.003876
v -0.037347 0.019253 0.003876
v -0.029374 0.024359 0.003876
v -0.022739 -0.002864 -0.020028
v -0.034174 -0.044929 -0.013790
v -0.030239 -0.044761 -0.003437
v -0.029854 -0.042304 0.007435
v -0.032804 -0.036886 0.019756
v -0.028273 0.024359 0.008318
v -0.025265 0.024359 0.011569
v -0.049798 -0.003887 0.004950
v -0.027476 0.003062 0.027436
v -0.021156 0.008988 0.027781
v -0.021156 0.019253 0.021375
v -0.021156 0.024359 0.012759
v -0.025355 -0.018134 -0.004416
v -0.030070 -0.028967 0.019667
v -0.072265 -0.084559 0.022656
v -0.056524 -0.077280 0.032794
v -0.064076 -0.089887 0.019098
v -0.053862 -0.091838 0.019209
v -0.044362 -0.089887 0.022961
v -0.068686 -0.064673 0.042627
v -0.074928 -0.070001 0.036241
v -0.076237 -0.077280 0.028931
v -0.040784 -0.070001 0.042931
v -0.048972 -0.064673 0.046490
v -0.059186 -0.062723 0.046378
v -0.038120 -0.084559 0.029347
v -0.036811 -0.077280 0.036657
vt 0.597812 0.452227
vt 0.600937 0.457485
vt 0.601460 0.453599
vt 0.604532 0.455986
vt 0.604010 0.459673
vt 0.606127 0.459291
vt 0.605669 0.462383
vt 0.594552 0.452234
vt 0.597345 0.456007
vt 0.596640 0.460714
vt 0.600034 0.462498
vt 0.598931 0.468185
vt 0.603059 0.464478
vt 0.602090 0.469850
vt 0.603713 0.471955
vt 0.594164 0.455561
vt 0.592222 0.456801
vt 0.593669 0.459306
vt 0.591910 0.459904
vt 0.591864 0.459271
vt 0.591589 0.461985
vt 0.593265 0.463229
vt 0.592835 0.466098
vt 0.596564 0.465573
vt 0.595967 0.469100
vt 0.596727 0.463928
vt 0.593453 0.461341
vt 0.594318 0.433942
vt 0.594701 0.448874
vt 0.596634 0.430050
vt 0.600159 0.428626
vt 0.598097 0.448704
vt 0.603949 0.430050
vt 0.601886 0.450129
vt 0.606988 0.433942
vt 0.605054 0.452766
vt 0.608461 0.439259
vt 0.606586 0.456905
vt 0.607975 0.444576
vt 0.606183 0.460843
vt 0.605659 0.448469
vt 0.603971 0.463782
vt 0.600601 0.464384
vt 0.592565 0.451634
vt 0.592214 0.455494
vt 0.593832 0.439259
vt 0.595306 0.444576
vt 0.598345 0.448469
vt 0.593642 0.460160
vt 0.592039 0.457029
vt 0.592523 0.453884
vt 0.605814 0.462625
vt 0.603692 0.465091
vt 0.600387 0.465364
vt 0.596891 0.462989
vt 0.595649 0.466035
vt 0.596663 0.479549
vt 0.599770 0.480658
vt 0.601342 0.482062
vt 0.603492 0.474060
vt 0.601071 0.483466
vt 0.599450 0.484575
vt 0.597290 0.493426
vt 0.596271 0.484451
vt 0.594199 0.493364
vt 0.593498 0.481574
vt 0.591933 0.489761
vt 0.589247 0.486121
vt 0.588611 0.493619
vt 0.583921 0.493619
vt 0.583921 0.502276
vt 0.580917 0.493619
vt 0.580917 0.502276
vt 0.579818 0.493619
vt 0.579818 0.502276
vt 0.580917 0.493619
vt 0.580917 0.502276
vt 0.583921 0.493619
vt 0.583921 0.502276
vt 0.588024 0.502276
vt 0.585020 0.509774
vt 0.588024 0.509774
vt 0.586499 0.513504
vt 0.588024 0.513504
vt 0.588024 0.514673
vt 0.589549 0.513504
vt 0.590665 0.513504
vt 0.591028 0.509774
vt 0.593226 0.509774
vt 0.592127 0.502276
vt 0.595131 0.502276
vt 0.597450 0.491467
vt 0.598529 0.492169
vt 0.602134 0.449893
vt 0.604704 0.466821
vt 0.593889 0.476672
vt 0.594395 0.490913
vt 0.592129 0.487310
vt 0.590369 0.497947
vt 0.591823 0.470151
vt 0.590790 0.469497
vt 0.589582 0.482464
vt 0.589693 0.481222
vt 0.590732 0.470280
vt 0.589582 0.482464
vt 0.589247 0.486121
vt 0.585020 0.486121
vt 0.582821 0.486121
vt 0.586601 0.482464
vt 0.585559 0.482464
vt 0.589693 0.481222
vt 0.585177 0.482464
vt 0.582017 0.486121
vt 0.582821 0.486121
vt 0.585559 0.482464
vt 0.586601 0.482464
vt 0.589582 0.482464
vt 0.585020 0.486121
vt 0.595062 0.473387
vt 0.599374 0.470857
vt 0.598344 0.475538
vt 0.602535 0.471012
vt 0.600174 0.467049
vt 0.603413 0.467107
vt 0.601609 0.475725
vt 0.604496 0.469235
vt 0.605445 0.465112
vt 0.582821 0.509774
vt 0.585383 0.513504
vt 0.582017 0.509774
vt 0.584975 0.513504
vt 0.585020 0.509774
vt 0.582821 0.509774
vt 0.586499 0.513504
vt 0.585383 0.513504
vt 0.592127 0.502276
vt 0.595131 0.502276
vt 0.591028 0.509774
vt 0.593226 0.509774
vt 0.596449 0.502276
vt 0.594031 0.509774
vt 0.591073 0.513504
vt 0.588611 0.493619
vt 0.592854 0.462891
vt 0.591394 0.463014
vt 0.591251 0.464809
vt 0.592345 0.468766
vt 0.590665 0.513504
vt 0.589549 0.513504
vt 0.598651 0.492871
vt 0.590369 0.497947
vt 0.588024 0.502276
vt 0.588024 0.509774
vt 0.588024 0.513504
vt 0.589582 0.482464
vt 0.591331 0.474551
vt 0.606988 0.433942
vt 0.601147 0.439259
vt 0.603949 0.430050
vt 0.600159 0.428626
vt 0.596634 0.430050
vt 0.605659 0.448469
vt 0.607975 0.444576
vt 0.608461 0.439259
vt 0.595306 0.444576
vt 0.598345 0.448469
vt 0.602134 0.449893
vt 0.594318 0.433942
vt 0.593832 0.439259
vn -0.1645 0.6383 0.7520
vn 0.3600 0.2387 0.9019
vn 0.3803 0.5121 0.7701
vn 0.7934 0.2303 0.5635
vn 0.7599 -0.0071 0.6500
vn 0.9648 -0.1091 0.2392
vn 0.9344 -0.2210 0.2792
vn -0.6427 0.5579 0.5251
vn -0.2059 0.4321 0.8780
vn -0.2471 0.1997 0.9482
vn 0.3264 -0.0362 0.9445
vn 0.3221 -0.1329 0.9373
vn 0.7128 -0.2371 0.6601
vn 0.7110 -0.3133 0.6296
vn 0.8868 -0.3783 0.2656
vn -0.6703 0.4572 0.5846
vn -0.9238 0.3137 0.2196
vn -0.7131 0.3345 0.6161
vn -0.9369 0.2764 0.2140
vn -0.9851 0.1178 -0.1252
vn -0.9717 0.1957 -0.1325
vn -0.7937 0.0696 -0.6043
vn -0.7731 0.1801 -0.6082
vn -0.2897 -0.0798 -0.9538
vn -0.2510 0.0546 -0.9664
vn -0.3732 -0.3393 -0.8635
vn -0.8322 -0.0913 -0.5470
vn -0.9173 0.3603 0.1696
vn -0.6410 0.5861 0.4956
vn -0.6054 0.6327 0.4830
vn -0.1330 0.7352 0.6647
vn -0.1544 0.7043 0.6929
vn 0.3791 0.6397 0.6686
vn 0.3868 0.6009 0.6995
vn 0.7871 0.3680 0.4951
vn 0.8017 0.3099 0.5111
vn 0.9818 -0.0026 0.1902
vn 0.9763 -0.0717 0.2041
vn 0.9157 -0.3650 -0.1680
vn 0.8969 -0.4202 -0.1374
vn 0.6221 -0.6061 -0.4956
vn 0.6320 -0.6500 -0.4221
vn 0.2027 -0.6952 -0.6896
vn -0.9298 0.3144 0.1915
vn -0.9863 0.0085 -0.1649
vn -0.9818 -0.0014 -0.1898
vn -0.7888 -0.3341 -0.5158
vn -0.3726 -0.5825 -0.7224
vn -0.8127 -0.2606 -0.5211
vn -0.9911 0.0540 -0.1218
vn -0.9233 0.3161 0.2181
vn 0.9036 -0.4118 -0.1183
vn 0.6832 -0.5770 -0.4475
vn 0.2795 -0.5189 -0.8078
vn -0.3703 -0.5611 -0.7403
vn -0.2622 0.1130 0.9584
vn 0.3727 -0.2000 0.9062
vn 0.7124 -0.3632 0.6005
vn 0.8582 -0.4410 0.2627
vn 0.9018 -0.4082 -0.1416
vn 0.8799 -0.4597 -0.1201
vn 0.7805 -0.3915 -0.4875
vn 0.7912 -0.3996 -0.4630
vn 0.4364 -0.2144 -0.8738
vn 0.4741 -0.2498 -0.8443
vn -0.2022 0.1040 -0.9738
vn -0.0327 0.1010 -0.9944
vn -0.4340 0.5494 -0.7140
vn -0.1431 0.2338 -0.9617
vn -0.4879 0.2636 -0.8321
vn -0.5019 -0.2555 -0.8263
vn -0.8505 0.2528 -0.4612
vn -0.8505 -0.2528 -0.4612
vn -0.9684 0.2495 0.0000
vn -0.9684 -0.2494 0.0000
vn -0.8505 0.2528 0.4612
vn -0.8505 -0.2528 0.4612
vn -0.4953 0.2633 0.8279
vn -0.5055 -0.2597 0.8228
vn -0.0307 -0.2853 0.9580
vn -0.3819 -0.6891 0.6159
vn -0.0000 -0.6947 0.7193
vn -0.2029 -0.9243 0.3232
vn -0.0000 -0.9265 0.3764
vn -0.0000 -1.0000 0.0000
vn 0.2029 -0.9243 0.3232
vn 0.3458 -0.9202 0.1836
vn 0.3818 -0.6891 0.6159
vn 0.6472 -0.6783 0.3480
vn 0.4612 -0.3790 0.8023
vn 0.7647 -0.4559 0.4554
vn 0.7572 -0.3687 0.5392
vn 0.8683 -0.4290 0.2491
vn 0.1448 -0.6794 -0.7194
vn 0.8904 -0.3520 0.2885
vn -0.2433 0.0560 0.9683
vn 0.4420 -0.2248 0.8684
vn -0.1196 0.0893 0.9888
vn 0.2233 -0.1061 0.9690
vn -0.8063 0.2186 0.5496
vn -0.9696 0.1936 0.1495
vn -0.9682 0.2380 0.0771
vn -0.9833 0.1822 -0.0011
vn -0.9782 0.1911 -0.0806
vn -0.9830 0.1837 -0.0031
vn -0.4727 0.5579 0.6822
vn -0.3565 0.7020 0.6165
vn -0.6372 0.6904 0.3425
vn -0.1734 0.9348 0.3101
vn -0.3133 0.9354 0.1642
vn -0.0740 0.9973 0.0000
vn -0.3552 0.9348 0.0000
vn -0.7282 0.6853 0.0000
vn -0.6372 0.6904 -0.3425
vn -0.3133 0.9354 -0.1642
vn -0.1693 0.9330 -0.3175
vn -0.0580 0.9340 -0.3525
vn -0.3492 0.7005 -0.6224
vn -0.2409 0.1096 -0.9643
vn 0.3847 -0.2366 -0.8922
vn 0.4033 -0.1959 -0.8939
vn 0.7697 -0.3704 -0.5199
vn 0.3626 -0.2916 -0.8851
vn 0.7472 -0.4398 -0.4983
vn 0.7745 -0.3524 -0.5253
vn 0.9037 -0.4070 -0.1329
vn 0.9118 -0.3907 -0.1267
vn -0.6472 -0.6783 0.3480
vn -0.3458 -0.9202 0.1836
vn -0.7397 -0.6730 0.0000
vn -0.3963 -0.9181 0.0000
vn -0.3818 -0.6891 -0.6159
vn -0.6472 -0.6783 -0.3480
vn -0.2029 -0.9243 -0.3232
vn -0.3458 -0.9202 -0.1836
vn 0.4626 -0.3845 -0.7989
vn 0.7688 -0.4471 -0.4572
vn 0.3818 -0.6891 -0.6159
vn 0.6406 -0.6825 -0.3520
vn 0.8742 -0.4855 -0.0035
vn 0.7280 -0.6856 0.0065
vn 0.3962 -0.9181 0.0000
vn -0.1459 0.2098 0.9668
vn -0.7585 0.2903 0.5835
vn -0.9512 0.2583 0.1687
vn -0.9628 0.2204 -0.1563
vn -0.7902 0.2282 -0.5688
vn 0.3458 -0.9202 -0.1836
vn 0.2029 -0.9243 -0.3232
vn 0.8948 -0.4397 -0.0778
vn 0.2201 -0.1075 -0.9695
vn -0.0389 -0.2826 -0.9585
vn -0.0000 -0.6947 -0.7193
vn -0.0000 -0.9265 -0.3764
vn -0.0478 0.9372 0.3454
vn -0.7971 0.2851 -0.5324
vn 0.1394 0.6891 -0.7111
vn 0.1393 0.6891 -0.7111
vn 0.1393 0.6891 -0.7112
vn 0.1394 0.6891 -0.7112
usemtl Santa
s 1
f 1/1/1 2/2/2 3/3/3
f 3/3/3 2/2/2 4/4/4
f 2/2/2 5/5/5 4/4/4
f 4/4/4 5/5/5 6/6/6
f 5/5/5 7/7/7 6/6/6
f 8/8/8 9/9/9 1/1/1
f 1/1/1 9/9/9 2/2/2
f 9/9/9 10/10/10 2/2/2
f 2/2/2 10/10/10 11/11/11
f 10/10/10 12/12/12 11/11/11
f 11/11/11 12/12/12 13/13/13
f 12/12/12 14/14/14 13/13/13
f 13/13/13 14/14/14 15/15/15
f 16/16/16 17/17/17 18/18/18
f 18/18/18 17/17/17 19/19/19
f 17/17/17 20/20/20 19/19/19
f 19/19/19 20/20/20 21/21/21
f 20/20/20 22/22/22 21/21/21
f 21/21/21 22/22/22 23/23/23
f 22/22/22 24/24/24 23/23/23
f 23/23/23 24/24/24 25/25/25
f 24/24/24 22/22/22 26/26/26
f 26/26/26 22/22/22 27/27/27
f 22/22/22 20/20/20 27/27/27
f 28/28/28 29/29/29 30/30/30
f 30/30/30 29/29/29 31/31/31
f 29/29/29 32/32/32 31/31/31
f 31/31/31 32/32/32 33/33/33
f 32/32/32 34/34/34 33/33/33
f 33/33/33 34/34/34 35/35/35
f 34/34/34 36/36/36 35/35/35
f 35/35/35 36/36/36 37/37/37
f 36/36/36 38/38/38 37/37/37
f 37/37/37 38/38/38 39/39/39
f 38/38/38 40/40/40 39/39/39
f 39/39/39 40/40/40 41/41/41
f 40/40/40 42/42/42 41/41/41
f 41/41/41 42/42/42 43/43/43
f 29/29/29 28/28/28 44/44/44
f 44/44/44 28/28/28 45/45/45
f 28/28/28 46/46/46 45/45/45
f 45/45/45 46/46/46 47/47/47
f 48/48/48 49/49/49 47/47/47
f 47/47/47 49/49/49 45/45/45
f 49/49/49 50/50/50 45/45/45
f 45/45/45 50/50/50 44/44/44
f 50/50/50 51/51/51 44/44/44
f 44/44/44 51/51/51 29/29/29
f 51/51/51 8/8/8 29/29/29
f 29/29/29 8/8/8 32/32/32
f 8/8/8 1/1/1 32/32/32
f 32/32/32 1/1/1 34/34/34
f 1/1/1 3/3/3 34/34/34
f 34/34/34 3/3/3 36/36/36
f 3/3/3 4/4/4 36/36/36
f 36/36/36 4/4/4 38/38/38
f 4/4/4 6/6/6 38/38/38
f 38/38/38 6/6/6 40/40/40
f 6/6/6 52/52/52 40/40/40
f 40/40/40 52/52/52 42/42/42
f 52/52/52 53/53/53 42/42/42
f 42/42/42 53/53/53 43/43/43
f 53/53/53 54/54/54 43/43/43
f 43/43/43 54/54/54 55/55/55
f 54/54/54 26/26/26 55/55/55
f 55/55/55 26/26/26 49/49/49
f 26/26/26 27/27/27 49/49/49
f 49/49/49 27/27/27 50/50/50
f 27/27/27 20/20/20 50/50/50
f 50/50/50 20/20/20 51/51/51
f 20/20/20 17/17/17 51/51/51
f 51/51/51 17/17/17 8/8/8
f 17/17/17 16/16/16 8/8/8
f 8/8/8 16/16/16 9/9/9
f 16/16/16 18/18/18 9/9/9
f 9/9/9 18/18/18 10/10/10
f 18/18/18 56/56/56 10/10/10
f 10/10/10 56/56/56 12/12/12
f 56/56/56 57/57/57 12/12/12
f 12/12/12 57/57/57 14/14/14
f 57/57/57 58/58/58 14/14/14
f 14/14/14 58/58/58 15/15/15
f 58/58/58 59/59/59 15/15/15
f 15/15/15 59/59/59 60/60/60
f 59/59/59 61/61/61 60/60/60
f 60/60/60 61/61/61 62/62/62
f 61/61/61 63/63/63 62/62/62
f 62/62/62 63/63/63 64/64/64
f 63/63/63 65/65/65 64/64/64
f 64/64/64 65/65/65 66/66/66
f 65/65/65 67/67/67 66/66/66
f 66/66/66 67/67/67 68/68/68
f 67/67/67 69/69/69 68/68/68
f 68/68/68 69/69/69 70/70/70
f 69/69/69 71/71/71 70/70/70
f 70/70/70 71/71/71 72/72/72
f 71/71/71 73/73/73 72/72/72
f 72/72/72 73/73/73 74/74/74
f 73/73/73 75/75/75 74/74/74
f 74/74/74 75/75/75 76/76/76
f 75/75/75 77/77/77 76/76/76
f 76/76/76 77/77/77 78/78/78
f 77/77/77 79/79/79 78/78/78
f 78/78/78 79/79/79 80/80/80
f 79/79/79 81/81/81 80/80/80
f 80/80/80 81/81/81 82/82/82
f 81/81/81 83/83/83 82/82/82
f 82/82/82 83/83/83 84/84/84
f 83/83/83 85/85/85 84/84/84
f 84/84/84 85/85/85 86/86/86
f 85/85/85 87/87/87 86/86/86
f 86/86/86 87/87/87 88/88/88
f 87/87/87 89/89/89 88/88/88
f 88/88/88 89/89/89 90/90/90
f 89/89/89 91/91/91 90/90/90
f 90/90/90 91/91/91 92/92/92
f 91/91/91 93/93/93 92/92/92
f 92/92/92 93/93/93 58/58/58
f 93/93/93 59/59/59 58/58/58
f 49/49/49 48/48/48 55/55/55
f 55/55/55 48/48/48 43/43/43
f 48/48/48 94/94/94 43/43/43
f 43/43/43 94/94/94 41/41/41
f 5/5/5 2/2/2 13/13/13
f 13/13/13 2/2/2 11/11/11
f 5/5/5 13/13/13 7/7/7
f 7/7/7 13/13/13 95/95/95
f 13/13/13 15/15/15 95/95/95
f 95/95/95 15/15/15 60/60/60
f 56/56/56 96/96/96 57/57/57
f 57/57/57 96/96/96 97/97/97
f 96/96/96 98/98/98 97/97/97
f 97/97/97 98/98/98 90/90/90
f 98/98/98 99/99/99 90/90/90
f 100/100/100 101/101/101 102/102/102
f 102/102/102 101/101/101 103/103/103
f 101/101/101 104/104/104 103/103/103
f 103/103/103 104/104/104 105/105/105
f 104/104/104 68/68/68 105/105/105
f 106/106/106 100/100/100 102/102/102
f 78/78/78 107/107/107 76/76/76
f 76/76/76 107/107/107 108/108/108
f 107/107/107 109/109/109 108/108/108
f 108/108/108 109/109/109 110/110/110
f 109/109/109 111/111/111 110/110/110
f 110/110/110 111/111/111 112/112/112
f 76/76/76 108/108/108 74/74/74
f 74/74/74 108/108/108 113/113/113
f 108/108/108 110/110/110 113/113/113
f 113/113/113 110/110/110 112/112/112
f 74/74/74 113/113/113 72/72/72
f 72/72/72 113/113/113 114/114/114
f 113/113/113 112/112/112 114/114/114
f 114/114/114 112/112/112 115/115/115
f 112/112/112 111/111/111 115/115/115
f 115/115/115 111/111/111 116/116/116
f 111/111/111 117/117/117 116/116/116
f 116/116/116 117/117/117 118/118/118
f 117/117/117 68/68/68 118/118/118
f 118/118/118 68/68/68 70/70/70
f 72/72/72 114/114/114 70/70/70
f 70/70/70 114/114/114 118/118/118
f 114/114/114 115/115/115 118/118/118
f 118/118/118 115/115/115 116/116/116
f 119/119/119 120/120/120 121/121/121
f 121/121/121 120/120/120 122/122/122
f 120/120/120 123/123/123 122/122/122
f 122/122/122 123/123/123 124/124/124
f 123/123/123 54/54/54 124/124/124
f 124/124/124 54/54/54 53/53/53
f 121/121/121 122/122/122 125/125/125
f 125/125/125 122/122/122 126/126/126
f 122/122/122 124/124/124 126/126/126
f 126/126/126 124/124/124 127/127/127
f 124/124/124 53/53/53 127/127/127
f 127/127/127 53/53/53 52/52/52
f 57/57/57 97/97/97 58/58/58
f 58/58/58 97/97/97 92/92/92
f 97/97/97 90/90/90 92/92/92
f 77/77/77 128/128/128 79/79/79
f 79/79/79 128/128/128 81/81/81
f 128/128/128 129/129/129 81/81/81
f 81/81/81 129/129/129 83/83/83
f 75/75/75 130/130/130 77/77/77
f 77/77/77 130/130/130 128/128/128
f 130/130/130 131/131/131 128/128/128
f 128/128/128 131/131/131 129/129/129
f 131/131/131 85/85/85 129/129/129
f 129/129/129 85/85/85 83/83/83
f 71/71/71 132/132/132 73/73/73
f 73/73/73 132/132/132 133/133/133
f 132/132/132 134/134/134 133/133/133
f 133/133/133 134/134/134 135/135/135
f 136/136/136 137/137/137 138/138/138
f 138/138/138 137/137/137 139/139/139
f 137/137/137 140/140/140 139/139/139
f 91/91/91 89/89/89 141/141/141
f 141/141/141 89/89/89 142/142/142
f 89/89/89 87/87/87 142/142/142
f 142/142/142 87/87/87 85/85/85
f 86/86/86 88/88/88 84/84/84
f 84/84/84 88/88/88 82/82/82
f 88/88/88 90/90/90 82/82/82
f 82/82/82 90/90/90 80/80/80
f 90/90/90 99/99/99 80/80/80
f 80/80/80 99/99/99 143/143/143
f 99/99/99 98/98/98 143/143/143
f 143/143/143 98/98/98 106/106/106
f 98/98/98 96/96/96 106/106/106
f 106/106/106 96/96/96 100/100/100
f 96/96/96 56/56/56 100/100/100
f 100/100/100 56/56/56 144/144/144
f 56/56/56 18/18/18 144/144/144
f 144/144/144 18/18/18 145/145/145
f 18/18/18 19/19/19 145/145/145
f 145/145/145 19/19/19 146/146/146
f 19/19/19 21/21/21 146/146/146
f 146/146/146 21/21/21 147/147/147
f 21/21/21 23/23/23 147/147/147
f 147/147/147 23/23/23 119/119/119
f 23/23/23 25/25/25 119/119/119
f 119/119/119 25/25/25 120/120/120
f 25/25/25 24/24/24 120/120/120
f 120/120/120 24/24/24 123/123/123
f 24/24/24 26/26/26 123/123/123
f 123/123/123 26/26/26 54/54/54
f 148/148/148 149/149/149 139/139/139
f 139/139/139 149/149/149 138/138/138
f 59/59/59 93/93/93 61/61/61
f 61/61/61 93/93/93 150/150/150
f 93/93/93 140/140/140 150/150/150
f 150/150/150 140/140/140 63/63/63
f 140/140/140 137/137/137 63/63/63
f 63/63/63 137/137/137 65/65/65
f 137/137/137 136/136/136 65/65/65
f 65/65/65 136/136/136 67/67/67
f 136/136/136 151/151/151 67/67/67
f 67/67/67 151/151/151 69/69/69
f 151/151/151 152/152/152 69/69/69
f 69/69/69 152/152/152 71/71/71
f 152/152/152 153/153/153 71/71/71
f 71/71/71 153/153/153 132/132/132
f 153/153/153 154/154/154 132/132/132
f 132/132/132 154/154/154 134/134/134
f 154/154/154 85/85/85 134/134/134
f 134/134/134 85/85/85 135/135/135
f 85/85/85 131/131/131 135/135/135
f 135/135/135 131/131/131 133/133/133
f 131/131/131 130/130/130 133/133/133
f 133/133/133 130/130/130 73/73/73
f 130/130/130 75/75/75 73/73/73
f 150/150/150 63/63/63 61/61/61
f 151/151/151 136/136/136 152/152/152
f 152/152/152 136/136/136 153/153/153
f 136/136/136 138/138/138 153/153/153
f 153/153/153 138/138/138 154/154/154
f 138/138/138 149/149/149 154/154/154
f 154/154/154 149/149/149 85/85/85
f 149/149/149 148/148/148 85/85/85
f 85/85/85 148/148/148 142/142/142
f 148/148/148 139/139/139 142/142/142
f 142/142/142 139/139/139 141/141/141
f 139/139/139 140/140/140 141/141/141
f 141/141/141 140/140/140 91/91/91
f 140/140/140 93/93/93 91/91/91
f 80/80/80 143/143/143 78/78/78
f 78/78/78 143/143/143 107/107/107
f 143/143/143 106/106/106 107/107/107
f 107/107/107 106/106/106 109/109/109
f 106/106/106 155/155/155 109/109/109
f 109/109/109 155/155/155 111/111/111
f 66/66/66 68/68/68 156/156/156
f 156/156/156 68/68/68 104/104/104
f 6/6/6 7/7/7 52/52/52
f 52/52/52 7/7/7 127/127/127
f 7/7/7 95/95/95 127/127/127
f 127/127/127 95/95/95 126/126/126
f 95/95/95 60/60/60 126/126/126
f 126/126/126 60/60/60 125/125/125
f 60/60/60 62/62/62 125/125/125
f 125/125/125 62/62/62 121/121/121
f 62/62/62 64/64/64 121/121/121
f 121/121/121 64/64/64 119/119/119
f 64/64/64 66/66/66 119/119/119
f 119/119/119 66/66/66 147/147/147
f 66/66/66 156/156/156 147/147/147
f 147/147/147 156/156/156 146/146/146
f 156/156/156 104/104/104 146/146/146
f 146/146/146 104/104/104 145/145/145
f 104/104/104 101/101/101 145/145/145
f 145/145/145 101/101/101 144/144/144
f 101/101/101 100/100/100 144/144/144
f 157/157/157 158/158/157 159/159/157
f 159/159/157 158/158/157 160/160/157
f 158/158/157 161/161/158 160/160/157
f 162/162/158 158/158/157 163/163/157
f 163/163/157 158/158/157 164/164/157
f 158/158/157 157/157/157 164/164/157
f 165/165/159 158/158/157 166/166/158
f 166/166/158 158/158/157 167/167/157
f 158/158/157 162/162/158 167/167/157
f 161/161/158 158/158/157 168/168/157
f 168/168/157 158/158/157 169/169/160
f 158/158/157 165/165/159 169/169/160
