# Blender v2.93.0 OBJ File: 'anakin.blend'
# www.blender.org
mtllib anakinGhostLightSaberRightArm.mtl
o Mesh_0146.002_Mesh_0146Mesh.002
v -0.054601 -0.095503 0.014441
v -0.057263 -0.080945 0.028025
v -0.045101 -0.093553 0.018192
v -0.038860 -0.088224 0.024578
v -0.037550 -0.080945 0.031888
v -0.076976 -0.080945 0.024162
v -0.073004 -0.088224 0.017888
v -0.064815 -0.093553 0.014329
v -0.059925 -0.066388 0.041610
v -0.069425 -0.068338 0.037858
v -0.075666 -0.073667 0.031472
v -0.041521 -0.073667 0.038162
v -0.049711 -0.068338 0.041721
v -0.048275 -0.063192 -0.019363
v -0.058108 -0.061315 -0.019478
v -0.056697 -0.055995 -0.023154
v -0.066386 -0.058048 -0.013711
v -0.064980 -0.053000 -0.017078
v -0.070686 -0.053522 -0.004258
v -0.069451 -0.049289 -0.007066
v -0.039490 -0.063184 -0.013394
v -0.047017 -0.058018 -0.023132
v -0.045116 -0.051574 -0.024338
v -0.054263 -0.049132 -0.024078
v -0.051291 -0.041347 -0.024407
v -0.062417 -0.046422 -0.017769
v -0.059805 -0.039068 -0.017419
v -0.064178 -0.036186 -0.007545
v -0.038445 -0.058629 -0.016953
v -0.037109 -0.053503 -0.018220
v -0.033209 -0.056931 -0.006777
v -0.032368 -0.052684 -0.008058
v -0.032246 -0.053550 0.003791
v -0.031504 -0.049835 0.002435
v -0.036022 -0.048132 0.016157
v -0.034861 -0.044204 0.015639
v -0.044911 -0.044923 0.022248
v -0.043304 -0.040094 0.021698
v -0.045352 -0.047175 0.022699
v -0.036529 -0.050716 0.016870
v -0.038860 -0.088224 0.024578
v -0.045101 -0.093553 0.018192
v -0.039890 -0.067784 -0.009034
v -0.054601 -0.095503 0.014441
v -0.049043 -0.068016 -0.015004
v -0.064815 -0.093553 0.014329
v -0.059256 -0.066066 -0.015125
v -0.073004 -0.088224 0.017888
v -0.067794 -0.062455 -0.009362
v -0.076976 -0.080945 0.024162
v -0.071922 -0.056789 -0.000774
v -0.075666 -0.073667 0.031472
v -0.070836 -0.051397 0.008980
v -0.069425 -0.068338 0.037858
v -0.064875 -0.047375 0.017016
v -0.055791 -0.046551 0.023707
v -0.034133 -0.064005 -0.000328
v -0.033188 -0.058721 0.009154
v -0.037550 -0.080945 0.031888
v -0.041521 -0.073667 0.038162
v -0.049711 -0.068338 0.041721
v -0.037035 -0.052333 0.018258
v -0.032717 -0.056619 0.006135
v -0.034022 -0.060925 -0.003541
v -0.069842 -0.048959 0.006130
v -0.064123 -0.045582 0.014940
v -0.055216 -0.045210 0.022534
v -0.045793 -0.048461 0.023826
v -0.042447 -0.044291 -0.024995
v -0.045179 -0.025790 -0.023469
v -0.053553 -0.024271 -0.015894
v -0.057790 -0.022350 -0.007319
v -0.063584 -0.033304 0.002330
v -0.057060 -0.020428 0.001256
v -0.052689 -0.018909 0.011960
v -0.046869 -0.006793 0.011510
v -0.044123 -0.019080 0.021004
v -0.038539 -0.006878 0.020407
v -0.036648 -0.023018 0.022493
v -0.032432 -0.011810 0.022580
v -0.025191 -0.016794 0.016607
v -0.023478 -0.006529 0.023012
v -0.010837 -0.006529 0.019809
v -0.010837 0.005323 0.019809
v -0.002742 -0.006529 0.011060
v -0.002742 0.005323 0.011060
v 0.000221 -0.006529 -0.000892
v 0.000221 0.005323 -0.000892
v -0.002742 -0.006529 -0.012844
v -0.002742 0.005323 -0.012844
v -0.010837 -0.006529 -0.021594
v -0.010837 0.005323 -0.021594
v -0.021895 0.005323 -0.024796
v -0.013800 0.015588 -0.016047
v -0.021895 0.015588 -0.018391
v -0.017786 0.020694 -0.008584
v -0.021895 0.020694 -0.009774
v -0.021895 0.022294 -0.000892
v -0.026004 0.020694 -0.008584
v -0.029012 0.020694 -0.005333
v -0.029991 0.015588 -0.016047
v -0.035917 0.015588 -0.009642
v -0.032954 0.005323 -0.021594
v -0.041049 0.005323 -0.012844
v -0.047301 -0.009474 -0.014369
v -0.050206 -0.008513 -0.007094
v -0.059925 -0.066388 0.041610
v -0.066849 -0.043215 -0.007911
v -0.037703 -0.029728 -0.024767
v -0.039066 -0.010233 -0.022531
v -0.032959 -0.015166 -0.024538
v -0.028216 -0.000603 -0.024310
v -0.032134 -0.038656 -0.018503
v -0.026094 -0.021799 -0.009184
v -0.029350 -0.039550 -0.008532
v -0.026395 -0.023500 -0.000892
v -0.029193 -0.038479 0.001480
v -0.026094 -0.021799 0.007400
v -0.025191 -0.016794 -0.018391
v -0.013800 -0.016794 -0.016047
v -0.007874 -0.016794 -0.009642
v -0.018059 -0.021799 -0.008073
v -0.015251 -0.021799 -0.005038
v -0.026395 -0.023500 -0.000892
v -0.014223 -0.021799 -0.000892
v -0.005705 -0.016794 -0.000892
v -0.007874 -0.016794 0.007857
v -0.015251 -0.021799 0.003254
v -0.018059 -0.021799 0.006289
v -0.026094 -0.021799 0.007400
v -0.013800 -0.016794 0.014262
v -0.040864 -0.034225 0.021852
v -0.049708 -0.031281 0.021047
v -0.052484 -0.037689 0.021205
v -0.061005 -0.037477 0.012487
v -0.054642 -0.042902 0.022037
v -0.063371 -0.042823 0.013540
v -0.058510 -0.031026 0.012410
v -0.066290 -0.039909 0.002690
v -0.068848 -0.045553 0.003955
v -0.007874 0.015588 -0.009642
v -0.014778 0.020694 -0.005333
v -0.005705 0.015588 -0.000892
v -0.013677 0.020694 -0.000892
v -0.013800 0.015588 0.014262
v -0.007874 0.015588 0.007857
v -0.017786 0.020694 0.006800
v -0.014778 0.020694 0.003549
v -0.032954 0.005323 0.019809
v -0.029991 0.015588 0.014262
v -0.041049 0.005323 0.011060
v -0.035917 0.015588 0.007857
v -0.044603 0.005323 -0.000892
v -0.038086 0.015588 -0.000892
v -0.030113 0.020694 -0.000892
v -0.023478 -0.006529 -0.024796
v -0.034913 -0.048594 -0.018559
v -0.030978 -0.048426 -0.008206
v -0.030592 -0.045969 0.002667
v -0.033542 -0.040551 0.014987
v -0.029012 0.020694 0.003549
v -0.026004 0.020694 0.006800
v -0.050536 -0.007553 0.000182
v -0.028216 -0.000603 0.022667
v -0.021895 0.005323 0.023012
v -0.021895 0.015588 0.016607
v -0.021895 0.020694 0.007990
v -0.026094 -0.021799 -0.009184
v -0.030809 -0.032632 0.014898
vt 0.718201 0.650974
vt 0.719082 0.656572
vt 0.715054 0.651724
vt 0.712986 0.653773
vt 0.712552 0.656572
vt 0.725613 0.656572
vt 0.724297 0.653773
vt 0.721584 0.651724
vt 0.719964 0.662169
vt 0.723111 0.661419
vt 0.725179 0.659370
vt 0.713868 0.659370
vt 0.716581 0.661419
vt 0.716105 0.663398
vt 0.718895 0.666165
vt 0.719362 0.664120
vt 0.722105 0.665376
vt 0.721639 0.667317
vt 0.723529 0.667116
vt 0.723120 0.668743
vt 0.713195 0.663401
vt 0.715688 0.665387
vt 0.715058 0.667865
vt 0.718089 0.668804
vt 0.717104 0.671797
vt 0.720790 0.669846
vt 0.719924 0.672673
vt 0.721373 0.673781
vt 0.712848 0.665152
vt 0.711114 0.665805
vt 0.712406 0.667123
vt 0.710835 0.667438
vt 0.710795 0.667105
vt 0.710549 0.668533
vt 0.712046 0.669188
vt 0.711661 0.670699
vt 0.714991 0.670422
vt 0.714458 0.672279
vt 0.715137 0.669556
vt 0.712214 0.668195
vt 0.712986 0.653773
vt 0.713327 0.661632
vt 0.715054 0.651724
vt 0.718201 0.650974
vt 0.716359 0.661543
vt 0.721584 0.651724
vt 0.719743 0.662293
vt 0.724297 0.653773
vt 0.722571 0.663681
vt 0.725613 0.656572
vt 0.723939 0.665860
vt 0.725179 0.659370
vt 0.723579 0.667933
vt 0.723111 0.661419
vt 0.721604 0.669479
vt 0.718595 0.669796
vt 0.711420 0.663085
vt 0.711107 0.665117
vt 0.712552 0.656572
vt 0.713868 0.659370
vt 0.716581 0.661419
vt 0.712382 0.667573
vt 0.710951 0.665925
vt 0.711383 0.664269
vt 0.723250 0.668870
vt 0.721355 0.670169
vt 0.718404 0.670312
vt 0.715283 0.669062
vt 0.714174 0.670665
vt 0.715079 0.677779
vt 0.717853 0.678363
vt 0.719257 0.679102
vt 0.721177 0.674890
vt 0.719015 0.679840
vt 0.717567 0.680424
vt 0.715639 0.685083
vt 0.714730 0.680359
vt 0.712879 0.685050
vt 0.712253 0.678845
vt 0.710856 0.683154
vt 0.708458 0.681238
vt 0.707890 0.685185
vt 0.703703 0.685185
vt 0.703703 0.689742
vt 0.701021 0.685185
vt 0.701021 0.689742
vt 0.700039 0.685185
vt 0.700039 0.689742
vt 0.701021 0.685185
vt 0.701021 0.689742
vt 0.703703 0.685185
vt 0.703703 0.689742
vt 0.707366 0.689742
vt 0.704684 0.693689
vt 0.707366 0.693689
vt 0.706005 0.695652
vt 0.707366 0.695652
vt 0.707366 0.696267
vt 0.708727 0.695652
vt 0.709724 0.695652
vt 0.710048 0.693689
vt 0.712011 0.693689
vt 0.711029 0.689742
vt 0.713711 0.689742
vt 0.715782 0.684052
vt 0.716745 0.684422
vt 0.719964 0.662169
vt 0.722258 0.671079
vt 0.712603 0.676265
vt 0.713054 0.683760
vt 0.711031 0.681864
vt 0.709460 0.687463
vt 0.710758 0.672832
vt 0.709836 0.672488
vt 0.708757 0.679313
vt 0.708856 0.678659
vt 0.709783 0.672900
vt 0.708757 0.679313
vt 0.708458 0.681238
vt 0.704684 0.681238
vt 0.702721 0.681238
vt 0.706095 0.679313
vt 0.705165 0.679313
vt 0.708856 0.678659
vt 0.704824 0.679313
vt 0.702002 0.681238
vt 0.702721 0.681238
vt 0.705165 0.679313
vt 0.706095 0.679313
vt 0.708757 0.679313
vt 0.704684 0.681238
vt 0.713650 0.674536
vt 0.717499 0.673204
vt 0.716580 0.675668
vt 0.720322 0.673285
vt 0.718214 0.671199
vt 0.721106 0.671230
vt 0.719496 0.675766
vt 0.722073 0.672350
vt 0.722920 0.670180
vt 0.702721 0.693689
vt 0.705008 0.695652
vt 0.702002 0.693689
vt 0.704643 0.695652
vt 0.704684 0.693689
vt 0.702721 0.693689
vt 0.706005 0.695652
vt 0.705008 0.695652
vt 0.711029 0.689742
vt 0.713711 0.689742
vt 0.710048 0.693689
vt 0.712011 0.693689
vt 0.714889 0.689742
vt 0.712730 0.693689
vt 0.710088 0.695652
vt 0.707890 0.685185
vt 0.711678 0.669011
vt 0.710375 0.669075
vt 0.710247 0.670020
vt 0.711224 0.672103
vt 0.709724 0.695652
vt 0.708727 0.695652
vt 0.716854 0.684791
vt 0.709460 0.687463
vt 0.707366 0.689742
vt 0.707366 0.693689
vt 0.707366 0.695652
vt 0.708757 0.679313
vt 0.710319 0.675148
vn 0.1393 0.6891 -0.7111
vn -0.1645 0.6383 0.7520
vn 0.3600 0.2387 0.9019
vn 0.3803 0.5121 0.7701
vn 0.7933 0.2303 0.5635
vn 0.7598 -0.0072 0.6500
vn 0.9648 -0.1092 0.2392
vn 0.9344 -0.2210 0.2792
vn -0.6426 0.5579 0.5250
vn -0.2058 0.4321 0.8780
vn -0.2472 0.1997 0.9481
vn 0.3264 -0.0363 0.9445
vn 0.3220 -0.1329 0.9373
vn 0.7127 -0.2371 0.6601
vn 0.7110 -0.3132 0.6295
vn 0.8867 -0.3783 0.2656
vn -0.6702 0.4571 0.5846
vn -0.9238 0.3137 0.2196
vn -0.7131 0.3344 0.6161
vn -0.9369 0.2764 0.2141
vn -0.9851 0.1175 -0.1252
vn -0.9716 0.1958 -0.1325
vn -0.7937 0.0699 -0.6042
vn -0.7731 0.1802 -0.6082
vn -0.2898 -0.0796 -0.9538
vn -0.2510 0.0547 -0.9664
vn -0.3733 -0.3392 -0.8635
vn -0.8322 -0.0915 -0.5468
vn -0.9172 0.3603 0.1696
vn -0.6409 0.5861 0.4956
vn -0.6053 0.6327 0.4830
vn -0.1330 0.7352 0.6647
vn -0.1544 0.7043 0.6929
vn 0.3790 0.6397 0.6686
vn 0.3867 0.6009 0.6995
vn 0.7870 0.3680 0.4950
vn 0.8017 0.3099 0.5111
vn 0.9817 -0.0026 0.1901
vn 0.9763 -0.0717 0.2040
vn 0.9157 -0.3649 -0.1680
vn 0.8969 -0.4202 -0.1375
vn 0.6222 -0.6060 -0.4956
vn 0.6320 -0.6499 -0.4221
vn 0.2026 -0.6953 -0.6896
vn -0.9298 0.3143 0.1915
vn -0.9863 0.0083 -0.1649
vn -0.9818 -0.0014 -0.1897
vn -0.7888 -0.3341 -0.5158
vn -0.3726 -0.5825 -0.7224
vn -0.8127 -0.2606 -0.5210
vn -0.9911 0.0540 -0.1217
vn -0.9233 0.3160 0.2181
vn 0.9036 -0.4116 -0.1184
vn 0.6833 -0.5770 -0.4475
vn 0.2795 -0.5189 -0.8078
vn -0.3702 -0.5610 -0.7404
vn -0.2622 0.1130 0.9583
vn 0.3727 -0.2000 0.9062
vn 0.7124 -0.3632 0.6005
vn 0.8582 -0.4409 0.2626
vn 0.9018 -0.4082 -0.1416
vn 0.8799 -0.4597 -0.1201
vn 0.7804 -0.3914 -0.4875
vn 0.7912 -0.3996 -0.4629
vn 0.4364 -0.2144 -0.8738
vn 0.4740 -0.2498 -0.8443
vn -0.2022 0.1040 -0.9738
vn -0.0327 0.1010 -0.9943
vn -0.4340 0.5493 -0.7140
vn -0.1430 0.2338 -0.9617
vn -0.4879 0.2636 -0.8321
vn -0.5019 -0.2554 -0.8263
vn -0.8506 0.2528 -0.4611
vn -0.8506 -0.2528 -0.4611
vn -0.9684 0.2494 0.0000
vn -0.9684 -0.2494 0.0000
vn -0.8506 0.2528 0.4611
vn -0.8506 -0.2528 0.4611
vn -0.4953 0.2633 0.8278
vn -0.5055 -0.2597 0.8228
vn -0.0306 -0.2853 0.9579
vn -0.3818 -0.6891 0.6159
vn 0.0000 -0.6947 0.7193
vn -0.2029 -0.9243 0.3232
vn 0.0000 -0.9265 0.3764
vn 0.0000 -1.0000 0.0000
vn 0.2029 -0.9243 0.3232
vn 0.3458 -0.9202 0.1836
vn 0.3818 -0.6891 0.6159
vn 0.6472 -0.6782 0.3480
vn 0.4612 -0.3790 0.8022
vn 0.7647 -0.4559 0.4553
vn 0.7571 -0.3687 0.5392
vn 0.8683 -0.4290 0.2491
vn 0.1448 -0.6794 -0.7194
vn 0.8904 -0.3521 0.2886
vn -0.2434 0.0560 0.9683
vn 0.4419 -0.2247 0.8684
vn -0.1196 0.0893 0.9888
vn 0.2233 -0.1061 0.9689
vn -0.8063 0.2186 0.5495
vn -0.9696 0.1935 0.1495
vn -0.9682 0.2380 0.0771
vn -0.9832 0.1822 -0.0011
vn -0.9782 0.1911 -0.0805
vn -0.9829 0.1838 -0.0031
vn -0.4727 0.5578 0.6821
vn -0.3564 0.7020 0.6165
vn -0.6373 0.6903 0.3425
vn -0.1734 0.9348 0.3100
vn -0.3132 0.9354 0.1642
vn -0.0740 0.9973 0.0000
vn -0.3551 0.9348 0.0000
vn -0.7283 0.6853 0.0000
vn -0.6373 0.6903 -0.3425
vn -0.3132 0.9354 -0.1642
vn -0.1693 0.9330 -0.3175
vn -0.0579 0.9340 -0.3524
vn -0.3492 0.7005 -0.6224
vn -0.2410 0.1096 -0.9643
vn 0.3846 -0.2366 -0.8922
vn 0.4033 -0.1959 -0.8939
vn 0.7697 -0.3704 -0.5199
vn 0.3626 -0.2915 -0.8851
vn 0.7472 -0.4397 -0.4982
vn 0.7745 -0.3524 -0.5253
vn 0.9037 -0.4070 -0.1328
vn 0.9118 -0.3906 -0.1267
vn -0.6472 -0.6782 0.3480
vn -0.3458 -0.9202 0.1836
vn -0.7397 -0.6729 0.0000
vn -0.3963 -0.9181 0.0000
vn -0.3818 -0.6891 -0.6159
vn -0.6472 -0.6782 -0.3480
vn -0.2029 -0.9243 -0.3232
vn -0.3458 -0.9202 -0.1836
vn 0.4626 -0.3844 -0.7988
vn 0.7688 -0.4471 -0.4571
vn 0.3818 -0.6891 -0.6159
vn 0.6406 -0.6824 -0.3520
vn 0.8742 -0.4855 -0.0034
vn 0.7280 -0.6855 0.0065
vn 0.3963 -0.9181 0.0000
vn -0.1459 0.2098 0.9668
vn -0.7584 0.2903 0.5835
vn -0.9512 0.2582 0.1688
vn -0.9628 0.2204 -0.1563
vn -0.7902 0.2282 -0.5688
vn 0.3458 -0.9202 -0.1836
vn 0.2029 -0.9243 -0.3232
vn 0.8947 -0.4397 -0.0778
vn 0.2200 -0.1075 -0.9695
vn -0.0389 -0.2826 -0.9584
vn 0.0000 -0.6947 -0.7193
vn 0.0000 -0.9265 -0.3764
vn -0.0477 0.9372 0.3454
vn -0.7970 0.2850 -0.5324
usemtl body
s 1
f 1/1/1 2/2/1 3/3/1
f 3/3/1 2/2/1 4/4/1
f 2/2/1 5/5/1 4/4/1
f 6/6/1 2/2/1 7/7/1
f 7/7/1 2/2/1 8/8/1
f 2/2/1 1/1/1 8/8/1
f 9/9/1 2/2/1 10/10/1
f 10/10/1 2/2/1 11/11/1
f 2/2/1 6/6/1 11/11/1
f 5/5/1 2/2/1 12/12/1
f 12/12/1 2/2/1 13/13/1
f 2/2/1 9/9/1 13/13/1
f 14/14/2 16/15/3 15/16/4
f 15/16/4 16/15/3 17/17/5
f 16/15/3 18/18/6 17/17/5
f 17/17/5 18/18/6 19/19/7
f 18/18/6 20/20/8 19/19/7
f 21/21/9 22/22/10 14/14/2
f 14/14/2 22/22/10 16/15/3
f 22/22/10 23/23/11 16/15/3
f 16/15/3 23/23/11 24/24/12
f 23/23/11 25/25/13 24/24/12
f 24/24/12 25/25/13 26/26/14
f 25/25/13 27/27/15 26/26/14
f 26/26/14 27/27/15 28/28/16
f 29/29/17 31/30/18 30/31/19
f 30/31/19 31/30/18 32/32/20
f 31/30/18 33/33/21 32/32/20
f 32/32/20 33/33/21 34/34/22
f 33/33/21 35/35/23 34/34/22
f 34/34/22 35/35/23 36/36/24
f 35/35/23 37/37/25 36/36/24
f 36/36/24 37/37/25 38/38/26
f 37/37/25 35/35/23 39/39/27
f 39/39/27 35/35/23 40/40/28
f 35/35/23 33/33/21 40/40/28
f 41/41/29 43/42/30 42/43/31
f 42/43/31 43/42/30 44/44/32
f 43/42/30 45/45/33 44/44/32
f 44/44/32 45/45/33 46/46/34
f 45/45/33 47/47/35 46/46/34
f 46/46/34 47/47/35 48/48/36
f 47/47/35 49/49/37 48/48/36
f 48/48/36 49/49/37 50/50/38
f 49/49/37 51/51/39 50/50/38
f 50/50/38 51/51/39 52/52/40
f 51/51/39 53/53/41 52/52/40
f 52/52/40 53/53/41 54/54/42
f 53/53/41 55/55/43 54/54/42
f 54/54/42 55/55/43 56/56/44
f 43/42/30 41/41/29 57/57/45
f 57/57/45 41/41/29 58/58/46
f 41/41/29 59/59/47 58/58/46
f 58/58/46 59/59/47 60/60/48
f 61/61/49 62/62/50 60/60/48
f 60/60/48 62/62/50 58/58/46
f 62/62/50 63/63/51 58/58/46
f 58/58/46 63/63/51 57/57/45
f 63/63/51 64/64/52 57/57/45
f 57/57/45 64/64/52 43/42/30
f 64/64/52 21/21/9 43/42/30
f 43/42/30 21/21/9 45/45/33
f 21/21/9 14/14/2 45/45/33
f 45/45/33 14/14/2 47/47/35
f 14/14/2 15/16/4 47/47/35
f 47/47/35 15/16/4 49/49/37
f 15/16/4 17/17/5 49/49/37
f 49/49/37 17/17/5 51/51/39
f 17/17/5 19/19/7 51/51/39
f 51/51/39 19/19/7 53/53/41
f 19/19/7 65/65/53 53/53/41
f 53/53/41 65/65/53 55/55/43
f 65/65/53 66/66/54 55/55/43
f 55/55/43 66/66/54 56/56/44
f 66/66/54 67/67/55 56/56/44
f 56/56/44 67/67/55 68/68/56
f 67/67/55 39/39/27 68/68/56
f 68/68/56 39/39/27 62/62/50
f 39/39/27 40/40/28 62/62/50
f 62/62/50 40/40/28 63/63/51
f 40/40/28 33/33/21 63/63/51
f 63/63/51 33/33/21 64/64/52
f 33/33/21 31/30/18 64/64/52
f 64/64/52 31/30/18 21/21/9
f 31/30/18 29/29/17 21/21/9
f 21/21/9 29/29/17 22/22/10
f 29/29/17 30/31/19 22/22/10
f 22/22/10 30/31/19 23/23/11
f 30/31/19 69/69/57 23/23/11
f 23/23/11 69/69/57 25/25/13
f 69/69/57 70/70/58 25/25/13
f 25/25/13 70/70/58 27/27/15
f 70/70/58 71/71/59 27/27/15
f 27/27/15 71/71/59 28/28/16
f 71/71/59 72/72/60 28/28/16
f 28/28/16 72/72/60 73/73/61
f 72/72/60 74/74/62 73/73/61
f 73/73/61 74/74/62 75/75/63
f 74/74/62 76/76/64 75/75/63
f 75/75/63 76/76/64 77/77/65
f 76/76/64 78/78/66 77/77/65
f 77/77/65 78/78/66 79/79/67
f 78/78/66 80/80/68 79/79/67
f 79/79/67 80/80/68 81/81/69
f 80/80/68 82/82/70 81/81/69
f 81/81/69 82/82/70 83/83/71
f 82/82/70 84/84/72 83/83/71
f 83/83/71 84/84/72 85/85/73
f 84/84/72 86/86/74 85/85/73
f 85/85/73 86/86/74 87/87/75
f 86/86/74 88/88/76 87/87/75
f 87/87/75 88/88/76 89/89/77
f 88/88/76 90/90/78 89/89/77
f 89/89/77 90/90/78 91/91/79
f 90/90/78 92/92/80 91/91/79
f 91/91/79 92/92/80 93/93/81
f 92/92/80 94/94/82 93/93/81
f 93/93/81 94/94/82 95/95/83
f 94/94/82 96/96/84 95/95/83
f 95/95/83 96/96/84 97/97/85
f 96/96/84 98/98/86 97/97/85
f 97/97/85 98/98/86 99/99/87
f 98/98/86 100/100/88 99/99/87
f 99/99/87 100/100/88 101/101/89
f 100/100/88 102/102/90 101/101/89
f 101/101/89 102/102/90 103/103/91
f 102/102/90 104/104/92 103/103/91
f 103/103/91 104/104/92 105/105/93
f 104/104/92 106/106/94 105/105/93
f 105/105/93 106/106/94 71/71/59
f 106/106/94 72/72/60 71/71/59
f 62/62/50 61/61/49 68/68/56
f 68/68/56 61/61/49 56/56/44
f 61/61/49 107/107/95 56/56/44
f 56/56/44 107/107/95 54/54/42
f 18/18/6 16/15/3 26/26/14
f 26/26/14 16/15/3 24/24/12
f 18/18/6 26/26/14 20/20/8
f 20/20/8 26/26/14 108/108/96
f 26/26/14 28/28/16 108/108/96
f 108/108/96 28/28/16 73/73/61
f 69/69/57 109/109/97 70/70/58
f 70/70/58 109/109/97 110/110/98
f 109/109/97 111/111/99 110/110/98
f 110/110/98 111/111/99 103/103/91
f 111/111/99 112/112/100 103/103/91
f 113/113/101 115/114/102 114/115/103
f 114/115/103 115/114/102 116/116/104
f 115/114/102 117/117/105 116/116/104
f 116/116/104 117/117/105 118/118/106
f 117/117/105 81/81/69 118/118/106
f 119/119/107 113/113/101 114/115/103
f 91/91/79 120/120/108 89/89/77
f 89/89/77 120/120/108 121/121/109
f 120/120/108 122/122/110 121/121/109
f 121/121/109 122/122/110 123/123/111
f 122/122/110 124/124/112 123/123/111
f 123/123/111 124/124/112 125/125/113
f 89/89/77 121/121/109 87/87/75
f 87/87/75 121/121/109 126/126/114
f 121/121/109 123/123/111 126/126/114
f 126/126/114 123/123/111 125/125/113
f 87/87/75 126/126/114 85/85/73
f 85/85/73 126/126/114 127/127/115
f 126/126/114 125/125/113 127/127/115
f 127/127/115 125/125/113 128/128/116
f 125/125/113 124/124/112 128/128/116
f 128/128/116 124/124/112 129/129/117
f 124/124/112 130/130/118 129/129/117
f 129/129/117 130/130/118 131/131/119
f 130/130/118 81/81/69 131/131/119
f 131/131/119 81/81/69 83/83/71
f 85/85/73 127/127/115 83/83/71
f 83/83/71 127/127/115 131/131/119
f 127/127/115 128/128/116 131/131/119
f 131/131/119 128/128/116 129/129/117
f 132/132/120 134/133/121 133/134/122
f 133/134/122 134/133/121 135/135/123
f 134/133/121 136/136/124 135/135/123
f 135/135/123 136/136/124 137/137/125
f 136/136/124 67/67/55 137/137/125
f 137/137/125 67/67/55 66/66/54
f 133/134/122 135/135/123 138/138/126
f 138/138/126 135/135/123 139/139/127
f 135/135/123 137/137/125 139/139/127
f 139/139/127 137/137/125 140/140/128
f 137/137/125 66/66/54 140/140/128
f 140/140/128 66/66/54 65/65/53
f 70/70/58 110/110/98 71/71/59
f 71/71/59 110/110/98 105/105/93
f 110/110/98 103/103/91 105/105/93
f 90/90/78 141/141/129 92/92/80
f 92/92/80 141/141/129 94/94/82
f 141/141/129 142/142/130 94/94/82
f 94/94/82 142/142/130 96/96/84
f 88/88/76 143/143/131 90/90/78
f 90/90/78 143/143/131 141/141/129
f 143/143/131 144/144/132 141/141/129
f 141/141/129 144/144/132 142/142/130
f 144/144/132 98/98/86 142/142/130
f 142/142/130 98/98/86 96/96/84
f 84/84/72 145/145/133 86/86/74
f 86/86/74 145/145/133 146/146/134
f 145/145/133 147/147/135 146/146/134
f 146/146/134 147/147/135 148/148/136
f 149/149/137 151/150/138 150/151/139
f 150/151/139 151/150/138 152/152/140
f 151/150/138 153/153/141 152/152/140
f 104/104/92 102/102/90 154/154/142
f 154/154/142 102/102/90 155/155/143
f 102/102/90 100/100/88 155/155/143
f 155/155/143 100/100/88 98/98/86
f 99/99/87 101/101/89 97/97/85
f 97/97/85 101/101/89 95/95/83
f 101/101/89 103/103/91 95/95/83
f 95/95/83 103/103/91 93/93/81
f 103/103/91 112/112/100 93/93/81
f 93/93/81 112/112/100 156/156/144
f 112/112/100 111/111/99 156/156/144
f 156/156/144 111/111/99 119/119/107
f 111/111/99 109/109/97 119/119/107
f 119/119/107 109/109/97 113/113/101
f 109/109/97 69/69/57 113/113/101
f 113/113/101 69/69/57 157/157/145
f 69/69/57 30/31/19 157/157/145
f 157/157/145 30/31/19 158/158/146
f 30/31/19 32/32/20 158/158/146
f 158/158/146 32/32/20 159/159/147
f 32/32/20 34/34/22 159/159/147
f 159/159/147 34/34/22 160/160/148
f 34/34/22 36/36/24 160/160/148
f 160/160/148 36/36/24 132/132/120
f 36/36/24 38/38/26 132/132/120
f 132/132/120 38/38/26 134/133/121
f 38/38/26 37/37/25 134/133/121
f 134/133/121 37/37/25 136/136/124
f 37/37/25 39/39/27 136/136/124
f 136/136/124 39/39/27 67/67/55
f 161/161/149 162/162/150 152/152/140
f 152/152/140 162/162/150 150/151/139
f 72/72/60 106/106/94 74/74/62
f 74/74/62 106/106/94 163/163/151
f 106/106/94 153/153/141 163/163/151
f 163/163/151 153/153/141 76/76/64
f 153/153/141 151/150/138 76/76/64
f 76/76/64 151/150/138 78/78/66
f 151/150/138 149/149/137 78/78/66
f 78/78/66 149/149/137 80/80/68
f 149/149/137 164/164/152 80/80/68
f 80/80/68 164/164/152 82/82/70
f 164/164/152 165/165/153 82/82/70
f 82/82/70 165/165/153 84/84/72
f 165/165/153 166/166/154 84/84/72
f 84/84/72 166/166/154 145/145/133
f 166/166/154 167/167/155 145/145/133
f 145/145/133 167/167/155 147/147/135
f 167/167/155 98/98/86 147/147/135
f 147/147/135 98/98/86 148/148/136
f 98/98/86 144/144/132 148/148/136
f 148/148/136 144/144/132 146/146/134
f 144/144/132 143/143/131 146/146/134
f 146/146/134 143/143/131 86/86/74
f 143/143/131 88/88/76 86/86/74
f 163/163/151 76/76/64 74/74/62
f 164/164/152 149/149/137 165/165/153
f 165/165/153 149/149/137 166/166/154
f 149/149/137 150/151/139 166/166/154
f 166/166/154 150/151/139 167/167/155
f 150/151/139 162/162/150 167/167/155
f 167/167/155 162/162/150 98/98/86
f 162/162/150 161/161/149 98/98/86
f 98/98/86 161/161/149 155/155/143
f 161/161/149 152/152/140 155/155/143
f 155/155/143 152/152/140 154/154/142
f 152/152/140 153/153/141 154/154/142
f 154/154/142 153/153/141 104/104/92
f 153/153/141 106/106/94 104/104/92
f 93/93/81 156/156/144 91/91/79
f 91/91/79 156/156/144 120/120/108
f 156/156/144 119/119/107 120/120/108
f 120/120/108 119/119/107 122/122/110
f 119/119/107 168/168/156 122/122/110
f 122/122/110 168/168/156 124/124/112
f 79/79/67 81/81/69 169/169/157
f 169/169/157 81/81/69 117/117/105
f 19/19/7 20/20/8 65/65/53
f 65/65/53 20/20/8 140/140/128
f 20/20/8 108/108/96 140/140/128
f 140/140/128 108/108/96 139/139/127
f 108/108/96 73/73/61 139/139/127
f 139/139/127 73/73/61 138/138/126
f 73/73/61 75/75/63 138/138/126
f 138/138/126 75/75/63 133/134/122
f 75/75/63 77/77/65 133/134/122
f 133/134/122 77/77/65 132/132/120
f 77/77/65 79/79/67 132/132/120
f 132/132/120 79/79/67 160/160/148
f 79/79/67 169/169/157 160/160/148
f 160/160/148 169/169/157 159/159/147
f 169/169/157 117/117/105 159/159/147
f 159/159/147 117/117/105 158/158/146
f 117/117/105 115/114/102 158/158/146
f 158/158/146 115/114/102 157/157/145
f 115/114/102 113/113/101 157/157/145
