# Blender v2.83.19 Release Candidate OBJ File: 'untitled.blend'
# www.blender.org
mtllib mug.mtl
o Mesh_0034_Mesh_0034Mesh
v 0.805091 0.339781 -0.811241
v 0.806353 0.344256 -0.821944
v 0.812269 0.336244 -0.810394
v 0.817119 0.339798 -0.820674
v 0.807615 0.339781 -0.832647
v 0.814794 0.336244 -0.831800
v 0.808138 0.329015 -0.837080
v 0.804568 0.329015 -0.806808
v 0.759162 0.329015 -0.812163
v 0.794334 0.318297 -0.812510
v 0.759685 0.318238 -0.816596
v 0.791217 0.313775 -0.823729
v 0.760948 0.313775 -0.827299
v 0.796859 0.318297 -0.833915
v 0.762210 0.318238 -0.838002
v 0.762733 0.329015 -0.842435
v 0.762210 0.339792 -0.838002
v 0.760948 0.344256 -0.827299
v 0.759685 0.339792 -0.816596
v 0.808138 0.275675 -0.837080
v 0.796912 0.275675 -0.833909
v 0.791217 0.313775 -0.823729
v 0.791217 0.275675 -0.823729
v 0.794388 0.275675 -0.812503
v 0.804568 0.275675 -0.806808
v 0.815781 0.329015 -0.809980
v 0.815793 0.275675 -0.809979
v 0.821488 0.329015 -0.820159
v 0.821489 0.275675 -0.820159
v 0.818307 0.329015 -0.831386
v 0.818318 0.275675 -0.831384
v 0.815793 0.275675 -0.809979
v 0.804568 0.275675 -0.806808
v 0.821489 0.275675 -0.820159
v 0.794388 0.275675 -0.812503
v 0.818318 0.275675 -0.831384
v 0.791217 0.275675 -0.823729
v 0.808138 0.275675 -0.837080
v 0.796912 0.275675 -0.833909
v 0.734268 0.275675 -0.861316
v 0.735140 0.275675 -0.868707
v 0.754746 0.275675 -0.849859
v 0.760588 0.275675 -0.854469
v 0.761124 0.275675 -0.827278
v 0.768515 0.275675 -0.826406
v 0.749667 0.275675 -0.806801
v 0.754277 0.275675 -0.800958
v 0.727086 0.275675 -0.800422
v 0.726215 0.275675 -0.793031
v 0.706609 0.275675 -0.811879
v 0.700766 0.275675 -0.807269
v 0.700230 0.275675 -0.834460
v 0.692840 0.275675 -0.835331
v 0.711687 0.275675 -0.854937
v 0.707077 0.275675 -0.860780
v 0.692840 0.344255 -0.835331
v 0.700407 0.344255 -0.834439
v 0.707077 0.344255 -0.860780
v 0.711787 0.344255 -0.854811
v 0.735140 0.344255 -0.868707
v 0.734247 0.344255 -0.861139
v 0.760588 0.344255 -0.854469
v 0.754619 0.344255 -0.849759
v 0.768515 0.344255 -0.826406
v 0.760948 0.344255 -0.827299
v 0.754277 0.344255 -0.800958
v 0.749557 0.344255 -0.806940
v 0.726215 0.344255 -0.793031
v 0.727107 0.344255 -0.800599
v 0.700766 0.344255 -0.807269
v 0.706749 0.344255 -0.811989
v 0.735140 0.344255 -0.868707
v 0.735140 0.275675 -0.868707
v 0.707077 0.344255 -0.860780
v 0.707077 0.275675 -0.860780
v 0.692840 0.344255 -0.835331
v 0.692840 0.275675 -0.835331
v 0.700766 0.344255 -0.807269
v 0.700766 0.275675 -0.807269
v 0.726215 0.344255 -0.793031
v 0.726215 0.275675 -0.793031
v 0.754277 0.344255 -0.800958
v 0.754277 0.275675 -0.800958
v 0.768515 0.344255 -0.826406
v 0.768515 0.275675 -0.826406
v 0.760588 0.344255 -0.854469
v 0.760588 0.275675 -0.854469
v 0.761124 0.275675 -0.827278
v 0.761124 0.252815 -0.827278
v 0.754746 0.275675 -0.849859
v 0.754746 0.252815 -0.849859
v 0.734268 0.275675 -0.861316
v 0.734268 0.252815 -0.861316
v 0.711687 0.275675 -0.854937
v 0.711687 0.252815 -0.854937
v 0.700230 0.275675 -0.834460
v 0.700230 0.252815 -0.834460
v 0.706609 0.275675 -0.811879
v 0.706609 0.252815 -0.811879
v 0.727086 0.275675 -0.800422
v 0.727086 0.252815 -0.800422
v 0.749667 0.275675 -0.806801
v 0.749667 0.252815 -0.806801
v 0.749667 0.252815 -0.806801
v 0.727086 0.252815 -0.800422
v 0.761124 0.252815 -0.827278
v 0.706609 0.252815 -0.811879
v 0.754746 0.252815 -0.849859
v 0.700230 0.252815 -0.834460
v 0.734268 0.252815 -0.861316
v 0.711687 0.252815 -0.854937
v 0.727107 0.283295 -0.800599
v 0.749557 0.283295 -0.806940
v 0.706749 0.283295 -0.811989
v 0.760948 0.283295 -0.827299
v 0.700407 0.283295 -0.834439
v 0.754619 0.283295 -0.849759
v 0.711787 0.283295 -0.854811
v 0.734247 0.283295 -0.861139
v 0.727107 0.344255 -0.800599
v 0.727107 0.283295 -0.800599
v 0.706749 0.344255 -0.811989
v 0.706749 0.283295 -0.811989
v 0.700407 0.344255 -0.834439
v 0.700407 0.283295 -0.834439
v 0.711787 0.344255 -0.854811
v 0.711787 0.283295 -0.854811
v 0.734247 0.344255 -0.861139
v 0.734247 0.283295 -0.861139
v 0.754619 0.344255 -0.849759
v 0.754619 0.283295 -0.849759
v 0.760948 0.344255 -0.827299
v 0.760948 0.283295 -0.827299
v 0.749557 0.344255 -0.806940
v 0.749557 0.283295 -0.806940
vt 0.387202 0.289474
vt 0.416666 0.289474
vt 0.387202 0.306116
vt 0.416666 0.314432
vt 0.446131 0.289474
vt 0.446131 0.306116
vt 0.458336 0.289474
vt 0.374997 0.289474
vt 0.387202 0.264538
vt 0.374997 0.184211
vt 0.387202 0.184211
vt 0.416666 0.254385
vt 0.416666 0.184211
vt 0.446131 0.264538
vt 0.446131 0.184211
vt 0.458336 0.184211
vt 0.446131 0.184211
vt 0.416666 0.184211
vt 0.387202 0.184211
vt 0.458336 0.289474
vt 0.446131 0.264661
vt 0.416666 0.254385
vt 0.416666 0.254384
vt 0.387202 0.264661
vt 0.374997 0.289474
vt 0.387202 0.314258
vt 0.387202 0.314286
vt 0.416666 0.324563
vt 0.416666 0.324564
vt 0.446131 0.314260
vt 0.446131 0.314286
vt 0.387202 0.314286
vt 0.416666 0.324564
vt 0.374997 0.289474
vt 0.387202 0.264661
vt 0.446131 0.314286
vt 0.416666 0.254384
vt 0.458336 0.289474
vt 0.446131 0.264661
vt 0.500486 0.114035
vt 0.475936 0.163946
vt 0.520833 0.114035
vt 0.490323 0.176062
vt 0.416666 0.184620
vt 0.416666 0.201754
vt 0.357397 0.163946
vt 0.343010 0.176062
vt 0.332846 0.114035
vt 0.312500 0.114035
vt 0.357397 0.064124
vt 0.343010 0.052008
vt 0.416666 0.043450
vt 0.416666 0.026316
vt 0.475936 0.064124
vt 0.490323 0.052008
vt 0.416666 0.026316
vt 0.490323 0.052008
vt 0.416666 0.043860
vt 0.475624 0.064386
vt 0.520833 0.114035
vt 0.499999 0.114035
vt 0.490323 0.176062
vt 0.475624 0.163684
vt 0.416666 0.201754
vt 0.416666 0.184211
vt 0.343010 0.176062
vt 0.357741 0.163656
vt 0.312500 0.114035
vt 0.333333 0.114035
vt 0.343010 0.052008
vt 0.357741 0.064414
vt 0.520833 0.114035
vt 0.490323 0.052008
vt 0.520833 0.114035
vt 0.490323 0.052008
vt 0.416666 0.026316
vt 0.416666 0.026316
vt 0.343010 0.052008
vt 0.343010 0.052008
vt 0.312500 0.114035
vt 0.312500 0.114035
vt 0.343010 0.176062
vt 0.343010 0.176062
vt 0.416666 0.201754
vt 0.416666 0.201754
vt 0.490323 0.176062
vt 0.490323 0.176062
vt 0.416666 0.184620
vt 0.475936 0.163946
vt 0.416666 0.184620
vt 0.475936 0.163946
vt 0.500486 0.114035
vt 0.500486 0.114035
vt 0.475936 0.064124
vt 0.475936 0.064124
vt 0.416666 0.043450
vt 0.416666 0.043450
vt 0.357397 0.064124
vt 0.357397 0.064124
vt 0.332846 0.114035
vt 0.332846 0.114035
vt 0.357397 0.163946
vt 0.357397 0.163946
vt 0.357397 0.163946
vt 0.416666 0.184620
vt 0.332846 0.114035
vt 0.357397 0.064124
vt 0.475936 0.163946
vt 0.416666 0.043450
vt 0.500486 0.114035
vt 0.475936 0.064124
vt 0.333333 0.114035
vt 0.357741 0.064414
vt 0.357741 0.163656
vt 0.416666 0.184211
vt 0.416666 0.043860
vt 0.475624 0.163684
vt 0.475624 0.064386
vt 0.499999 0.114035
vt 0.333333 0.114035
vt 0.357741 0.064414
vt 0.333333 0.114035
vt 0.357741 0.064414
vt 0.416666 0.043860
vt 0.416666 0.043860
vt 0.475624 0.064386
vt 0.475624 0.064386
vt 0.499999 0.114035
vt 0.499999 0.114035
vt 0.475624 0.163684
vt 0.475624 0.163684
vt 0.416666 0.184211
vt 0.416666 0.184211
vt 0.357741 0.163656
vt 0.357741 0.163656
vn -0.0888 -0.7186 -0.6897
vn -0.1889 -0.9816 -0.0278
vn -0.4306 -0.5286 -0.7315
vn -0.7035 -0.7059 -0.0827
vn -0.2365 -0.7149 0.6579
vn -0.6038 -0.5138 0.6094
vn -0.2332 -0.1187 0.9651
vn -0.0022 -0.1186 -0.9929
vn 0.4364 0.3392 -0.8333
vn 0.1168 0.0002 -0.9931
vn 0.0823 0.7070 -0.7024
vn -0.0007 1.0000 0.0006
vn -0.0007 1.0000 0.0004
vn 0.2309 0.3397 0.9117
vn -0.0837 0.7074 0.7018
vn -0.1172 0.0000 0.9931
vn -0.0829 -0.7071 0.7022
vn -0.0001 -1.0000 -0.0001
vn 0.0826 -0.7071 -0.7022
vn -0.1173 0.0002 0.9931
vn 0.6195 0.0004 0.7849
vn 0.9930 0.0005 0.1176
vn 0.9931 0.0005 0.1175
vn 0.7848 0.0006 -0.6197
vn 0.1171 -0.0000 -0.9931
vn -0.6301 -0.1573 -0.7604
vn -0.6194 -0.0001 -0.7851
vn -0.9757 -0.1899 -0.1094
vn -0.9931 -0.0001 -0.1170
vn -0.7927 -0.1690 0.5857
vn -0.7851 -0.0001 0.6193
vn 0.0000 1.0000 0.0000
vn 0.0000 -1.0000 0.0000
vn -0.1171 0.0000 0.9931
vn 0.6194 0.0000 0.7851
vn 0.9931 0.0000 0.1171
vn 0.7851 0.0000 -0.6194
vn -0.6194 0.0000 -0.7851
vn -0.9931 0.0000 -0.1171
vn -0.7851 0.0000 0.6194
vn -0.9931 0.0000 -0.1168
vn 0.9931 0.0000 0.1174
usemtl mug
s 1
f 1/1/1 2/2/2 3/3/3
f 3/3/3 2/2/2 4/4/4
f 2/2/2 5/5/5 4/4/4
f 4/4/4 5/5/5 6/6/6
f 5/5/5 7/7/7 6/6/6
f 8/8/8 10/9/9 9/10/10
f 9/10/10 10/9/9 11/11/11
f 10/9/9 12/12/12 11/11/11
f 11/11/11 12/12/12 13/13/13
f 12/12/12 14/14/14 13/13/13
f 13/13/13 14/14/14 15/15/15
f 14/14/14 7/7/7 15/15/15
f 15/15/15 7/7/7 16/16/16
f 7/7/7 5/5/5 16/16/16
f 16/16/16 5/5/5 17/17/17
f 5/5/5 2/2/2 17/17/17
f 17/17/17 2/2/2 18/18/18
f 2/2/2 1/1/1 18/18/18
f 18/18/18 1/1/1 19/19/19
f 7/7/7 14/14/14 20/20/20
f 20/20/20 14/14/14 21/21/21
f 14/14/14 22/22/22 21/21/21
f 21/21/21 22/22/22 23/23/23
f 22/22/22 10/9/9 23/23/23
f 23/23/23 10/9/9 24/24/24
f 10/9/9 8/8/8 24/24/24
f 24/24/24 8/8/8 25/25/25
f 8/8/8 26/26/26 25/25/25
f 25/25/25 26/26/26 27/27/27
f 26/26/26 28/28/28 27/27/27
f 27/27/27 28/28/28 29/29/29
f 28/28/28 30/30/30 29/29/29
f 29/29/29 30/30/30 31/31/31
f 32/32/32 34/33/32 33/34/32
f 33/34/32 34/33/32 35/35/32
f 34/33/32 36/36/32 35/35/32
f 35/35/32 36/36/32 37/37/32
f 36/36/32 38/38/32 37/37/32
f 37/37/32 38/38/32 39/39/32
f 19/19/19 1/1/1 9/10/10
f 9/10/10 1/1/1 8/8/8
f 1/1/1 3/3/3 8/8/8
f 8/8/8 3/3/3 26/26/26
f 3/3/3 4/4/4 26/26/26
f 26/26/26 4/4/4 28/28/28
f 4/4/4 6/6/6 28/28/28
f 28/28/28 6/6/6 30/30/30
f 6/6/6 7/7/7 30/30/30
f 30/30/30 7/7/7 31/31/31
f 7/7/7 20/20/20 31/31/31
f 40/40/32 42/41/32 41/42/32
f 41/42/32 42/41/32 43/43/32
f 42/41/32 44/44/32 43/43/32
f 43/43/32 44/44/32 45/45/32
f 44/44/32 46/46/32 45/45/32
f 45/45/32 46/46/32 47/47/32
f 46/46/32 48/48/32 47/47/32
f 47/47/32 48/48/32 49/49/32
f 48/48/32 50/50/32 49/49/32
f 49/49/32 50/50/32 51/51/32
f 50/50/32 52/52/32 51/51/32
f 51/51/32 52/52/32 53/53/32
f 52/52/32 54/54/32 53/53/32
f 53/53/32 54/54/32 55/55/32
f 54/54/32 40/40/32 55/55/32
f 55/55/32 40/40/32 41/42/32
f 56/56/33 58/57/33 57/58/33
f 57/58/33 58/57/33 59/59/33
f 58/57/33 60/60/33 59/59/33
f 59/59/33 60/60/33 61/61/33
f 60/60/33 62/62/33 61/61/33
f 61/61/33 62/62/33 63/63/33
f 62/62/33 64/64/33 63/63/33
f 63/63/33 64/64/33 65/65/33
f 64/64/33 66/66/33 65/65/33
f 65/65/33 66/66/33 67/67/33
f 66/66/33 68/68/33 67/67/33
f 67/67/33 68/68/33 69/69/33
f 68/68/33 70/70/33 69/69/33
f 69/69/33 70/70/33 71/71/33
f 70/70/33 56/56/33 71/71/33
f 71/71/33 56/56/33 57/58/33
f 72/72/34 74/73/35 73/74/34
f 73/74/34 74/73/35 75/75/35
f 74/73/35 76/76/36 75/75/35
f 75/75/35 76/76/36 77/77/36
f 76/76/36 78/78/37 77/77/36
f 77/77/36 78/78/37 79/79/37
f 78/78/37 80/80/25 79/79/37
f 79/79/37 80/80/25 81/81/25
f 80/80/25 82/82/38 81/81/25
f 81/81/25 82/82/38 83/83/38
f 82/82/38 84/84/39 83/83/38
f 83/83/38 84/84/39 85/85/39
f 84/84/39 86/86/40 85/85/39
f 85/85/39 86/86/40 87/87/40
f 86/86/40 72/72/34 87/87/40
f 87/87/40 72/72/34 73/74/34
f 88/88/39 90/89/40 89/90/39
f 89/90/39 90/89/40 91/91/40
f 90/89/40 92/92/34 91/91/40
f 91/91/40 92/92/34 93/93/34
f 92/92/34 94/94/35 93/93/34
f 93/93/34 94/94/35 95/95/35
f 94/94/35 96/96/36 95/95/35
f 95/95/35 96/96/36 97/97/36
f 96/96/36 98/98/37 97/97/36
f 97/97/36 98/98/37 99/99/37
f 98/98/37 100/100/25 99/99/37
f 99/99/37 100/100/25 101/101/25
f 100/100/25 102/102/38 101/101/25
f 101/101/25 102/102/38 103/103/38
f 102/102/38 88/88/39 103/103/38
f 103/103/38 88/88/39 89/90/39
f 104/104/32 106/105/32 105/106/32
f 105/106/32 106/105/32 107/107/32
f 106/105/32 108/108/32 107/107/32
f 107/107/32 108/108/32 109/109/32
f 108/108/32 110/110/32 109/109/32
f 109/109/32 110/110/32 111/111/32
f 112/112/33 114/113/33 113/114/33
f 113/114/33 114/113/33 115/115/33
f 114/113/33 116/116/33 115/115/33
f 115/115/33 116/116/33 117/117/33
f 116/116/33 118/118/33 117/117/33
f 117/117/33 118/118/33 119/119/33
f 120/120/34 122/121/40 121/122/34
f 121/122/34 122/121/40 123/123/40
f 122/121/40 124/124/41 123/123/40
f 123/123/40 124/124/41 125/125/41
f 124/124/41 126/126/38 125/125/41
f 125/125/41 126/126/38 127/127/38
f 126/126/38 128/128/25 127/127/38
f 127/127/38 128/128/25 129/129/25
f 128/128/25 130/130/37 129/129/25
f 129/129/25 130/130/37 131/131/37
f 130/130/37 132/132/42 131/131/37
f 131/131/37 132/132/42 133/133/42
f 132/132/42 134/134/35 133/133/42
f 133/133/42 134/134/35 135/135/35
f 134/134/35 120/120/34 135/135/35
f 135/135/35 120/120/34 121/122/34
