# Blender v2.93.0 OBJ File: ''
# www.blender.org
mtllib mugRed.mtl
o Mesh_0034_Mesh_0034Mesh
v 0.055169 0.040494 0.017359
v 0.056431 0.044969 0.006656
v 0.062347 0.036957 0.018206
v 0.067197 0.040511 0.007926
v 0.057693 0.040494 -0.004047
v 0.064872 0.036957 -0.003200
v 0.058216 0.029728 -0.008480
v 0.054646 0.029728 0.021792
v 0.044412 0.019010 0.016090
v 0.009240 0.029728 0.016437
v 0.009763 0.018951 0.012004
v 0.041295 0.014488 0.004871
v 0.011026 0.014488 0.001301
v 0.046937 0.019010 -0.005315
v 0.012288 0.018951 -0.009402
v 0.012811 0.029728 -0.013835
v 0.012288 0.040505 -0.009402
v 0.011026 0.044969 0.001301
v 0.009763 0.040505 0.012004
v 0.058216 -0.023612 -0.008480
v 0.046990 -0.023612 -0.005309
v 0.041295 0.014488 0.004871
v 0.041295 -0.023612 0.004871
v 0.044466 -0.023612 0.016097
v 0.054646 -0.023612 0.021792
v 0.065859 0.029728 0.018620
v 0.065871 -0.023612 0.018621
v 0.071566 0.029728 0.008441
v 0.071567 -0.023612 0.008441
v 0.068385 0.029728 -0.002786
v 0.068396 -0.023612 -0.002784
v 0.065871 -0.023612 0.018621
v 0.071567 -0.023612 0.008441
v 0.054646 -0.023612 0.021792
v 0.044466 -0.023612 0.016097
v 0.068396 -0.023612 -0.002784
v 0.041295 -0.023612 0.004871
v 0.058216 -0.023612 -0.008480
v 0.046990 -0.023612 -0.005309
v -0.015654 -0.023612 -0.032716
v 0.004824 -0.023612 -0.021259
v -0.014782 -0.023612 -0.040107
v 0.010666 -0.023612 -0.025869
v 0.011202 -0.023612 0.001322
v 0.018593 -0.023612 0.002194
v -0.000255 -0.023612 0.021799
v 0.004355 -0.023612 0.027642
v -0.022836 -0.023612 0.028178
v -0.023707 -0.023612 0.035569
v -0.043313 -0.023612 0.016721
v -0.049156 -0.023612 0.021331
v -0.049692 -0.023612 -0.005860
v -0.057082 -0.023612 -0.006731
v -0.038235 -0.023612 -0.026337
v -0.042845 -0.023612 -0.032180
v -0.057082 0.044968 -0.006731
v -0.042845 0.044968 -0.032180
v -0.049515 0.044968 -0.005839
v -0.038135 0.044968 -0.026211
v -0.014782 0.044968 -0.040107
v -0.015675 0.044968 -0.032539
v 0.010666 0.044968 -0.025869
v 0.004697 0.044968 -0.021159
v 0.018593 0.044968 0.002194
v 0.011026 0.044968 0.001301
v 0.004355 0.044968 0.027642
v -0.000365 0.044968 0.021660
v -0.023707 0.044968 0.035569
v -0.022815 0.044968 0.028001
v -0.049156 0.044968 0.021331
v -0.043173 0.044968 0.016611
v -0.014782 0.044968 -0.040107
v -0.042845 0.044968 -0.032180
v -0.014782 -0.023612 -0.040107
v -0.042845 -0.023612 -0.032180
v -0.057082 0.044968 -0.006731
v -0.057082 -0.023612 -0.006731
v -0.049156 0.044968 0.021331
v -0.049156 -0.023612 0.021331
v -0.023707 0.044968 0.035569
v -0.023707 -0.023612 0.035569
v 0.004355 0.044968 0.027642
v 0.004355 -0.023612 0.027642
v 0.018593 0.044968 0.002194
v 0.018593 -0.023612 0.002194
v 0.010666 0.044968 -0.025869
v 0.010666 -0.023612 -0.025869
v 0.011202 -0.023612 0.001322
v 0.004824 -0.023612 -0.021259
v 0.011202 -0.046472 0.001322
v 0.004824 -0.046472 -0.021259
v -0.015654 -0.023612 -0.032716
v -0.015654 -0.046472 -0.032716
v -0.038235 -0.023612 -0.026337
v -0.038235 -0.046472 -0.026337
v -0.049692 -0.023612 -0.005860
v -0.049692 -0.046472 -0.005860
v -0.043313 -0.023612 0.016721
v -0.043313 -0.046472 0.016721
v -0.022836 -0.023612 0.028178
v -0.022836 -0.046472 0.028178
v -0.000255 -0.023612 0.021799
v -0.000255 -0.046472 0.021799
v -0.000255 -0.046472 0.021799
v 0.011202 -0.046472 0.001322
v -0.022836 -0.046472 0.028178
v -0.043313 -0.046472 0.016721
v 0.004824 -0.046472 -0.021259
v -0.049692 -0.046472 -0.005860
v -0.015654 -0.046472 -0.032716
v -0.038235 -0.046472 -0.026337
v -0.022815 -0.015992 0.028001
v -0.043173 -0.015992 0.016611
v -0.000365 -0.015992 0.021660
v 0.011026 -0.015992 0.001301
v -0.049515 -0.015992 -0.005839
v 0.004697 -0.015992 -0.021159
v -0.038135 -0.015992 -0.026211
v -0.015675 -0.015992 -0.032539
v -0.022815 0.044968 0.028001
v -0.043173 0.044968 0.016611
v -0.022815 -0.015992 0.028001
v -0.043173 -0.015992 0.016611
v -0.049515 0.044968 -0.005839
v -0.049515 -0.015992 -0.005839
v -0.038135 0.044968 -0.026211
v -0.038135 -0.015992 -0.026211
v -0.015675 0.044968 -0.032539
v -0.015675 -0.015992 -0.032539
v 0.004697 0.044968 -0.021159
v 0.004697 -0.015992 -0.021159
v 0.011026 0.044968 0.001301
v 0.011026 -0.015992 0.001301
v -0.000365 0.044968 0.021660
v -0.000365 -0.015992 0.021660
vt 0.387202 0.289474
vt 0.416666 0.289474
vt 0.387202 0.306116
vt 0.416666 0.314432
vt 0.446131 0.289474
vt 0.446131 0.306116
vt 0.458336 0.289474
vt 0.374997 0.289474
vt 0.387202 0.264538
vt 0.374997 0.184211
vt 0.387202 0.184211
vt 0.416666 0.254385
vt 0.416666 0.184211
vt 0.446131 0.264538
vt 0.446131 0.184211
vt 0.458336 0.184211
vt 0.446131 0.184211
vt 0.416666 0.184211
vt 0.387202 0.184211
vt 0.458336 0.289474
vt 0.446131 0.264661
vt 0.416666 0.254385
vt 0.416666 0.254384
vt 0.387202 0.264661
vt 0.374997 0.289474
vt 0.387202 0.314258
vt 0.387202 0.314286
vt 0.416666 0.324563
vt 0.416666 0.324564
vt 0.446131 0.314260
vt 0.446131 0.314286
vt 0.387202 0.314286
vt 0.416666 0.324564
vt 0.374997 0.289474
vt 0.387202 0.264661
vt 0.446131 0.314286
vt 0.416666 0.254384
vt 0.458336 0.289474
vt 0.446131 0.264661
vt 0.500486 0.114035
vt 0.475936 0.163946
vt 0.520833 0.114035
vt 0.490323 0.176062
vt 0.416666 0.184620
vt 0.416666 0.201754
vt 0.357397 0.163946
vt 0.343010 0.176062
vt 0.332846 0.114035
vt 0.312500 0.114035
vt 0.357397 0.064124
vt 0.343010 0.052008
vt 0.416666 0.043450
vt 0.416666 0.026316
vt 0.475936 0.064124
vt 0.490323 0.052008
vt 0.416666 0.026316
vt 0.490323 0.052008
vt 0.416666 0.043860
vt 0.475624 0.064386
vt 0.520833 0.114035
vt 0.499999 0.114035
vt 0.490323 0.176062
vt 0.475624 0.163684
vt 0.416666 0.201754
vt 0.416666 0.184211
vt 0.343010 0.176062
vt 0.357741 0.163656
vt 0.312500 0.114035
vt 0.333333 0.114035
vt 0.343010 0.052008
vt 0.357741 0.064414
vt 0.520833 0.114035
vt 0.490323 0.052008
vt 0.520833 0.114035
vt 0.490323 0.052008
vt 0.416666 0.026316
vt 0.416666 0.026316
vt 0.343010 0.052008
vt 0.343010 0.052008
vt 0.312500 0.114035
vt 0.312500 0.114035
vt 0.343010 0.176062
vt 0.343010 0.176062
vt 0.416666 0.201754
vt 0.416666 0.201754
vt 0.490323 0.176062
vt 0.490323 0.176062
vt 0.416666 0.184620
vt 0.475936 0.163946
vt 0.416666 0.184620
vt 0.475936 0.163946
vt 0.500486 0.114035
vt 0.500486 0.114035
vt 0.475936 0.064124
vt 0.475936 0.064124
vt 0.416666 0.043450
vt 0.416666 0.043450
vt 0.357397 0.064124
vt 0.357397 0.064124
vt 0.332846 0.114035
vt 0.332846 0.114035
vt 0.357397 0.163946
vt 0.357397 0.163946
vt 0.357397 0.163946
vt 0.416666 0.184620
vt 0.332846 0.114035
vt 0.357397 0.064124
vt 0.475936 0.163946
vt 0.416666 0.043450
vt 0.500486 0.114035
vt 0.475936 0.064124
vt 0.333333 0.114035
vt 0.357741 0.064414
vt 0.357741 0.163656
vt 0.416666 0.184211
vt 0.416666 0.043860
vt 0.475624 0.163684
vt 0.475624 0.064386
vt 0.499999 0.114035
vt 0.333333 0.114035
vt 0.357741 0.064414
vt 0.333333 0.114035
vt 0.357741 0.064414
vt 0.416666 0.043860
vt 0.416666 0.043860
vt 0.475624 0.064386
vt 0.475624 0.064386
vt 0.499999 0.114035
vt 0.499999 0.114035
vt 0.475624 0.163684
vt 0.475624 0.163684
vt 0.416666 0.184211
vt 0.416666 0.184211
vt 0.357741 0.163656
vt 0.357741 0.163656
vn -0.0888 -0.7187 -0.6897
vn -0.1889 -0.9816 -0.0277
vn -0.4306 -0.5286 -0.7316
vn -0.7035 -0.7059 -0.0827
vn -0.2365 -0.7149 0.6580
vn -0.6039 -0.5138 0.6094
vn -0.2332 -0.1187 0.9652
vn -0.0022 -0.1186 -0.9929
vn 0.4363 0.3393 -0.8334
vn 0.1168 0.0002 -0.9932
vn 0.0823 0.7070 -0.7024
vn -0.0008 1.0000 0.0006
vn -0.0007 1.0000 0.0004
vn 0.2309 0.3397 0.9117
vn -0.0837 0.7075 0.7018
vn -0.1172 -0.0000 0.9931
vn -0.0829 -0.7071 0.7023
vn -0.0001 -1.0000 -0.0001
vn 0.0826 -0.7071 -0.7022
vn -0.1173 0.0002 0.9931
vn 0.6195 0.0004 0.7850
vn 0.9931 0.0005 0.1177
vn 0.9931 0.0005 0.1175
vn 0.7848 0.0007 -0.6197
vn 0.1171 -0.0000 -0.9931
vn -0.6301 -0.1573 -0.7604
vn -0.6194 -0.0001 -0.7851
vn -0.9757 -0.1899 -0.1094
vn -0.9931 -0.0001 -0.1171
vn -0.7927 -0.1690 0.5857
vn -0.7851 -0.0001 0.6194
vn 0.0000 1.0000 0.0000
vn 0.0000 -1.0000 0.0000
vn -0.1171 -0.0000 0.9931
vn 0.6194 -0.0000 0.7851
vn 0.9931 -0.0000 0.1171
vn 0.7851 0.0000 -0.6194
vn -0.6194 0.0000 -0.7851
vn -0.9931 0.0000 -0.1171
vn -0.7851 -0.0000 0.6194
vn -0.9932 -0.0000 -0.1168
vn 0.9931 -0.0000 0.1175
usemtl MugRed
s 1
f 1/1/1 2/2/2 3/3/3
f 3/3/3 2/2/2 4/4/4
f 2/2/2 5/5/5 4/4/4
f 4/4/4 5/5/5 6/6/6
f 5/5/5 7/7/7 6/6/6
f 8/8/8 9/9/9 10/10/10
f 10/10/10 9/9/9 11/11/11
f 9/9/9 12/12/12 11/11/11
f 11/11/11 12/12/12 13/13/13
f 12/12/12 14/14/14 13/13/13
f 13/13/13 14/14/14 15/15/15
f 14/14/14 7/7/7 15/15/15
f 15/15/15 7/7/7 16/16/16
f 7/7/7 5/5/5 16/16/16
f 16/16/16 5/5/5 17/17/17
f 5/5/5 2/2/2 17/17/17
f 17/17/17 2/2/2 18/18/18
f 2/2/2 1/1/1 18/18/18
f 18/18/18 1/1/1 19/19/19
f 7/7/7 14/14/14 20/20/20
f 20/20/20 14/14/14 21/21/21
f 14/14/14 22/22/22 21/21/21
f 21/21/21 22/22/22 23/23/23
f 22/22/22 9/9/9 23/23/23
f 23/23/23 9/9/9 24/24/24
f 9/9/9 8/8/8 24/24/24
f 24/24/24 8/8/8 25/25/25
f 8/8/8 26/26/26 25/25/25
f 25/25/25 26/26/26 27/27/27
f 26/26/26 28/28/28 27/27/27
f 27/27/27 28/28/28 29/29/29
f 28/28/28 30/30/30 29/29/29
f 29/29/29 30/30/30 31/31/31
f 32/32/32 33/33/32 34/34/32
f 34/34/32 33/33/32 35/35/32
f 33/33/32 36/36/32 35/35/32
f 35/35/32 36/36/32 37/37/32
f 36/36/32 38/38/32 37/37/32
f 37/37/32 38/38/32 39/39/32
f 19/19/19 1/1/1 10/10/10
f 10/10/10 1/1/1 8/8/8
f 1/1/1 3/3/3 8/8/8
f 8/8/8 3/3/3 26/26/26
f 3/3/3 4/4/4 26/26/26
f 26/26/26 4/4/4 28/28/28
f 4/4/4 6/6/6 28/28/28
f 28/28/28 6/6/6 30/30/30
f 6/6/6 7/7/7 30/30/30
f 30/30/30 7/7/7 31/31/31
f 7/7/7 20/20/20 31/31/31
f 40/40/32 41/41/32 42/42/32
f 42/42/32 41/41/32 43/43/32
f 41/41/32 44/44/32 43/43/32
f 43/43/32 44/44/32 45/45/32
f 44/44/32 46/46/32 45/45/32
f 45/45/32 46/46/32 47/47/32
f 46/46/32 48/48/32 47/47/32
f 47/47/32 48/48/32 49/49/32
f 48/48/32 50/50/32 49/49/32
f 49/49/32 50/50/32 51/51/32
f 50/50/32 52/52/32 51/51/32
f 51/51/32 52/52/32 53/53/32
f 52/52/32 54/54/32 53/53/32
f 53/53/32 54/54/32 55/55/32
f 54/54/32 40/40/32 55/55/32
f 55/55/32 40/40/32 42/42/32
f 56/56/33 57/57/33 58/58/33
f 58/58/33 57/57/33 59/59/33
f 57/57/33 60/60/33 59/59/33
f 59/59/33 60/60/33 61/61/33
f 60/60/33 62/62/33 61/61/33
f 61/61/33 62/62/33 63/63/33
f 62/62/33 64/64/33 63/63/33
f 63/63/33 64/64/33 65/65/33
f 64/64/33 66/66/33 65/65/33
f 65/65/33 66/66/33 67/67/33
f 66/66/33 68/68/33 67/67/33
f 67/67/33 68/68/33 69/69/33
f 68/68/33 70/70/33 69/69/33
f 69/69/33 70/70/33 71/71/33
f 70/70/33 56/56/33 71/71/33
f 71/71/33 56/56/33 58/58/33
f 72/72/34 73/73/35 74/74/34
f 74/74/34 73/73/35 75/75/35
f 73/73/35 76/76/36 75/75/35
f 75/75/35 76/76/36 77/77/36
f 76/76/36 78/78/37 77/77/36
f 77/77/36 78/78/37 79/79/37
f 78/78/37 80/80/25 79/79/37
f 79/79/37 80/80/25 81/81/25
f 80/80/25 82/82/38 81/81/25
f 81/81/25 82/82/38 83/83/38
f 82/82/38 84/84/39 83/83/38
f 83/83/38 84/84/39 85/85/39
f 84/84/39 86/86/40 85/85/39
f 85/85/39 86/86/40 87/87/40
f 86/86/40 72/72/34 87/87/40
f 87/87/40 72/72/34 74/74/34
f 88/88/39 89/89/40 90/90/39
f 90/90/39 89/89/40 91/91/40
f 89/89/40 92/92/34 91/91/40
f 91/91/40 92/92/34 93/93/34
f 92/92/34 94/94/35 93/93/34
f 93/93/34 94/94/35 95/95/35
f 94/94/35 96/96/36 95/95/35
f 95/95/35 96/96/36 97/97/36
f 96/96/36 98/98/37 97/97/36
f 97/97/36 98/98/37 99/99/37
f 98/98/37 100/100/25 99/99/37
f 99/99/37 100/100/25 101/101/25
f 100/100/25 102/102/38 101/101/25
f 101/101/25 102/102/38 103/103/38
f 102/102/38 88/88/39 103/103/38
f 103/103/38 88/88/39 90/90/39
f 104/104/32 105/105/32 106/106/32
f 106/106/32 105/105/32 107/107/32
f 105/105/32 108/108/32 107/107/32
f 107/107/32 108/108/32 109/109/32
f 108/108/32 110/110/32 109/109/32
f 109/109/32 110/110/32 111/111/32
f 112/112/33 113/113/33 114/114/33
f 114/114/33 113/113/33 115/115/33
f 113/113/33 116/116/33 115/115/33
f 115/115/33 116/116/33 117/117/33
f 116/116/33 118/118/33 117/117/33
f 117/117/33 118/118/33 119/119/33
f 120/120/34 121/121/40 122/122/34
f 122/122/34 121/121/40 123/123/40
f 121/121/40 124/124/41 123/123/40
f 123/123/40 124/124/41 125/125/41
f 124/124/41 126/126/38 125/125/41
f 125/125/41 126/126/38 127/127/38
f 126/126/38 128/128/25 127/127/38
f 127/127/38 128/128/25 129/129/25
f 128/128/25 130/130/37 129/129/25
f 129/129/25 130/130/37 131/131/37
f 130/130/37 132/132/42 131/131/37
f 131/131/37 132/132/42 133/133/42
f 132/132/42 134/134/35 133/133/42
f 133/133/42 134/134/35 135/135/35
f 134/134/35 120/120/34 135/135/35
f 135/135/35 120/120/34 122/122/34
