# Blender v2.83.19 Release Candidate OBJ File: 'untitled.blend'
# www.blender.org
mtllib Cup.mtl
o Mesh_0035_Mesh_0035Mesh
v 0.032934 0.311588 -0.121104
v 0.022157 0.311588 -0.125567
v 0.032934 0.258248 -0.121104
v 0.022157 0.258248 -0.125567
v 0.011381 0.311588 -0.121104
v 0.011381 0.258248 -0.121104
v 0.006917 0.311588 -0.110327
v 0.006917 0.258248 -0.110327
v 0.011381 0.311588 -0.099551
v 0.011381 0.258248 -0.099551
v 0.022157 0.311588 -0.095087
v 0.022157 0.258248 -0.095087
v 0.032934 0.311588 -0.099551
v 0.032934 0.258248 -0.099551
v 0.037397 0.311588 -0.110327
v 0.037397 0.258248 -0.110327
v -0.001631 0.253790 -0.086539
v -0.004783 0.243008 -0.083386
v 0.022157 0.253790 -0.076685
v 0.022157 0.243008 -0.072227
v 0.045946 0.253790 -0.086539
v 0.049098 0.243008 -0.083386
v 0.055800 0.253790 -0.110327
v 0.060257 0.243008 -0.110327
v 0.045946 0.253790 -0.134116
v 0.049098 0.243008 -0.137268
v 0.022157 0.253790 -0.143970
v 0.022157 0.243008 -0.148427
v -0.001631 0.253790 -0.134116
v -0.004783 0.243008 -0.137268
v -0.011485 0.253790 -0.110327
v -0.015943 0.243008 -0.110327
v -0.004783 0.227768 -0.137268
v 0.022157 0.227768 -0.148427
v 0.049098 0.227768 -0.137268
v 0.060257 0.227768 -0.110327
v 0.049098 0.227768 -0.083386
v 0.022157 0.227768 -0.072227
v -0.004783 0.227768 -0.083386
v -0.015943 0.227768 -0.110327
v 0.005993 0.258248 -0.126492
v -0.000703 0.258248 -0.110327
v 0.005993 0.258248 -0.094163
v 0.022157 0.258248 -0.087467
v 0.038322 0.258248 -0.094163
v 0.045017 0.258248 -0.110327
v 0.038322 0.258248 -0.126492
v 0.022157 0.258248 -0.133187
v 0.011381 0.258248 -0.121104
v 0.022157 0.258248 -0.125567
v 0.032934 0.258248 -0.121104
v 0.037397 0.258248 -0.110327
v 0.032934 0.258248 -0.099551
v 0.022157 0.258248 -0.095087
v 0.011381 0.258248 -0.099551
v 0.006917 0.258248 -0.110327
v 0.038322 0.319208 -0.126492
v 0.022157 0.319208 -0.133187
v 0.045017 0.319208 -0.110327
v 0.005993 0.319208 -0.126492
v 0.038322 0.319208 -0.094163
v -0.000703 0.319208 -0.110327
v 0.022157 0.319208 -0.087467
v 0.005993 0.319208 -0.094163
v -0.004783 0.380168 -0.083386
v 0.000605 0.311588 -0.088775
v 0.022157 0.380168 -0.072227
v 0.022157 0.311588 -0.079847
v 0.049098 0.380168 -0.083386
v 0.043710 0.311588 -0.088775
v 0.060257 0.380168 -0.110327
v 0.052637 0.311588 -0.110327
v 0.049098 0.380168 -0.137268
v 0.043710 0.311588 -0.131880
v 0.022157 0.380168 -0.148427
v 0.022157 0.311588 -0.140807
v -0.004783 0.380168 -0.137268
v 0.000605 0.311588 -0.131880
v -0.015943 0.380168 -0.110327
v -0.008323 0.311588 -0.110327
v 0.011381 0.311588 -0.121104
v 0.000605 0.311588 -0.131880
v 0.022157 0.311588 -0.125567
v 0.022157 0.311588 -0.140807
v 0.032934 0.311588 -0.121104
v 0.043710 0.311588 -0.131880
v 0.037397 0.311588 -0.110327
v 0.052637 0.311588 -0.110327
v 0.032934 0.311588 -0.099551
v 0.043710 0.311588 -0.088775
v 0.022157 0.311588 -0.095087
v 0.022157 0.311588 -0.079847
v 0.011381 0.311588 -0.099551
v 0.000605 0.311588 -0.088775
v 0.006917 0.311588 -0.110327
v -0.008323 0.311588 -0.110327
v 0.000605 0.380168 -0.131880
v -0.004783 0.380168 -0.137268
v -0.008323 0.380168 -0.110327
v -0.015943 0.380168 -0.110327
v 0.000605 0.380168 -0.088775
v -0.004783 0.380168 -0.083386
v 0.022157 0.380168 -0.079847
v 0.022157 0.380168 -0.072227
v 0.043710 0.380168 -0.088775
v 0.049098 0.380168 -0.083386
v 0.052637 0.380168 -0.110327
v 0.060257 0.380168 -0.110327
v 0.043710 0.380168 -0.131880
v 0.049098 0.380168 -0.137268
v 0.022157 0.380168 -0.140807
v 0.022157 0.380168 -0.148427
v 0.000605 0.380168 -0.131880
v 0.005993 0.319208 -0.126492
v 0.022157 0.380168 -0.140807
v 0.022157 0.319208 -0.133187
v 0.043710 0.380168 -0.131880
v 0.038322 0.319208 -0.126492
v 0.052637 0.380168 -0.110327
v 0.045017 0.319208 -0.110327
v 0.043710 0.380168 -0.088775
v 0.038322 0.319208 -0.094163
v 0.022157 0.380168 -0.079847
v 0.022157 0.319208 -0.087467
v 0.000605 0.380168 -0.088775
v 0.005993 0.319208 -0.094163
v -0.008323 0.380168 -0.110327
v -0.000703 0.319208 -0.110327
vt 0.074704 0.226565
vt 0.104167 0.236842
vt 0.074704 0.226565
vt 0.104167 0.236842
vt 0.133629 0.226565
vt 0.133629 0.226565
vt 0.145833 0.201754
vt 0.145833 0.201754
vt 0.133629 0.176944
vt 0.133629 0.176944
vt 0.104167 0.166667
vt 0.104167 0.166667
vt 0.074704 0.176944
vt 0.074704 0.176944
vt 0.062500 0.201754
vt 0.062500 0.201754
vt 0.169206 0.146985
vt 0.104167 0.124298
vt 0.177824 0.139727
vt 0.104167 0.114035
vt 0.039128 0.146985
vt 0.030510 0.139727
vt 0.012188 0.201754
vt 0.000000 0.201754
vt 0.039128 0.256524
vt 0.030510 0.263781
vt 0.104167 0.279211
vt 0.104167 0.289474
vt 0.169206 0.256524
vt 0.177824 0.263781
vt 0.196146 0.201754
vt 0.208333 0.201754
vt 0.177824 0.263781
vt 0.104167 0.289474
vt 0.030510 0.263781
vt 0.000000 0.201754
vt 0.030510 0.139727
vt 0.104167 0.114035
vt 0.177824 0.139727
vt 0.208333 0.201754
vt 0.148361 0.238971
vt 0.166667 0.201754
vt 0.148361 0.164538
vt 0.104167 0.149123
vt 0.059973 0.164538
vt 0.041667 0.201754
vt 0.059973 0.238971
vt 0.104167 0.254386
vt 0.133629 0.226565
vt 0.104167 0.236842
vt 0.074704 0.226565
vt 0.062500 0.201754
vt 0.074704 0.176944
vt 0.104167 0.166667
vt 0.133629 0.176944
vt 0.145833 0.201754
vt 0.059973 0.238971
vt 0.041667 0.201754
vt 0.104167 0.254386
vt 0.148361 0.238971
vt 0.059973 0.164538
vt 0.166667 0.201754
vt 0.104167 0.149123
vt 0.148361 0.164538
vt 0.177824 0.139727
vt 0.104167 0.114035
vt 0.163092 0.152133
vt 0.104167 0.131579
vt 0.030510 0.139727
vt 0.045241 0.152133
vt 0.000000 0.201754
vt 0.020833 0.201754
vt 0.030510 0.263781
vt 0.045241 0.251376
vt 0.104167 0.289474
vt 0.104167 0.271930
vt 0.177824 0.263781
vt 0.163092 0.251376
vt 0.208333 0.201754
vt 0.187500 0.201754
vt 0.133629 0.226565
vt 0.104167 0.236842
vt 0.163092 0.251376
vt 0.104167 0.271930
vt 0.074704 0.226565
vt 0.045241 0.251376
vt 0.062500 0.201754
vt 0.020833 0.201754
vt 0.074704 0.176944
vt 0.045241 0.152133
vt 0.104167 0.166667
vt 0.104167 0.131579
vt 0.133629 0.176944
vt 0.163092 0.152133
vt 0.145833 0.201754
vt 0.187500 0.201754
vt 0.163092 0.251376
vt 0.187500 0.201754
vt 0.177824 0.263781
vt 0.208333 0.201754
vt 0.163092 0.152133
vt 0.177824 0.139727
vt 0.104167 0.131579
vt 0.104167 0.114035
vt 0.045241 0.152133
vt 0.030510 0.139727
vt 0.020833 0.201754
vt 0.000000 0.201754
vt 0.045241 0.251376
vt 0.030510 0.263781
vt 0.104167 0.271930
vt 0.104167 0.289474
vt 0.163092 0.251376
vt 0.104167 0.271930
vt 0.148361 0.238971
vt 0.104167 0.254386
vt 0.045241 0.251376
vt 0.059973 0.238971
vt 0.020833 0.201754
vt 0.041667 0.201754
vt 0.045241 0.152133
vt 0.059973 0.164538
vt 0.104167 0.131579
vt 0.104167 0.149123
vt 0.163092 0.152133
vt 0.148361 0.164538
vt 0.187500 0.201754
vt 0.166667 0.201754
vn -0.7071 0.0000 0.7071
vn 0.0000 0.0000 1.0000
vn 0.7071 0.0000 0.7071
vn 1.0000 0.0000 0.0000
vn 0.7071 0.0000 -0.7071
vn 0.0000 0.0000 -1.0000
vn -0.7071 0.0000 -0.7071
vn -1.0000 0.0000 0.0000
vn 0.5294 -0.6629 -0.5294
vn 0.0000 -0.6629 -0.7486
vn 0.6947 -0.1863 -0.6947
vn 0.0000 -0.1863 -0.9825
vn -0.5294 -0.6629 -0.5294
vn -0.6947 -0.1863 -0.6947
vn -0.7486 -0.6629 0.0000
vn -0.9825 -0.1863 0.0000
vn -0.5294 -0.6629 0.5294
vn -0.6947 -0.1863 0.6947
vn 0.0000 -0.6629 0.7486
vn 0.0000 -0.1863 0.9825
vn 0.5294 -0.6629 0.5294
vn 0.6947 -0.1863 0.6947
vn 0.7486 -0.6629 0.0000
vn 0.9825 -0.1863 0.0000
vn 0.1701 -0.9706 0.1701
vn 0.2406 -0.9706 0.0000
vn 0.1701 -0.9706 -0.1701
vn 0.0000 -0.9706 -0.2406
vn -0.1701 -0.9706 -0.1701
vn -0.2406 -0.9706 0.0000
vn -0.1701 -0.9706 0.1701
vn 0.0000 -0.9706 0.2406
vn 0.0000 -1.0000 0.0000
vn 0.7028 0.1104 -0.7028
vn 0.0000 0.1104 -0.9939
vn -0.7028 0.1104 -0.7028
vn -0.9939 0.1104 0.0000
vn -0.7028 0.1104 0.7028
vn 0.0000 0.1104 0.9939
vn 0.7028 0.1104 0.7028
vn 0.9939 0.1104 0.0000
vn 0.0000 1.0000 0.0000
vn -0.7016 -0.1240 -0.7016
vn 0.0000 -0.1240 -0.9922
vn 0.7016 -0.1240 -0.7016
vn 0.9922 -0.1240 0.0000
vn 0.7016 -0.1240 0.7016
vn 0.0000 -0.1240 0.9922
vn -0.7016 -0.1240 0.7016
vn -0.9922 -0.1240 0.0000
usemtl cup
s 1
f 1/1/1 2/2/2 3/3/1
f 3/3/1 2/2/2 4/4/2
f 2/2/2 5/5/3 4/4/2
f 4/4/2 5/5/3 6/6/3
f 5/5/3 7/7/4 6/6/3
f 6/6/3 7/7/4 8/8/4
f 7/7/4 9/9/5 8/8/4
f 8/8/4 9/9/5 10/10/5
f 9/9/5 11/11/6 10/10/5
f 10/10/5 11/11/6 12/12/6
f 11/11/6 13/13/7 12/12/6
f 12/12/6 13/13/7 14/14/7
f 13/13/7 15/15/8 14/14/7
f 14/14/7 15/15/8 16/16/8
f 15/15/8 1/1/1 16/16/8
f 16/16/8 1/1/1 3/3/1
f 17/17/9 19/18/10 18/19/11
f 18/19/11 19/18/10 20/20/12
f 19/18/10 21/21/13 20/20/12
f 20/20/12 21/21/13 22/22/14
f 21/21/13 23/23/15 22/22/14
f 22/22/14 23/23/15 24/24/16
f 23/23/15 25/25/17 24/24/16
f 24/24/16 25/25/17 26/26/18
f 25/25/17 27/27/19 26/26/18
f 26/26/18 27/27/19 28/28/20
f 27/27/19 29/29/21 28/28/20
f 28/28/20 29/29/21 30/30/22
f 29/29/21 31/31/23 30/30/22
f 30/30/22 31/31/23 32/32/24
f 31/31/23 17/17/9 32/32/24
f 32/32/24 17/17/9 18/19/11
f 33/33/3 34/34/2 30/30/22
f 30/30/22 34/34/2 28/28/20
f 34/34/2 35/35/1 28/28/20
f 28/28/20 35/35/1 26/26/18
f 35/35/1 36/36/8 26/26/18
f 26/26/18 36/36/8 24/24/16
f 36/36/8 37/37/7 24/24/16
f 24/24/16 37/37/7 22/22/14
f 37/37/7 38/38/6 22/22/14
f 22/22/14 38/38/6 20/20/12
f 38/38/6 39/39/5 20/20/12
f 20/20/12 39/39/5 18/19/11
f 39/39/5 40/40/4 18/19/11
f 18/19/11 40/40/4 32/32/24
f 40/40/4 33/33/3 32/32/24
f 32/32/24 33/33/3 30/30/22
f 41/41/25 42/42/26 29/29/21
f 29/29/21 42/42/26 31/31/23
f 42/42/26 43/43/27 31/31/23
f 31/31/23 43/43/27 17/17/9
f 43/43/27 44/44/28 17/17/9
f 17/17/9 44/44/28 19/18/10
f 44/44/28 45/45/29 19/18/10
f 19/18/10 45/45/29 21/21/13
f 45/45/29 46/46/30 21/21/13
f 21/21/13 46/46/30 23/23/15
f 46/46/30 47/47/31 23/23/15
f 23/23/15 47/47/31 25/25/17
f 47/47/31 48/48/32 25/25/17
f 25/25/17 48/48/32 27/27/19
f 48/48/32 41/41/25 27/27/19
f 27/27/19 41/41/25 29/29/21
f 41/41/25 48/48/32 49/49/33
f 49/49/33 48/48/32 50/50/33
f 48/48/32 47/47/31 50/50/33
f 50/50/33 47/47/31 51/51/33
f 47/47/31 46/46/30 51/51/33
f 51/51/33 46/46/30 52/52/33
f 46/46/30 45/45/29 52/52/33
f 52/52/33 45/45/29 53/53/33
f 45/45/29 44/44/28 53/53/33
f 53/53/33 44/44/28 54/54/33
f 44/44/28 43/43/27 54/54/33
f 54/54/33 43/43/27 55/55/33
f 43/43/27 42/42/26 55/55/33
f 55/55/33 42/42/26 56/56/33
f 42/42/26 41/41/25 56/56/33
f 56/56/33 41/41/25 49/49/33
f 57/57/33 59/58/33 58/59/33
f 58/59/33 59/58/33 60/60/33
f 59/58/33 61/61/33 60/60/33
f 60/60/33 61/61/33 62/62/33
f 61/61/33 63/63/33 62/62/33
f 62/62/33 63/63/33 64/64/33
f 65/65/34 67/66/35 66/67/34
f 66/67/34 67/66/35 68/68/35
f 67/66/35 69/69/36 68/68/35
f 68/68/35 69/69/36 70/70/36
f 69/69/36 71/71/37 70/70/36
f 70/70/36 71/71/37 72/72/37
f 71/71/37 73/73/38 72/72/37
f 72/72/37 73/73/38 74/74/38
f 73/73/38 75/75/39 74/74/38
f 74/74/38 75/75/39 76/76/39
f 75/75/39 77/77/40 76/76/39
f 76/76/39 77/77/40 78/78/40
f 77/77/40 79/79/41 78/78/40
f 78/78/40 79/79/41 80/80/41
f 79/79/41 65/65/34 80/80/41
f 80/80/41 65/65/34 66/67/34
f 81/81/42 83/82/42 82/83/42
f 82/83/42 83/82/42 84/84/42
f 83/82/42 85/85/42 84/84/42
f 84/84/42 85/85/42 86/86/42
f 85/85/42 87/87/42 86/86/42
f 86/86/42 87/87/42 88/88/42
f 87/87/42 89/89/42 88/88/42
f 88/88/42 89/89/42 90/90/42
f 89/89/42 91/91/42 90/90/42
f 90/90/42 91/91/42 92/92/42
f 91/91/42 93/93/42 92/92/42
f 92/92/42 93/93/42 94/94/42
f 93/93/42 95/95/42 94/94/42
f 94/94/42 95/95/42 96/96/42
f 95/95/42 81/81/42 96/96/42
f 96/96/42 81/81/42 82/83/42
f 97/97/33 99/98/33 98/99/33
f 98/99/33 99/98/33 100/100/33
f 99/98/33 101/101/33 100/100/33
f 100/100/33 101/101/33 102/102/33
f 101/101/33 103/103/33 102/102/33
f 102/102/33 103/103/33 104/104/33
f 103/103/33 105/105/33 104/104/33
f 104/104/33 105/105/33 106/106/33
f 105/105/33 107/107/33 106/106/33
f 106/106/33 107/107/33 108/108/33
f 107/107/33 109/109/33 108/108/33
f 108/108/33 109/109/33 110/110/33
f 109/109/33 111/111/33 110/110/33
f 110/110/33 111/111/33 112/112/33
f 111/111/33 97/97/33 112/112/33
f 112/112/33 97/97/33 98/99/33
f 113/113/43 115/114/44 114/115/43
f 114/115/43 115/114/44 116/116/44
f 115/114/44 117/117/45 116/116/44
f 116/116/44 117/117/45 118/118/45
f 117/117/45 119/119/46 118/118/45
f 118/118/45 119/119/46 120/120/46
f 119/119/46 121/121/47 120/120/46
f 120/120/46 121/121/47 122/122/47
f 121/121/47 123/123/48 122/122/47
f 122/122/47 123/123/48 124/124/48
f 123/123/48 125/125/49 124/124/48
f 124/124/48 125/125/49 126/126/49
f 125/125/49 127/127/50 126/126/49
f 126/126/49 127/127/50 128/128/50
f 127/127/50 113/113/43 128/128/50
f 128/128/50 113/113/43 114/115/43
