# Blender v2.93.0 OBJ File: 'Dewback.blend.blend'
# www.blender.org
mtllib DewbackFRightLeg.mtl
o Mesh_0106_Mesh_0106Mesh
v -0.072753 -0.354507 0.030125
v -0.072812 -0.374157 0.031007
v -0.071465 -0.341679 0.028001
v -0.074148 -0.334149 0.020617
v -0.080825 -0.374157 0.015653
v -0.080620 -0.329807 0.014338
v -0.086495 -0.330351 0.010499
v -0.092410 -0.338108 0.008632
v -0.095598 -0.354219 0.006650
v -0.095483 -0.374157 0.008228
v 0.039260 -0.374157 0.015653
v 0.038652 -0.332637 0.016396
v 0.051916 -0.374157 0.008617
v 0.051261 -0.352914 0.008710
v 0.047932 -0.341436 0.009239
v 0.033125 -0.339595 0.024910
v 0.031867 -0.351791 0.030134
v 0.032285 -0.374157 0.030356
v 0.050886 -0.374157 -0.097340
v 0.050857 -0.351708 -0.096123
v 0.039212 -0.335611 -0.103663
v 0.047874 -0.342674 -0.097716
v 0.039260 -0.374157 -0.104432
v 0.031674 -0.374157 -0.116378
v 0.033388 -0.342863 -0.112379
v 0.030329 -0.352385 -0.116790
v -0.073235 -0.374157 -0.116375
v -0.081685 -0.332904 -0.102109
v -0.080825 -0.374157 -0.104432
v -0.096476 -0.374157 -0.096685
v -0.092282 -0.339096 -0.097237
v -0.095650 -0.350772 -0.096338
v -0.076494 -0.336375 -0.106600
v -0.074503 -0.342731 -0.111922
v -0.072695 -0.356017 -0.116116
v -0.086495 -0.330351 0.010499
v -0.092410 -0.338108 0.008632
v -0.092282 -0.339096 -0.097237
v -0.095650 -0.350772 -0.096338
v -0.095598 -0.354219 0.006650
v -0.096476 -0.374157 -0.096685
v -0.095483 -0.374157 0.008228
v -0.081685 -0.332904 -0.102109
v -0.085497 -0.332812 -0.094482
v -0.075850 -0.308065 -0.001345
v -0.080620 -0.329807 0.014338
v -0.071752 -0.309141 0.004630
v -0.074148 -0.334149 0.020617
v -0.063825 -0.308962 0.008253
v 0.022771 -0.308923 0.012760
v 0.028328 -0.243873 0.022036
v 0.032989 -0.308922 0.008426
v 0.041832 -0.253044 0.018976
v 0.039699 -0.309751 -0.003741
v 0.054261 -0.256262 0.000042
v 0.039765 -0.308267 -0.080480
v 0.051140 -0.251724 -0.077931
v 0.034237 -0.309718 -0.088399
v 0.041655 -0.254100 -0.086265
v 0.021609 -0.309411 -0.093045
v 0.022155 -0.223894 -0.094505
v -0.038750 -0.172556 -0.099474
v 0.014714 -0.111221 -0.123643
v -0.022844 -0.127463 -0.116857
v 0.014634 -0.057061 -0.127990
v -0.013149 -0.056017 -0.123827
v 0.014626 0.006444 -0.120434
v -0.009615 0.008588 -0.114577
v 0.014614 0.040713 -0.105739
v -0.007505 0.040147 -0.101129
v 0.014695 0.086681 -0.064140
v -0.005445 0.085650 -0.057082
v 0.014643 0.102053 -0.011591
v -0.007209 0.098736 -0.009353
v 0.014686 0.097125 0.036896
v -0.006311 0.094640 0.035335
v 0.014660 0.069112 0.077123
v -0.000788 0.067444 0.075719
v 0.014695 0.023399 0.105802
v -0.005378 0.022247 0.101853
v 0.014663 -0.009181 0.110303
v -0.006693 -0.010104 0.106453
v 0.014688 -0.047489 0.103371
v -0.006066 -0.048172 0.099648
v 0.014597 -0.074631 0.093393
v -0.012122 -0.097398 0.077899
v 0.014714 -0.104380 0.081965
v -0.041095 -0.185857 0.029366
v 0.061399 -0.149745 0.067845
v 0.043178 -0.205897 0.040037
v 0.092981 -0.167456 0.062377
v 0.085002 -0.205985 0.044207
v -0.074503 -0.342731 -0.111922
v -0.072695 -0.356017 -0.116116
v 0.030329 -0.352385 -0.116790
v 0.031674 -0.374157 -0.116378
v -0.073235 -0.374157 -0.116375
v 0.039212 -0.335611 -0.103663
v 0.030659 -0.337201 -0.107611
v 0.033388 -0.342863 -0.112379
v 0.047874 -0.342674 -0.097716
v 0.045731 -0.332681 -0.090399
v 0.044554 -0.331636 0.002730
v 0.047932 -0.341436 0.009239
v 0.036367 -0.325021 0.014011
v 0.038652 -0.332637 0.016396
v 0.027975 -0.328249 0.019996
v 0.033125 -0.339595 0.024910
v -0.071465 -0.341679 0.028001
v -0.072753 -0.354507 0.030125
v 0.051261 -0.352914 0.008710
v 0.050857 -0.351708 -0.096123
v 0.051916 -0.374157 0.008617
v 0.050886 -0.374157 -0.097340
v 0.031867 -0.351791 0.030134
v -0.072812 -0.374157 0.031007
v 0.032285 -0.374157 0.030356
v -0.057782 -0.174552 0.006239
v -0.060776 -0.192353 -0.024182
v -0.073840 -0.310064 -0.084654
v -0.068090 -0.311510 -0.089869
v -0.060959 -0.311582 -0.091443
v -0.076494 -0.336375 -0.106600
v -0.030214 -0.034469 0.076630
v -0.027977 -0.011947 0.079890
v -0.027869 0.012041 0.074064
v -0.021296 0.055095 0.060948
v -0.035735 0.033515 0.033559
v -0.024025 0.071790 0.034172
v -0.038370 0.040869 0.018603
v -0.040322 0.041254 -0.002399
v -0.053359 -0.003305 -0.002651
v -0.042766 0.032942 -0.023301
v -0.045036 0.020477 -0.037789
v -0.030390 0.031993 -0.072145
v -0.048817 0.004976 -0.042840
v -0.037969 0.004996 -0.074259
v -0.059097 -0.062958 -0.057851
v -0.050056 -0.061976 -0.079340
v -0.059054 -0.159003 -0.073412
v -0.056226 -0.158735 -0.080400
v -0.056116 -0.169002 -0.080309
v -0.043130 -0.086557 0.054818
v -0.041989 -0.019536 0.050929
v -0.053912 -0.076101 0.026352
v -0.063102 -0.062085 -0.021731
v -0.056130 -0.162008 0.015992
v -0.062325 -0.163361 0.003321
v -0.065495 -0.178945 -0.026425
v -0.060776 -0.192353 -0.024182
v -0.064740 -0.176649 -0.045123
v -0.060711 -0.190010 -0.046614
v -0.039065 0.007888 0.049013
v -0.025672 0.075019 -0.008548
v -0.027701 0.062995 -0.041431
v 0.058285 -0.142112 -0.116678
v 0.092981 -0.167456 -0.107642
v 0.057850 -0.223147 -0.091910
v 0.091340 -0.195338 -0.097655
v 0.067584 -0.232619 -0.080696
v 0.099450 -0.210459 -0.085649
v 0.074250 -0.236555 -0.040211
v 0.098361 -0.223209 -0.055446
v 0.070709 -0.240805 -0.025142
v 0.078580 -0.235106 -0.008521
v 0.098361 -0.223209 0.013540
v 0.099688 -0.219499 0.034562
v 0.095540 -0.223976 0.000743
v -0.060711 -0.190010 -0.046614
v 0.050886 -0.374157 -0.097340
v 0.039260 -0.374157 -0.104432
v 0.051916 -0.374157 0.008617
v 0.039260 -0.374157 0.015653
v -0.080825 -0.374157 -0.104432
v -0.080825 -0.374157 0.015653
v -0.096476 -0.374157 -0.096685
v -0.095483 -0.374157 0.008228
v -0.073235 -0.374157 -0.116375
v 0.031674 -0.374157 -0.116378
v 0.032285 -0.374157 0.030356
v -0.072812 -0.374157 0.031007
v 0.061399 -0.149745 0.067845
v 0.014714 -0.104380 0.081965
v 0.058285 -0.142112 -0.116678
v 0.014714 -0.111221 -0.123643
v 0.014597 -0.074631 0.093393
v 0.014634 -0.057061 -0.127990
v 0.014688 -0.047489 0.103371
v 0.014626 0.006444 -0.120434
v 0.014663 -0.009181 0.110303
v 0.014614 0.040713 -0.105739
v 0.014695 0.023399 0.105802
v 0.014695 0.086681 -0.064140
v 0.014660 0.069112 0.077123
v 0.014643 0.102053 -0.011591
v 0.014686 0.097125 0.036896
v 0.092981 -0.167456 0.062377
v 0.092981 -0.167456 -0.107642
vt 0.682490 0.647813
vt 0.682233 0.644951
vt 0.683108 0.649681
vt 0.685257 0.650778
vt 0.686702 0.644951
vt 0.687085 0.651410
vt 0.688202 0.651331
vt 0.688745 0.650201
vt 0.689322 0.647855
vt 0.688863 0.644951
vt 0.686702 0.644951
vt 0.686486 0.650998
vt 0.688750 0.644951
vt 0.688722 0.648045
vt 0.688569 0.649717
vt 0.684008 0.649985
vt 0.682487 0.648209
vt 0.682423 0.644951
vt 0.719587 0.644951
vt 0.719232 0.648221
vt 0.721427 0.650565
vt 0.719696 0.649536
vt 0.721651 0.644951
vt 0.725127 0.644951
vt 0.723963 0.649509
vt 0.725247 0.648122
vt 0.725126 0.644951
vt 0.720975 0.650959
vt 0.721651 0.644951
vt 0.719396 0.644951
vt 0.719557 0.650057
vt 0.719295 0.648357
vt 0.722282 0.650454
vt 0.723830 0.649528
vt 0.725051 0.647593
vt 0.688202 0.651331
vt 0.688745 0.650201
vt 0.719557 0.650057
vt 0.719295 0.648357
vt 0.689322 0.647855
vt 0.719396 0.644951
vt 0.688863 0.644951
vt 0.720975 0.650959
vt 0.718755 0.650973
vt 0.691649 0.655982
vt 0.687085 0.651410
vt 0.689910 0.655825
vt 0.685257 0.650778
vt 0.688856 0.655851
vt 0.687544 0.655857
vt 0.684844 0.663925
vt 0.688805 0.655857
vt 0.685735 0.662589
vt 0.692346 0.655736
vt 0.691245 0.662121
vt 0.714680 0.655952
vt 0.713938 0.662782
vt 0.716984 0.655741
vt 0.716363 0.662436
vt 0.718337 0.655786
vt 0.718762 0.666835
vt 0.720208 0.674311
vt 0.727242 0.683243
vt 0.725267 0.680878
vt 0.728507 0.691131
vt 0.727295 0.691283
vt 0.726308 0.700379
vt 0.724603 0.700691
vt 0.722031 0.705370
vt 0.720689 0.705287
vt 0.709924 0.712064
vt 0.707870 0.711914
vt 0.692205 0.714303
vt 0.691777 0.713820
vt 0.682945 0.713585
vt 0.683243 0.713223
vt 0.668812 0.709506
vt 0.669221 0.709263
vt 0.660465 0.702848
vt 0.661614 0.702681
vt 0.659155 0.698104
vt 0.660276 0.697969
vt 0.661173 0.692525
vt 0.662256 0.692425
vt 0.664077 0.688572
vt 0.668586 0.685257
vt 0.667403 0.684240
vt 0.682711 0.672374
vt 0.671512 0.677633
vt 0.679605 0.669455
vt 0.673103 0.675054
vt 0.678391 0.669443
vt 0.723830 0.649528
vt 0.725051 0.647593
vt 0.725247 0.648122
vt 0.725127 0.644951
vt 0.725126 0.644951
vt 0.721427 0.650565
vt 0.722576 0.650333
vt 0.723963 0.649509
vt 0.719696 0.649536
vt 0.717567 0.650992
vt 0.690463 0.651144
vt 0.688569 0.649717
vt 0.687180 0.652107
vt 0.686486 0.650998
vt 0.685438 0.651637
vt 0.684008 0.649985
vt 0.683108 0.649681
vt 0.682490 0.647813
vt 0.688722 0.648045
vt 0.719232 0.648221
vt 0.688750 0.644951
vt 0.719587 0.644951
vt 0.682487 0.648209
vt 0.682233 0.644951
vt 0.682423 0.644951
vt 0.689442 0.674020
vt 0.698295 0.671428
vt 0.715895 0.655691
vt 0.717412 0.655480
vt 0.717870 0.655470
vt 0.722282 0.650454
vt 0.668955 0.694421
vt 0.668007 0.697701
vt 0.669702 0.701194
vt 0.673519 0.707465
vt 0.680385 0.704929
vt 0.683465 0.709896
vt 0.685843 0.705393
vt 0.691956 0.705449
vt 0.692029 0.698959
vt 0.698039 0.704238
vt 0.702255 0.702423
vt 0.712254 0.704100
vt 0.703725 0.700165
vt 0.712869 0.700168
vt 0.708094 0.690272
vt 0.714348 0.690415
vt 0.712623 0.676285
vt 0.714657 0.676324
vt 0.714630 0.674829
vt 0.677723 0.686835
vt 0.676435 0.696596
vt 0.683588 0.688358
vt 0.697582 0.690399
vt 0.686603 0.675847
vt 0.690291 0.675650
vt 0.698948 0.673381
vt 0.698295 0.671428
vt 0.704390 0.673715
vt 0.704824 0.671769
vt 0.676993 0.700590
vt 0.691624 0.710366
vt 0.703315 0.708615
vt 0.725215 0.678745
vt 0.722585 0.675054
vt 0.718006 0.666943
vt 0.719678 0.670993
vt 0.714743 0.665564
vt 0.716184 0.668791
vt 0.702960 0.664991
vt 0.707394 0.667837
vt 0.698575 0.664372
vt 0.693737 0.665202
vt 0.687317 0.666934
vt 0.681198 0.667475
vt 0.691041 0.666823
vt 0.704824 0.671769
vt 0.640627 0.318405
vt 0.668766 0.335570
vt 0.638133 0.061932
vt 0.668766 0.044899
vt 0.959437 0.335570
vt 0.959437 0.044899
vt 0.997320 0.316820
vt 0.994917 0.062873
vt 0.941065 0.364479
vt 0.687129 0.364486
vt 0.685649 0.009311
vt 0.940041 0.007735
vt 0.671512 0.677633
vt 0.667403 0.684240
vt 0.725215 0.678745
vt 0.727242 0.683243
vt 0.664077 0.688572
vt 0.728507 0.691131
vt 0.661173 0.692525
vt 0.726308 0.700379
vt 0.659155 0.698104
vt 0.722031 0.705370
vt 0.660465 0.702848
vt 0.709924 0.712064
vt 0.668812 0.709506
vt 0.692205 0.714303
vt 0.682945 0.713585
vt 0.673103 0.675054
vt 0.722585 0.675054
vn 0.7779 0.0258 0.6278
vn 0.9025 -0.0860 -0.4221
vn 0.9233 -0.0732 -0.3770
vn 0.7737 -0.0455 -0.6320
vn 0.6912 -0.0659 -0.7196
vn 0.6097 -0.0263 -0.7922
vn 0.4928 -0.0203 -0.8699
vn 0.2029 0.0801 -0.9759
vn 0.5094 -0.0558 -0.8587
vn 0.4630 -0.0491 -0.8850
vn -0.7264 0.0017 -0.6872
vn -0.7395 -0.0662 -0.6699
vn -0.4965 0.0040 -0.8680
vn -0.5588 -0.0334 -0.8286
vn -0.6980 -0.1704 -0.6955
vn -0.7397 -0.1991 -0.6429
vn -0.8729 -0.0396 -0.4863
vn -0.8993 -0.0091 -0.4372
vn -0.5356 -0.0238 0.8441
vn -0.5870 -0.0460 0.8083
vn -0.7076 -0.0309 0.7060
vn -0.5954 -0.0552 0.8016
vn -0.7020 -0.0151 0.7120
vn -0.8342 -0.0169 0.5512
vn -0.8151 -0.0293 0.5786
vn -0.7825 -0.0366 0.6216
vn 0.8373 -0.0175 0.5465
vn 0.5846 -0.1128 0.8035
vn 0.6750 -0.0274 0.7373
vn 0.4363 -0.0398 0.8989
vn 0.4289 -0.0371 0.9026
vn 0.3409 -0.0260 0.9397
vn 0.2995 -0.5556 0.7756
vn 0.7219 -0.1475 0.6761
vn 0.8094 -0.0402 0.5859
vn 0.7684 -0.5902 -0.2473
vn 0.9003 -0.4352 0.0009
vn 0.8211 -0.5661 0.0735
vn 0.9875 -0.1578 0.0006
vn 0.9953 -0.0965 -0.0077
vn 0.9995 -0.0303 -0.0026
vn 0.9999 0.0050 -0.0095
vn 0.4818 -0.6801 0.5526
vn 0.7049 -0.6794 0.2037
vn 0.8930 -0.3518 -0.2808
vn 0.4459 -0.5490 -0.7070
vn 0.5984 -0.3637 -0.7138
vn 0.1487 -0.5714 -0.8071
vn 0.2474 -0.2386 -0.9391
vn -0.1694 -0.1243 -0.9777
vn 0.0553 0.2778 -0.9591
vn -0.6686 -0.0805 -0.7393
vn -0.3021 0.4539 -0.8383
vn -0.9711 -0.0151 -0.2380
vn -0.7791 0.5793 -0.2395
vn -0.9560 -0.0660 0.2857
vn -0.7964 0.4715 0.3787
vn -0.5736 -0.2572 0.7777
vn -0.4642 0.1599 0.8712
vn -0.1551 -0.2436 0.9574
vn -0.0641 0.1519 0.9863
vn 0.4620 0.0687 0.8842
vn 0.1034 0.1813 0.9780
vn 0.4168 0.1413 0.8979
vn 0.1464 -0.0176 0.9891
vn 0.4861 -0.0671 0.8713
vn 0.1946 -0.2553 0.9471
vn 0.5315 -0.2573 0.8070
vn 0.1836 -0.5259 0.8305
vn 0.5006 -0.4871 0.7157
vn 0.2153 -0.8150 0.5380
vn 0.4915 -0.7613 0.4230
vn 0.1556 -0.9831 0.0964
vn 0.4927 -0.8675 0.0690
vn 0.1378 -0.9281 -0.3458
vn 0.4717 -0.8260 -0.3084
vn 0.1388 -0.6845 -0.7157
vn 0.4078 -0.6255 -0.6651
vn 0.1948 -0.3271 -0.9247
vn 0.5031 -0.2988 -0.8109
vn 0.1801 0.0125 -0.9836
vn 0.4925 0.0010 -0.8703
vn 0.1624 0.2550 -0.9532
vn 0.4557 0.2369 -0.8580
vn 0.2009 0.3611 -0.9106
vn 0.4488 0.3072 -0.8392
vn 0.2127 0.4011 -0.8910
vn 0.5349 0.1934 -0.8225
vn 0.1441 0.4218 -0.8951
vn 0.1454 0.3873 -0.9104
vn 0.0839 0.4172 -0.9049
vn 0.0329 0.4499 -0.8925
vn 0.0085 -0.5028 0.8644
vn 0.0089 -0.1576 0.9875
vn 0.0051 -0.2199 0.9755
vn 0.0052 0.0155 0.9999
vn 0.0000 -0.0143 0.9999
vn -0.4948 -0.5427 0.6787
vn -0.1132 -0.6000 0.7920
vn -0.0481 -0.5767 0.8155
vn -0.9146 -0.3670 0.1695
vn -0.9196 -0.3232 0.2233
vn -0.9206 -0.3510 -0.1714
vn -0.9274 -0.3559 -0.1155
vn -0.6432 -0.4012 -0.6522
vn -0.6188 -0.4332 -0.6553
vn -0.2160 -0.4275 -0.8778
vn -0.1297 -0.4356 -0.8907
vn 0.0040 -0.4439 -0.8961
vn -0.0102 -0.1099 -0.9939
vn -0.9874 -0.1580 0.0035
vn -0.9858 -0.1677 0.0044
vn -0.9996 -0.0269 0.0043
vn -1.0000 -0.0018 0.0097
vn 0.0029 -0.2159 -0.9764
vn 0.0003 -0.0402 -0.9992
vn -0.0062 -0.0100 -0.9999
vn 0.9109 0.1551 -0.3825
vn 0.9936 -0.1096 -0.0255
vn 0.8470 -0.3495 0.4007
vn 0.4167 -0.3568 0.8361
vn 0.1051 -0.2715 0.9567
vn 0.0865 -0.6016 0.7941
vn 0.8169 0.0550 -0.5742
vn 0.8456 -0.0668 -0.5296
vn 0.8623 -0.1986 -0.4658
vn 0.8063 -0.4020 -0.4340
vn 0.9283 -0.2517 -0.2737
vn 0.8410 -0.4817 -0.2465
vn 0.9383 -0.2911 -0.1866
vn 0.9371 -0.3481 -0.0247
vn 0.9777 -0.1887 -0.0919
vn 0.9367 -0.3365 0.0965
vn 0.9290 -0.3264 0.1745
vn 0.8374 -0.3564 0.4145
vn 0.9512 -0.2411 0.1927
vn 0.8647 -0.2280 0.4475
vn 0.9632 -0.1110 0.2446
vn 0.8520 -0.1211 0.5093
vn 0.9618 0.0128 0.2735
vn 0.8478 -0.0173 0.5301
vn 0.8882 -0.0113 0.4593
vn 0.8065 0.1060 -0.5817
vn 0.9361 -0.0868 -0.3408
vn 0.9581 -0.0451 -0.2827
vn 0.9954 -0.0907 -0.0324
vn 0.8347 0.1572 -0.5278
vn 0.9515 0.1219 -0.2824
vn 0.9813 0.1825 -0.0613
vn 0.9476 0.3049 -0.0958
vn 0.9770 0.1396 0.1611
vn 0.9549 0.2561 0.1504
vn 0.9282 -0.2062 -0.3097
vn 0.8530 -0.5206 0.0367
vn 0.8498 -0.4690 0.2406
vn -0.0054 0.2639 0.9645
vn -0.0677 0.2996 0.9517
vn -0.2305 0.3866 0.8930
vn -0.1763 0.4149 0.8926
vn -0.5581 0.6568 0.5072
vn -0.3453 0.7033 0.6214
vn -0.5934 0.7922 0.1425
vn -0.2619 0.8925 0.3673
vn 0.8263 -0.5277 -0.1972
vn -0.6198 0.7773 0.1081
vn -0.5245 0.8479 -0.0771
vn -0.2886 0.7651 -0.5756
vn -0.5765 0.8133 0.0783
vn 0.9929 -0.1164 0.0246
vn -0.0000 1.0000 0.0000
vn -0.6105 -0.7917 -0.0224
vn -0.9456 -0.3253 -0.0039
vn -0.5920 -0.8059 0.0089
vn -0.9004 -0.4347 0.0143
vn -1.0000 0.0005 0.0001
vn -1.0000 -0.0007 -0.0000
vn -1.0000 0.0010 0.0001
vn -1.0000 -0.0003 0.0002
vn -1.0000 0.0001 0.0003
vn -1.0000 0.0002 0.0003
vn -1.0000 0.0006 0.0003
vn -1.0000 -0.0007 -0.0002
vn -1.0000 -0.0014 -0.0003
vn -1.0000 0.0026 0.0011
vn -0.5063 -0.8620 -0.0239
vn -0.5899 -0.8075 -0.0000
usemtl Tex_0034_0_dds
s 1
f 1/1/1 2/2/2 3/3/3
f 3/3/3 2/2/2 4/4/4
f 2/2/2 5/5/5 4/4/4
f 4/4/4 5/5/5 6/6/6
f 5/5/5 7/7/7 6/6/6
f 8/8/8 7/7/7 9/9/9
f 9/9/9 7/7/7 10/10/10
f 7/7/7 5/5/5 10/10/10
f 11/11/11 12/12/12 13/13/13
f 13/13/13 12/12/12 14/14/14
f 12/12/12 15/15/15 14/14/14
f 16/16/16 12/12/12 17/17/17
f 17/17/17 12/12/12 18/18/18
f 12/12/12 11/11/11 18/18/18
f 19/19/19 20/20/20 21/21/21
f 21/21/21 20/20/20 22/22/22
f 19/19/19 21/21/21 23/23/23
f 23/23/23 21/21/21 24/24/24
f 21/21/21 25/25/25 24/24/24
f 24/24/24 25/25/25 26/26/26
f 27/27/27 28/28/28 29/29/29
f 29/29/29 28/28/28 30/30/30
f 28/28/28 31/31/31 30/30/30
f 30/30/30 31/31/31 32/32/32
f 33/33/33 28/28/28 34/34/34
f 34/34/34 28/28/28 35/35/35
f 28/28/28 27/27/27 35/35/35
f 36/36/36 37/37/37 38/38/38
f 38/38/38 37/37/37 39/39/39
f 37/37/37 40/40/40 39/39/39
f 39/39/39 40/40/40 41/41/41
f 40/40/40 42/42/42 41/41/41
f 43/43/43 44/44/44 38/38/38
f 38/38/38 44/44/44 36/36/36
f 44/44/44 45/45/45 36/36/36
f 36/36/36 45/45/45 46/46/46
f 45/45/45 47/47/47 46/46/46
f 46/46/46 47/47/47 48/48/48
f 47/47/47 49/49/49 48/48/48
f 48/48/48 49/49/49 50/50/50
f 49/49/49 51/51/51 50/50/50
f 50/50/50 51/51/51 52/52/52
f 51/51/51 53/53/53 52/52/52
f 52/52/52 53/53/53 54/54/54
f 53/53/53 55/55/55 54/54/54
f 54/54/54 55/55/55 56/56/56
f 55/55/55 57/57/57 56/56/56
f 56/56/56 57/57/57 58/58/58
f 57/57/57 59/59/59 58/58/58
f 58/58/58 59/59/59 60/60/60
f 59/59/59 61/61/61 60/60/60
f 60/60/60 61/61/61 62/62/62
f 61/61/61 63/63/63 62/62/62
f 62/62/62 63/63/63 64/64/64
f 63/63/63 65/65/65 64/64/64
f 64/64/64 65/65/65 66/66/66
f 65/65/65 67/67/67 66/66/66
f 66/66/66 67/67/67 68/68/68
f 67/67/67 69/69/69 68/68/68
f 68/68/68 69/69/69 70/70/70
f 69/69/69 71/71/71 70/70/70
f 70/70/70 71/71/71 72/72/72
f 71/71/71 73/73/73 72/72/72
f 72/72/72 73/73/73 74/74/74
f 73/73/73 75/75/75 74/74/74
f 74/74/74 75/75/75 76/76/76
f 75/75/75 77/77/77 76/76/76
f 76/76/76 77/77/77 78/78/78
f 77/77/77 79/79/79 78/78/78
f 78/78/78 79/79/79 80/80/80
f 79/79/79 81/81/81 80/80/80
f 80/80/80 81/81/81 82/82/82
f 81/81/81 83/83/83 82/82/82
f 82/82/82 83/83/83 84/84/84
f 83/83/83 85/85/85 84/84/84
f 84/84/84 85/85/85 86/86/86
f 85/85/85 87/87/87 86/86/86
f 86/86/86 87/87/87 88/88/88
f 87/87/87 89/89/89 88/88/88
f 88/88/88 89/89/89 90/90/90
f 89/89/89 91/91/91 90/90/90
f 90/90/90 91/91/91 92/92/92
f 93/93/93 94/94/94 95/95/95
f 95/95/95 94/94/94 96/96/96
f 94/94/94 97/97/97 96/96/96
f 98/98/98 99/99/99 100/100/100
f 98/98/98 101/101/101 102/102/102
f 102/102/102 101/101/101 103/103/103
f 101/101/101 104/104/104 103/103/103
f 103/103/103 104/104/104 105/105/105
f 104/104/104 106/106/106 105/105/105
f 105/105/105 106/106/106 107/107/107
f 106/106/106 108/108/108 107/107/107
f 107/107/107 108/108/108 109/109/109
f 108/108/108 110/110/110 109/109/109
f 111/111/111 104/104/104 101/101/101
f 101/101/101 112/112/112 111/111/111
f 111/111/111 112/112/112 113/113/113
f 112/112/112 114/114/114 113/113/113
f 108/108/108 115/115/115 110/110/110
f 110/110/110 115/115/115 116/116/116
f 115/115/115 117/117/117 116/116/116
f 51/51/51 92/92/92 53/53/53
f 92/92/92 51/51/51 90/90/90
f 90/90/90 51/51/51 88/88/88
f 51/51/51 49/49/49 88/88/88
f 88/88/88 49/49/49 118/118/118
f 49/49/49 47/47/47 118/118/118
f 118/118/118 47/47/47 119/119/119
f 47/47/47 45/45/45 119/119/119
f 119/119/119 45/45/45 120/120/120
f 45/45/45 44/44/44 120/120/120
f 120/120/120 44/44/44 121/121/121
f 44/44/44 43/43/43 121/121/121
f 121/121/121 43/43/43 122/122/122
f 43/43/43 123/123/123 122/122/122
f 122/122/122 123/123/123 99/99/99
f 123/123/123 93/93/93 99/99/99
f 99/99/99 93/93/93 100/100/100
f 93/93/93 95/95/95 100/100/100
f 86/86/86 124/124/124 84/84/84
f 84/84/84 124/124/124 82/82/82
f 124/124/124 125/125/125 82/82/82
f 82/82/82 125/125/125 80/80/80
f 125/125/125 126/126/126 80/80/80
f 80/80/80 126/126/126 127/127/127
f 126/126/126 128/128/128 127/127/127
f 127/127/127 128/128/128 129/129/129
f 128/128/128 130/130/130 129/129/129
f 129/129/129 130/130/130 131/131/131
f 130/130/130 132/132/132 131/131/131
f 131/131/131 132/132/132 133/133/133
f 132/132/132 134/134/134 133/133/133
f 133/133/133 134/134/134 135/135/135
f 134/134/134 136/136/136 135/135/135
f 135/135/135 136/136/136 137/137/137
f 136/136/136 138/138/138 137/137/137
f 137/137/137 138/138/138 139/139/139
f 138/138/138 140/140/140 139/139/139
f 139/139/139 140/140/140 141/141/141
f 140/140/140 142/142/142 141/141/141
f 141/141/141 142/142/142 64/64/64
f 142/142/142 62/62/62 64/64/64
f 86/86/86 143/143/143 124/124/124
f 124/124/124 143/143/143 144/144/144
f 143/143/143 145/145/145 144/144/144
f 144/144/144 145/145/145 132/132/132
f 145/145/145 146/146/146 132/132/132
f 132/132/132 146/146/146 136/136/136
f 146/146/146 138/138/138 136/136/136
f 86/86/86 147/147/147 143/143/143
f 143/143/143 147/147/147 148/148/148
f 147/147/147 118/118/118 148/148/148
f 148/148/148 118/118/118 149/149/149
f 118/118/118 150/150/150 149/149/149
f 149/149/149 150/150/150 151/151/151
f 150/150/150 152/152/152 151/151/151
f 151/151/151 152/152/152 140/140/140
f 152/152/152 142/142/142 140/140/140
f 86/86/86 88/88/88 147/147/147
f 147/147/147 88/88/88 118/118/118
f 151/151/151 146/146/146 149/149/149
f 149/149/149 146/146/146 148/148/148
f 146/146/146 145/145/145 148/148/148
f 148/148/148 145/145/145 143/143/143
f 151/151/151 140/140/140 146/146/146
f 146/146/146 140/140/140 138/138/138
f 124/124/124 144/144/144 125/125/125
f 125/125/125 144/144/144 153/153/153
f 144/144/144 132/132/132 153/153/153
f 153/153/153 132/132/132 128/128/128
f 132/132/132 130/130/130 128/128/128
f 127/127/127 129/129/129 78/78/78
f 78/78/78 129/129/129 76/76/76
f 129/129/129 154/154/154 76/76/76
f 76/76/76 154/154/154 74/74/74
f 154/154/154 155/155/155 74/74/74
f 74/74/74 155/155/155 72/72/72
f 155/155/155 135/135/135 72/72/72
f 72/72/72 135/135/135 70/70/70
f 135/135/135 137/137/137 70/70/70
f 70/70/70 137/137/137 68/68/68
f 137/137/137 66/66/66 68/68/68
f 129/129/129 131/131/131 154/154/154
f 154/154/154 131/131/131 155/155/155
f 131/131/131 133/133/133 155/155/155
f 155/155/155 133/133/133 135/135/135
f 132/132/132 136/136/136 134/134/134
f 137/137/137 139/139/139 66/66/66
f 66/66/66 139/139/139 64/64/64
f 139/139/139 141/141/141 64/64/64
f 127/127/127 78/78/78 80/80/80
f 125/125/125 153/153/153 126/126/126
f 126/126/126 153/153/153 128/128/128
f 63/63/63 61/61/61 156/156/156
f 156/156/156 61/61/61 157/157/157
f 61/61/61 158/158/158 157/157/157
f 157/157/157 158/158/158 159/159/159
f 158/158/158 160/160/160 159/159/159
f 159/159/159 160/160/160 161/161/161
f 160/160/160 162/162/162 161/161/161
f 161/161/161 162/162/162 163/163/163
f 61/61/61 59/59/59 158/158/158
f 158/158/158 59/59/59 160/160/160
f 59/59/59 57/57/57 160/160/160
f 160/160/160 57/57/57 162/162/162
f 162/162/162 57/57/57 164/164/164
f 164/164/164 57/57/57 165/165/165
f 57/57/57 55/55/55 165/165/165
f 165/165/165 55/55/55 166/166/166
f 55/55/55 53/53/53 166/166/166
f 166/166/166 53/53/53 167/167/167
f 53/53/53 92/92/92 167/167/167
f 166/166/166 168/168/168 165/165/165
f 119/119/119 120/120/120 169/169/169
f 169/169/169 120/120/120 142/142/142
f 120/120/120 121/121/121 142/142/142
f 142/142/142 121/121/121 62/62/62
f 121/121/121 122/122/122 62/62/62
f 62/62/62 122/122/122 60/60/60
f 122/122/122 99/99/99 60/60/60
f 60/60/60 99/99/99 58/58/58
f 99/99/99 98/98/98 58/58/58
f 58/58/58 98/98/98 56/56/56
f 98/98/98 102/102/102 56/56/56
f 56/56/56 102/102/102 54/54/54
f 102/102/102 103/103/103 54/54/54
f 54/54/54 103/103/103 52/52/52
f 103/103/103 105/105/105 52/52/52
f 52/52/52 105/105/105 50/50/50
f 105/105/105 107/107/107 50/50/50
f 50/50/50 107/107/107 48/48/48
f 107/107/107 109/109/109 48/48/48
f 170/170/170 171/171/170 172/172/170
f 172/172/170 171/171/170 173/173/170
f 171/171/170 174/174/170 173/173/170
f 173/173/170 174/174/170 175/175/170
f 174/174/170 176/176/170 175/175/170
f 175/175/170 176/176/170 177/177/170
f 178/178/170 174/174/170 179/179/170
f 179/179/170 174/174/170 171/171/170
f 180/180/170 173/173/170 181/181/170
f 181/181/170 173/173/170 175/175/170
f 182/182/171 183/183/172 184/184/173
f 184/184/173 183/183/172 185/185/174
f 183/183/172 186/186/175 185/185/174
f 185/185/174 186/186/175 187/187/176
f 186/186/175 188/188/177 187/187/176
f 187/187/176 188/188/177 189/189/178
f 188/188/177 190/190/179 189/189/178
f 189/189/178 190/190/179 191/191/180
f 190/190/179 192/192/181 191/191/180
f 191/191/180 192/192/181 193/193/181
f 192/192/181 194/194/182 193/193/181
f 193/193/181 194/194/182 195/195/183
f 194/194/182 196/196/184 195/195/183
f 182/182/171 184/184/173 197/197/185
f 197/197/185 184/184/173 198/198/186
