# Blender v2.93.0 OBJ File: 'Dewback.blend.blend'
# www.blender.org
mtllib DewbackFLeftLeg.mtl
o Mesh_0101_Mesh_0101Mesh.001
v 0.097678 -0.371523 0.018127
v 0.103347 -0.327716 0.012973
v 0.112336 -0.371523 0.010702
v 0.112451 -0.351585 0.009124
v 0.109263 -0.335473 0.011106
v 0.097473 -0.327172 0.016812
v 0.091001 -0.331515 0.023091
v 0.089664 -0.371523 0.033481
v 0.088318 -0.339045 0.030475
v 0.089605 -0.351872 0.032599
v -0.076129 -0.164821 -0.105168
v -0.074487 -0.192703 -0.095181
v -0.082597 -0.207825 -0.083175
v -0.081508 -0.220574 -0.052972
v -0.057397 -0.233921 -0.037737
v -0.050731 -0.229984 -0.078222
v -0.040997 -0.220512 -0.089436
v -0.005303 -0.221259 -0.092031
v -0.041432 -0.139477 -0.114204
v 0.002138 -0.108587 -0.121169
v -0.034287 -0.249089 -0.075457
v -0.024803 -0.251465 -0.083791
v -0.061728 -0.232472 -0.006047
v -0.078687 -0.221342 0.003217
v -0.081508 -0.220574 0.016014
v -0.082835 -0.216865 0.037036
v -0.068149 -0.203351 0.046681
v -0.024980 -0.250409 0.021450
v -0.037409 -0.253628 0.002516
v -0.053856 -0.238170 -0.022668
v 0.028974 -0.094763 0.080373
v 0.072983 -0.159374 0.018466
v 0.057948 -0.183222 0.031840
v 0.074634 -0.171917 0.008713
v 0.042524 0.077653 -0.006074
v 0.057175 0.043889 0.000075
v 0.040877 0.074425 0.036646
v 0.044553 0.065630 -0.038957
v 0.059619 0.035577 -0.020827
v 0.047243 0.034628 -0.069671
v 0.030001 -0.053382 -0.121353
v 0.054822 0.007630 -0.071785
v 0.026468 0.011222 -0.112103
v 0.024358 0.042781 -0.098655
v 0.022297 0.088284 -0.054608
v 0.024062 0.101371 -0.006879
v 0.023163 0.097274 0.037809
v 0.017641 0.070079 0.078193
v 0.038149 0.057730 0.063422
v 0.022231 0.024881 0.104327
v 0.044722 0.014676 0.076538
v 0.044830 -0.009312 0.082364
v 0.055917 0.010523 0.051487
v 0.058842 -0.016901 0.053403
v 0.070212 -0.000671 -0.000177
v 0.070765 -0.073467 0.028826
v 0.079954 -0.059450 -0.019257
v 0.079177 -0.160727 0.005795
v 0.082348 -0.176311 -0.023951
v 0.077629 -0.189718 -0.021708
v 0.055603 -0.169922 -0.097000
v 0.072969 -0.166367 -0.077835
v 0.039697 -0.124828 -0.114383
v 0.073079 -0.156101 -0.077926
v 0.075907 -0.156368 -0.070938
v 0.066909 -0.059341 -0.076866
v 0.075950 -0.060323 -0.055377
v 0.065669 0.007610 -0.040366
v 0.061889 0.023112 -0.035315
v 0.055223 0.043503 0.021077
v 0.052588 0.036149 0.036033
v -0.013806 -0.334566 -0.105137
v -0.022360 -0.332976 -0.101189
v -0.016535 -0.340229 -0.109905
v -0.011476 -0.241238 0.024510
v 0.059983 -0.083923 0.057292
v 0.047067 -0.031835 0.079104
v 0.022918 -0.045538 0.102122
v 0.023545 -0.007469 0.108927
v 0.081592 -0.174014 -0.042649
v 0.077564 -0.187375 -0.044140
v 0.109135 -0.336462 -0.094763
v 0.103347 -0.327716 0.012973
v 0.102350 -0.330178 -0.092008
v 0.092703 -0.305431 0.001129
v 0.097473 -0.327172 0.016812
v 0.088605 -0.306506 0.007104
v 0.091001 -0.331515 0.023091
v 0.080678 -0.306328 0.010727
v -0.005918 -0.306289 0.015234
v -0.016136 -0.306288 0.010900
v -0.022846 -0.307117 -0.001267
v -0.022912 -0.305632 -0.078006
v -0.017384 -0.307084 -0.085925
v -0.004756 -0.306776 -0.090571
v 0.002218 -0.054426 -0.125516
v 0.002226 0.009078 -0.117960
v 0.002239 0.043348 -0.103265
v 0.002157 0.089315 -0.061666
v 0.002210 0.104688 -0.009117
v 0.002167 0.099760 0.039370
v 0.002193 0.071747 0.079597
v 0.002158 0.026034 0.108276
v 0.002190 -0.006546 0.112777
v 0.002165 -0.044854 0.105845
v 0.002256 -0.071997 0.095867
v 0.002139 -0.101746 0.084439
v -0.044546 -0.147110 0.070319
v -0.026325 -0.203263 0.042511
v -0.076129 -0.164821 0.064851
v 0.098537 -0.330269 -0.099635
v 0.112336 -0.371523 0.010702
v 0.112451 -0.351585 0.009124
v 0.113328 -0.371523 -0.094211
v 0.112503 -0.348137 -0.093864
v 0.109263 -0.335473 0.011106
v 0.088318 -0.339045 0.030475
v -0.011122 -0.325614 0.022470
v -0.019514 -0.322387 0.016485
v -0.027701 -0.329001 0.005204
v -0.028879 -0.330047 -0.087925
v 0.077812 -0.308947 -0.088969
v 0.084942 -0.308875 -0.087395
v 0.090693 -0.307429 -0.082180
v 0.077564 -0.187375 -0.044140
v 0.077629 -0.189718 -0.021708
v 0.089605 -0.351872 0.032599
v -0.016273 -0.336960 0.027384
v -0.021799 -0.330002 0.018870
v -0.031079 -0.338801 0.011713
v -0.031021 -0.340039 -0.095242
v -0.015433 -0.371523 0.032830
v -0.015015 -0.349156 0.032608
v 0.089664 -0.371523 0.033481
v -0.034409 -0.350279 0.011184
v -0.034005 -0.349073 -0.093649
v -0.035063 -0.371523 0.011091
v -0.034033 -0.371523 -0.094866
v -0.013476 -0.349750 -0.114316
v 0.091356 -0.340096 -0.109448
v 0.093347 -0.333740 -0.104126
v 0.090088 -0.371523 -0.113901
v 0.089548 -0.353383 -0.113642
v -0.014821 -0.371523 -0.113904
v -0.076129 -0.164821 -0.105168
v -0.076129 -0.164821 0.064851
v -0.041432 -0.139477 -0.114204
v -0.044546 -0.147110 0.070319
v 0.002139 -0.101746 0.084439
v 0.002138 -0.108587 -0.121169
v 0.002256 -0.071997 0.095867
v 0.002218 -0.054426 -0.125516
v 0.002165 -0.044854 0.105845
v 0.002226 0.009078 -0.117960
v 0.002190 -0.006546 0.112777
v 0.002239 0.043348 -0.103265
v 0.002158 0.026034 0.108276
v 0.002157 0.089315 -0.061666
v 0.002193 0.071747 0.079597
v 0.002210 0.104688 -0.009117
v 0.002167 0.099760 0.039370
v -0.035063 -0.371523 0.011091
v -0.021799 -0.330002 0.018870
v -0.022407 -0.371523 0.018127
v -0.015433 -0.371523 0.032830
v -0.015015 -0.349156 0.032608
v -0.016273 -0.336960 0.027384
v -0.034409 -0.350279 0.011184
v -0.031079 -0.338801 0.011713
v -0.034005 -0.349073 -0.093649
v -0.034033 -0.371523 -0.094866
v -0.031021 -0.340039 -0.095242
v -0.022360 -0.332976 -0.101189
v -0.022407 -0.371523 -0.101958
v -0.014821 -0.371523 -0.113904
v -0.016535 -0.340229 -0.109905
v -0.013476 -0.349750 -0.114316
v 0.090088 -0.371523 -0.113901
v 0.098537 -0.330269 -0.099635
v 0.089548 -0.353383 -0.113642
v 0.091356 -0.340096 -0.109448
v 0.093347 -0.333740 -0.104126
v 0.097678 -0.371523 -0.101958
v 0.113328 -0.371523 -0.094211
v 0.109135 -0.336462 -0.094763
v 0.112503 -0.348137 -0.093864
v -0.035063 -0.371523 0.011091
v -0.022407 -0.371523 0.018127
v -0.034033 -0.371523 -0.094866
v -0.022407 -0.371523 -0.101958
v 0.097678 -0.371523 0.018127
v 0.097678 -0.371523 -0.101958
v 0.112336 -0.371523 0.010702
v 0.113328 -0.371523 -0.094211
v 0.089664 -0.371523 0.033481
v -0.015433 -0.371523 0.032830
v -0.014821 -0.371523 -0.113904
v 0.090088 -0.371523 -0.113901
vt 0.686702 0.644951
vt 0.688202 0.651331
vt 0.688863 0.644951
vt 0.689322 0.647855
vt 0.688745 0.650201
vt 0.687085 0.651410
vt 0.685257 0.650778
vt 0.682233 0.644951
vt 0.683108 0.649681
vt 0.682490 0.647813
vt 0.707394 0.667837
vt 0.702960 0.664991
vt 0.716184 0.668791
vt 0.714743 0.665564
vt 0.719678 0.670993
vt 0.718006 0.666943
vt 0.722585 0.675054
vt 0.718762 0.666835
vt 0.725215 0.678745
vt 0.727242 0.683243
vt 0.713938 0.662782
vt 0.716363 0.662436
vt 0.693737 0.665202
vt 0.691041 0.666823
vt 0.687317 0.666934
vt 0.678391 0.669443
vt 0.685735 0.662589
vt 0.681198 0.667475
vt 0.691245 0.662121
vt 0.698575 0.664372
vt 0.668586 0.685257
vt 0.686603 0.675847
vt 0.682711 0.672374
vt 0.689442 0.674020
vt 0.691624 0.710366
vt 0.691956 0.705449
vt 0.683465 0.709896
vt 0.703315 0.708615
vt 0.698039 0.704238
vt 0.712254 0.704100
vt 0.727295 0.691283
vt 0.712869 0.700168
vt 0.724603 0.700691
vt 0.720689 0.705287
vt 0.707870 0.711914
vt 0.691777 0.713820
vt 0.683243 0.713223
vt 0.669221 0.709263
vt 0.673519 0.707465
vt 0.661614 0.702681
vt 0.669702 0.701194
vt 0.668007 0.697701
vt 0.676993 0.700590
vt 0.676435 0.696596
vt 0.692029 0.698959
vt 0.683588 0.688358
vt 0.697582 0.690399
vt 0.690291 0.675650
vt 0.698948 0.673381
vt 0.698295 0.671428
vt 0.720208 0.674311
vt 0.714630 0.674829
vt 0.725267 0.680878
vt 0.714657 0.676324
vt 0.712623 0.676285
vt 0.714348 0.690415
vt 0.708094 0.690272
vt 0.703725 0.700165
vt 0.702255 0.702423
vt 0.685843 0.705393
vt 0.680385 0.704929
vt 0.722576 0.650333
vt 0.721427 0.650565
vt 0.723963 0.649509
vt 0.684844 0.663925
vt 0.677723 0.686835
vt 0.668955 0.694421
vt 0.662256 0.692425
vt 0.660276 0.697969
vt 0.704390 0.673715
vt 0.704824 0.671769
vt 0.719557 0.650057
vt 0.688202 0.651331
vt 0.718755 0.650973
vt 0.691649 0.655982
vt 0.687085 0.651410
vt 0.689910 0.655825
vt 0.685257 0.650778
vt 0.688856 0.655851
vt 0.687544 0.655857
vt 0.688805 0.655857
vt 0.692346 0.655736
vt 0.714680 0.655952
vt 0.716984 0.655741
vt 0.718337 0.655786
vt 0.728507 0.691131
vt 0.726308 0.700379
vt 0.722031 0.705370
vt 0.709924 0.712064
vt 0.692205 0.714303
vt 0.682945 0.713585
vt 0.668812 0.709506
vt 0.660465 0.702848
vt 0.659155 0.698104
vt 0.661173 0.692525
vt 0.664077 0.688572
vt 0.667403 0.684240
vt 0.671512 0.677633
vt 0.679605 0.669455
vt 0.673103 0.675054
vt 0.720975 0.650959
vt 0.688863 0.644951
vt 0.689322 0.647855
vt 0.719396 0.644951
vt 0.719295 0.648357
vt 0.688745 0.650201
vt 0.683108 0.649681
vt 0.685438 0.651637
vt 0.687180 0.652107
vt 0.690463 0.651144
vt 0.717567 0.650992
vt 0.717870 0.655470
vt 0.717412 0.655480
vt 0.715895 0.655691
vt 0.704824 0.671769
vt 0.698295 0.671428
vt 0.682490 0.647813
vt 0.684008 0.649985
vt 0.686486 0.650998
vt 0.688569 0.649717
vt 0.719696 0.649536
vt 0.682423 0.644951
vt 0.682487 0.648209
vt 0.682233 0.644951
vt 0.688722 0.648045
vt 0.719232 0.648221
vt 0.688750 0.644951
vt 0.719587 0.644951
vt 0.725247 0.648122
vt 0.723830 0.649528
vt 0.722282 0.650454
vt 0.725126 0.644951
vt 0.725051 0.647593
vt 0.725127 0.644951
vt 0.722585 0.675054
vt 0.725215 0.678745
vt 0.673103 0.675054
vt 0.671512 0.677633
vt 0.667403 0.684240
vt 0.727242 0.683243
vt 0.664077 0.688572
vt 0.728507 0.691131
vt 0.661173 0.692525
vt 0.726308 0.700379
vt 0.659155 0.698104
vt 0.722031 0.705370
vt 0.660465 0.702848
vt 0.709924 0.712064
vt 0.668812 0.709506
vt 0.692205 0.714303
vt 0.682945 0.713585
vt 0.688750 0.644951
vt 0.686486 0.650998
vt 0.686702 0.644951
vt 0.682423 0.644951
vt 0.682487 0.648209
vt 0.684008 0.649985
vt 0.688722 0.648045
vt 0.688569 0.649717
vt 0.719232 0.648221
vt 0.719587 0.644951
vt 0.719696 0.649536
vt 0.721427 0.650565
vt 0.721651 0.644951
vt 0.725127 0.644951
vt 0.723963 0.649509
vt 0.725247 0.648122
vt 0.725126 0.644951
vt 0.720975 0.650959
vt 0.725051 0.647593
vt 0.723830 0.649528
vt 0.722282 0.650454
vt 0.721651 0.644951
vt 0.719396 0.644951
vt 0.719557 0.650057
vt 0.719295 0.648357
vt 0.638133 0.061932
vt 0.668766 0.044899
vt 0.640627 0.318405
vt 0.668766 0.335570
vt 0.959437 0.044899
vt 0.959437 0.335570
vt 0.994917 0.062873
vt 0.997320 0.316820
vt 0.940041 0.007735
vt 0.685649 0.009311
vt 0.687129 0.364486
vt 0.941065 0.364479
vn -0.6912 -0.0659 -0.7196
vn -0.4929 -0.0203 -0.8699
vn -0.4630 -0.0491 -0.8850
vn -0.5093 -0.0558 -0.8588
vn -0.2033 0.0798 -0.9759
vn -0.6098 -0.0263 -0.7922
vn -0.7737 -0.0455 -0.6320
vn -0.9024 -0.0860 -0.4222
vn -0.9233 -0.0732 -0.3769
vn -0.7782 0.0258 0.6275
vn 0.2620 0.8925 0.3673
vn 0.5933 0.7923 0.1424
vn 0.3453 0.7033 0.6214
vn 0.5580 0.6568 0.5072
vn 0.1763 0.4149 0.8926
vn 0.2305 0.3866 0.8930
vn 0.0677 0.2996 0.9517
vn 0.0641 0.1519 0.9863
vn 0.0054 0.2639 0.9645
vn -0.1034 0.1813 0.9780
vn 0.7964 0.4715 0.3787
vn 0.4642 0.1599 0.8712
vn 0.6198 0.7773 0.1081
vn 0.5765 0.8133 0.0783
vn 0.5245 0.8479 -0.0771
vn -0.0329 0.4499 -0.8925
vn 0.3021 0.4539 -0.8383
vn 0.2886 0.7651 -0.5756
vn 0.7791 0.5793 -0.2395
vn -0.8263 -0.5276 -0.1971
vn -0.4488 0.3072 -0.8392
vn -0.8347 0.1572 -0.5278
vn -0.5349 0.1934 -0.8225
vn -0.9109 0.1551 -0.3825
vn -0.8530 -0.5206 0.0367
vn -0.9371 -0.3481 -0.0247
vn -0.8409 -0.4817 -0.2465
vn -0.8498 -0.4690 0.2406
vn -0.9367 -0.3365 0.0965
vn -0.8374 -0.3564 0.4145
vn -0.4861 -0.0671 0.8713
vn -0.8647 -0.2280 0.4475
vn -0.5315 -0.2573 0.8070
vn -0.5006 -0.4871 0.7157
vn -0.4915 -0.7613 0.4230
vn -0.4927 -0.8675 0.0690
vn -0.4717 -0.8260 -0.3084
vn -0.4078 -0.6255 -0.6651
vn -0.8063 -0.4020 -0.4340
vn -0.5031 -0.2988 -0.8109
vn -0.8623 -0.1986 -0.4658
vn -0.8456 -0.0668 -0.5296
vn -0.9282 -0.2062 -0.3097
vn -0.9361 -0.0869 -0.3408
vn -0.9777 -0.1887 -0.0919
vn -0.9581 -0.0451 -0.2827
vn -0.9954 -0.0906 -0.0324
vn -0.9515 0.1219 -0.2824
vn -0.9813 0.1825 -0.0613
vn -0.9476 0.3049 -0.0958
vn -0.4620 0.0687 0.8842
vn -0.8882 -0.0113 0.4593
vn -0.4168 0.1413 0.8979
vn -0.8478 -0.0173 0.5301
vn -0.9618 0.0128 0.2734
vn -0.8520 -0.1211 0.5093
vn -0.9633 -0.1110 0.2446
vn -0.9512 -0.2411 0.1927
vn -0.9290 -0.3264 0.1745
vn -0.9383 -0.2911 -0.1866
vn -0.9283 -0.2517 -0.2737
vn 0.1132 -0.5999 0.7920
vn 0.4948 -0.5427 0.6787
vn 0.0481 -0.5767 0.8156
vn -0.0553 0.2778 -0.9591
vn -0.8065 0.1060 -0.5817
vn -0.8169 0.0550 -0.5742
vn -0.4557 0.2369 -0.8580
vn -0.4925 0.0010 -0.8703
vn -0.9770 0.1396 0.1611
vn -0.9549 0.2561 0.1504
vn -0.8211 -0.5661 0.0735
vn -0.7684 -0.5902 -0.2473
vn -0.7049 -0.6794 0.2037
vn -0.8930 -0.3518 -0.2808
vn -0.4459 -0.5490 -0.7070
vn -0.5985 -0.3637 -0.7138
vn -0.1487 -0.5714 -0.8071
vn -0.2474 -0.2386 -0.9391
vn 0.1694 -0.1244 -0.9777
vn 0.6686 -0.0805 -0.7393
vn 0.9711 -0.0151 -0.2380
vn 0.9560 -0.0660 0.2857
vn 0.5736 -0.2572 0.7777
vn 0.1551 -0.2436 0.9574
vn -0.1464 -0.0176 0.9891
vn -0.1946 -0.2553 0.9471
vn -0.1836 -0.5259 0.8305
vn -0.2153 -0.8150 0.5380
vn -0.1556 -0.9831 0.0964
vn -0.1379 -0.9281 -0.3459
vn -0.1388 -0.6845 -0.7157
vn -0.1948 -0.3271 -0.9247
vn -0.1801 0.0125 -0.9836
vn -0.1624 0.2550 -0.9532
vn -0.2009 0.3611 -0.9106
vn -0.2127 0.4011 -0.8910
vn -0.1441 0.4218 -0.8951
vn -0.1454 0.3873 -0.9104
vn -0.0839 0.4172 -0.9049
vn -0.4818 -0.6800 0.5526
vn -0.9999 0.0050 -0.0095
vn -0.9953 -0.0965 -0.0077
vn -0.9995 -0.0303 -0.0026
vn -0.9875 -0.1578 0.0006
vn -0.9003 -0.4353 0.0009
vn -0.0040 -0.4439 -0.8961
vn 0.2160 -0.4275 -0.8778
vn 0.6432 -0.4012 -0.6522
vn 0.9205 -0.3510 -0.1714
vn 0.9196 -0.3231 0.2232
vn -0.1051 -0.2715 0.9567
vn -0.4166 -0.3568 0.8361
vn -0.8469 -0.3495 0.4007
vn -0.9929 -0.1164 0.0246
vn -0.9936 -0.1097 -0.0255
vn 0.0102 -0.1099 -0.9939
vn 0.1297 -0.4356 -0.8907
vn 0.6189 -0.4332 -0.6553
vn 0.9273 -0.3559 -0.1155
vn 0.9146 -0.3670 0.1695
vn 0.0062 -0.0100 -0.9999
vn -0.0029 -0.2159 -0.9764
vn -0.0003 -0.0402 -0.9992
vn 0.9874 -0.1580 0.0035
vn 0.9858 -0.1678 0.0044
vn 0.9996 -0.0269 0.0043
vn 1.0000 -0.0018 0.0097
vn -0.0051 -0.2200 0.9755
vn -0.0085 -0.5028 0.8644
vn -0.0865 -0.6016 0.7941
vn -0.0000 -0.0143 0.9999
vn -0.0090 -0.1576 0.9875
vn -0.0052 0.0155 0.9999
vn 0.5898 -0.8075 0.0000
vn 0.5920 -0.8059 0.0089
vn 0.5063 -0.8620 -0.0239
vn 0.6105 -0.7917 -0.0224
vn 0.9456 -0.3253 -0.0039
vn 0.9004 -0.4347 0.0143
vn 1.0000 0.0005 0.0001
vn 1.0000 -0.0007 -0.0000
vn 1.0000 0.0010 0.0001
vn 1.0000 -0.0003 0.0002
vn 1.0000 0.0001 0.0003
vn 1.0000 0.0002 0.0003
vn 1.0000 0.0006 0.0003
vn 1.0000 -0.0007 -0.0002
vn 1.0000 -0.0014 -0.0003
vn 1.0000 0.0026 0.0011
vn 0.4965 0.0040 -0.8680
vn 0.7395 -0.0662 -0.6699
vn 0.7265 0.0017 -0.6872
vn 0.8994 -0.0091 -0.4371
vn 0.8729 -0.0396 -0.4863
vn 0.7397 -0.1990 -0.6428
vn 0.5588 -0.0334 -0.8287
vn 0.6980 -0.1705 -0.6955
vn 0.5732 -0.0451 0.8182
vn 0.5356 -0.0241 0.8441
vn 0.5892 -0.0467 0.8066
vn 0.7080 -0.0302 0.7056
vn 0.7020 -0.0151 0.7120
vn 0.8342 -0.0169 0.5513
vn 0.8150 -0.0293 0.5787
vn 0.7825 -0.0366 0.6216
vn -0.8373 -0.0175 0.5465
vn -0.5846 -0.1128 0.8035
vn -0.8094 -0.0402 0.5858
vn -0.7220 -0.1474 0.6760
vn -0.2996 -0.5556 0.7756
vn -0.6750 -0.0275 0.7373
vn -0.4363 -0.0398 0.8989
vn -0.4288 -0.0371 0.9026
vn -0.3408 -0.0260 0.9398
vn -0.0000 1.0000 0.0000
usemtl Tex_0034_0_dds
s 1
f 1/1/1 2/2/2 3/3/3
f 3/3/3 2/2/2 4/4/4
f 2/2/2 5/5/5 4/4/4
f 2/2/2 1/1/1 6/6/6
f 6/6/6 1/1/1 7/7/7
f 1/1/1 8/8/8 7/7/7
f 7/7/7 8/8/8 9/9/9
f 8/8/8 10/10/10 9/9/9
f 14/11/11 15/12/12 13/13/13
f 15/12/12 16/14/14 13/13/13
f 13/13/13 16/14/14 12/15/15
f 16/14/14 17/16/16 12/15/15
f 12/15/15 17/16/16 11/17/17
f 17/16/16 18/18/18 11/17/17
f 11/17/17 18/18/18 19/19/19
f 18/18/18 20/20/20 19/19/19
f 16/14/14 15/12/12 21/21/21
f 21/21/21 22/22/22 16/14/14
f 16/14/14 22/22/22 17/16/16
f 22/22/22 18/18/18 17/16/16
f 23/23/23 24/24/24 25/25/25
f 27/26/26 28/27/27 26/28/28
f 26/28/28 28/27/27 25/25/25
f 28/27/27 29/29/29 25/25/25
f 25/25/25 29/29/29 23/23/23
f 29/29/29 21/21/21 23/23/23
f 23/23/23 21/21/21 30/30/30
f 21/21/21 15/12/12 30/30/30
f 31/31/31 32/32/32 33/33/33
f 33/33/33 32/32/32 34/34/34
f 35/35/35 36/36/36 37/37/37
f 35/35/35 38/38/38 36/36/36
f 36/36/36 38/38/38 39/39/39
f 38/38/38 40/40/40 39/39/39
f 41/41/41 42/42/42 43/43/43
f 43/43/43 42/42/42 44/44/44
f 42/42/42 40/40/40 44/44/44
f 44/44/44 40/40/40 45/45/45
f 40/40/40 38/38/38 45/45/45
f 45/45/45 38/38/38 46/46/46
f 38/38/38 35/35/35 46/46/46
f 46/46/46 35/35/35 47/47/47
f 35/35/35 37/37/37 47/47/47
f 47/47/47 37/37/37 48/48/48
f 37/37/37 49/49/49 48/48/48
f 48/48/48 49/49/49 50/50/50
f 49/49/49 51/51/51 50/50/50
f 50/50/50 51/51/51 52/52/52
f 51/51/51 53/53/53 52/52/52
f 52/52/52 53/53/53 54/54/54
f 53/53/53 55/55/55 54/54/54
f 54/54/54 55/55/55 56/56/56
f 55/55/55 57/57/57 56/56/56
f 56/56/56 57/57/57 58/58/58
f 57/57/57 59/59/59 58/58/58
f 58/58/58 59/59/59 34/34/34
f 59/59/59 60/60/60 34/34/34
f 61/61/61 62/62/62 63/63/63
f 63/63/63 62/62/62 64/64/64
f 62/62/62 65/65/65 64/64/64
f 64/64/64 65/65/65 66/66/66
f 65/65/65 67/67/67 66/66/66
f 66/66/66 67/67/67 42/42/42
f 67/67/67 68/68/68 42/42/42
f 42/42/42 68/68/68 40/40/40
f 68/68/68 69/69/69 40/40/40
f 40/40/40 69/69/69 39/39/39
f 69/69/69 55/55/55 39/39/39
f 39/39/39 55/55/55 36/36/36
f 55/55/55 70/70/70 36/36/36
f 36/36/36 70/70/70 37/37/37
f 70/70/70 71/71/71 37/37/37
f 37/37/37 71/71/71 49/49/49
f 71/71/71 51/51/51 49/49/49
f 72/72/72 73/73/73 74/74/74
f 27/26/26 75/75/75 28/27/27
f 34/34/34 32/32/32 58/58/58
f 58/58/58 32/32/32 76/76/76
f 32/32/32 31/31/31 76/76/76
f 76/76/76 31/31/31 77/77/77
f 31/31/31 78/78/78 77/77/77
f 77/77/77 78/78/78 79/79/79
f 58/58/58 76/76/76 56/56/56
f 56/56/56 76/76/76 54/54/54
f 76/76/76 77/77/77 54/54/54
f 54/54/54 77/77/77 52/52/52
f 77/77/77 79/79/79 52/52/52
f 52/52/52 79/79/79 50/50/50
f 51/51/51 71/71/71 53/53/53
f 53/53/53 71/71/71 55/55/55
f 71/71/71 70/70/70 55/55/55
f 57/57/57 55/55/55 68/68/68
f 68/68/68 55/55/55 69/69/69
f 60/60/60 80/80/80 81/81/81
f 81/81/81 80/80/80 65/65/65
f 80/80/80 57/57/57 65/65/65
f 65/65/65 57/57/57 67/67/67
f 57/57/57 68/68/68 67/67/67
f 60/60/60 59/59/59 80/80/80
f 80/80/80 59/59/59 57/57/57
f 65/65/65 62/62/62 81/81/81
f 64/64/64 66/66/66 63/63/63
f 63/63/63 66/66/66 41/41/41
f 66/66/66 42/42/42 41/41/41
f 82/82/82 83/83/83 84/84/84
f 84/84/84 83/83/83 85/85/85
f 83/83/83 86/86/86 85/85/85
f 85/85/85 86/86/86 87/87/87
f 86/86/86 88/88/88 87/87/87
f 87/87/87 88/88/88 89/89/89
f 88/88/88 90/90/90 89/89/89
f 89/89/89 90/90/90 75/75/75
f 90/90/90 91/91/91 75/75/75
f 75/75/75 91/91/91 28/27/27
f 91/91/91 92/92/92 28/27/27
f 28/27/27 92/92/92 29/29/29
f 92/92/92 93/93/93 29/29/29
f 29/29/29 93/93/93 21/21/21
f 93/93/93 94/94/94 21/21/21
f 21/21/21 94/94/94 22/22/22
f 94/94/94 95/95/95 22/22/22
f 22/22/22 95/95/95 18/18/18
f 95/95/95 61/61/61 18/18/18
f 18/18/18 61/61/61 20/20/20
f 61/61/61 63/63/63 20/20/20
f 20/20/20 63/63/63 96/96/96
f 63/63/63 41/41/41 96/96/96
f 96/96/96 41/41/41 97/97/97
f 41/41/41 43/43/43 97/97/97
f 97/97/97 43/43/43 98/98/98
f 43/43/43 44/44/44 98/98/98
f 98/98/98 44/44/44 99/99/99
f 44/44/44 45/45/45 99/99/99
f 99/99/99 45/45/45 100/100/100
f 45/45/45 46/46/46 100/100/100
f 100/100/100 46/46/46 101/101/101
f 46/46/46 47/47/47 101/101/101
f 101/101/101 47/47/47 102/102/102
f 47/47/47 48/48/48 102/102/102
f 102/102/102 48/48/48 103/103/103
f 48/48/48 50/50/50 103/103/103
f 103/103/103 50/50/50 104/104/104
f 50/50/50 79/79/79 104/104/104
f 104/104/104 79/79/79 105/105/105
f 79/79/79 78/78/78 105/105/105
f 105/105/105 78/78/78 106/106/106
f 78/78/78 31/31/31 106/106/106
f 106/106/106 31/31/31 107/107/107
f 31/31/31 33/33/33 107/107/107
f 107/107/107 33/33/33 108/108/108
f 33/33/33 109/109/109 108/108/108
f 108/108/108 109/109/109 110/110/110
f 109/109/109 27/26/26 110/110/110
f 84/84/84 111/111/111 82/82/82
f 112/112/112 113/113/113 114/114/114
f 114/114/114 113/113/113 115/115/115
f 113/113/113 116/116/116 115/115/115
f 115/115/115 116/116/116 82/82/82
f 116/116/116 83/83/83 82/82/82
f 117/117/117 118/118/118 88/88/88
f 88/88/88 118/118/118 90/90/90
f 118/118/118 119/119/119 90/90/90
f 90/90/90 119/119/119 91/91/91
f 119/119/119 120/120/120 91/91/91
f 91/91/91 120/120/120 92/92/92
f 120/120/120 121/121/121 92/92/92
f 92/92/92 121/121/121 93/93/93
f 121/121/121 73/73/73 93/93/93
f 93/93/93 73/73/73 94/94/94
f 73/73/73 72/72/72 94/94/94
f 94/94/94 72/72/72 95/95/95
f 72/72/72 122/122/122 95/95/95
f 95/95/95 122/122/122 61/61/61
f 122/122/122 123/123/123 61/61/61
f 61/61/61 123/123/123 62/62/62
f 123/123/123 124/124/124 62/62/62
f 62/62/62 124/124/124 125/125/125
f 124/124/124 126/126/126 125/125/125
f 127/127/127 128/128/128 117/117/117
f 117/117/117 128/128/128 118/118/118
f 128/128/128 129/129/129 118/118/118
f 118/118/118 129/129/129 119/119/119
f 129/129/129 130/130/130 119/119/119
f 119/119/119 130/130/130 120/120/120
f 130/130/130 131/131/131 120/120/120
f 120/120/120 131/131/131 121/121/121
f 131/131/131 73/73/73 121/121/121
f 132/132/132 133/133/133 134/134/134
f 134/134/134 133/133/133 127/127/127
f 133/133/133 128/128/128 127/127/127
f 130/130/130 135/135/135 131/131/131
f 131/131/131 135/135/135 136/136/136
f 135/135/135 137/137/137 136/136/136
f 136/136/136 137/137/137 138/138/138
f 139/139/139 140/140/140 74/74/74
f 74/74/74 140/140/140 72/72/72
f 140/140/140 141/141/141 72/72/72
f 72/72/72 141/141/141 122/122/122
f 141/141/141 111/111/111 122/122/122
f 122/122/122 111/111/111 123/123/123
f 111/111/111 84/84/84 123/123/123
f 123/123/123 84/84/84 124/124/124
f 84/84/84 85/85/85 124/124/124
f 124/124/124 85/85/85 126/126/126
f 85/85/85 87/87/87 126/126/126
f 126/126/126 87/87/87 34/34/34
f 87/87/87 89/89/89 34/34/34
f 34/34/34 89/89/89 33/33/33
f 89/89/89 75/75/75 33/33/33
f 33/33/33 75/75/75 109/109/109
f 75/75/75 27/26/26 109/109/109
f 142/142/142 143/143/143 144/144/144
f 144/144/144 143/143/143 139/139/139
f 143/143/143 140/140/140 139/139/139
f 145/145/145 147/146/146 146/147/147
f 146/147/147 147/146/146 148/148/148
f 148/148/148 147/146/146 149/149/149
f 147/146/146 150/150/150 149/149/149
f 149/149/149 150/150/150 151/151/151
f 150/150/150 152/152/152 151/151/151
f 151/151/151 152/152/152 153/153/153
f 152/152/152 154/154/154 153/153/153
f 153/153/153 154/154/154 155/155/155
f 154/154/154 156/156/156 155/155/155
f 155/155/155 156/156/156 157/157/157
f 156/156/156 158/158/157 157/157/157
f 157/157/157 158/158/157 159/159/158
f 158/158/157 160/160/159 159/159/158
f 159/159/158 160/160/159 161/161/160
f 162/162/161 163/163/162 164/164/163
f 164/164/163 163/163/162 165/165/164
f 163/163/162 166/166/165 165/165/164
f 167/167/166 166/166/165 163/163/162
f 162/162/161 168/168/167 163/163/162
f 163/163/162 168/168/167 169/169/168
f 170/170/169 171/171/170 172/172/171
f 172/172/171 171/171/170 173/173/172
f 171/171/170 174/174/173 173/173/172
f 173/173/172 174/174/173 175/175/174
f 173/173/172 175/175/174 176/176/175
f 176/176/175 175/175/174 177/177/176
f 178/178/177 179/179/178 180/180/179
f 180/180/179 179/179/178 181/181/180
f 179/179/178 182/182/181 181/181/180
f 179/179/178 178/178/177 183/183/182
f 183/183/182 184/184/183 179/179/178
f 179/179/178 184/184/183 185/185/184
f 184/184/183 186/186/185 185/185/184
f 187/187/186 188/188/186 189/189/186
f 189/189/186 188/188/186 190/190/186
f 188/188/186 191/191/186 190/190/186
f 190/190/186 191/191/186 192/192/186
f 191/191/186 193/193/186 192/192/186
f 192/192/186 193/193/186 194/194/186
f 191/191/186 188/188/186 195/195/186
f 195/195/186 188/188/186 196/196/186
f 190/190/186 192/192/186 197/197/186
f 197/197/186 192/192/186 198/198/186
