# Blender v2.93.0 OBJ File: ''
# www.blender.org
mtllib Lamp1.mtl
o Mesh_0151.001_Mesh_0151Mesh.001
v -0.053154 0.109886 0.017183
v -0.036989 0.109886 0.023879
v -0.053154 0.094646 0.017183
v -0.036989 0.094646 0.023879
v -0.020825 0.109886 0.017183
v -0.020825 0.094646 0.017183
v -0.014129 0.109886 0.001019
v -0.014129 0.094646 0.001019
v -0.020825 0.109886 -0.015146
v -0.020825 0.094646 -0.015146
v -0.036989 0.109886 -0.021841
v -0.036989 0.094646 -0.021841
v -0.053154 0.109886 -0.015146
v -0.053154 0.094646 -0.015146
v -0.059849 0.109886 0.001019
v -0.059849 0.094646 0.001019
v -0.010049 0.022256 0.027960
v 0.001111 0.022256 0.001019
v -0.015437 0.022256 0.022571
v -0.006509 0.022256 0.001019
v -0.010048 0.022256 -0.025922
v -0.015436 0.022256 -0.020534
v -0.036989 0.022256 -0.037081
v -0.036989 0.022256 -0.029461
v -0.063930 0.022256 -0.025922
v -0.058542 0.022256 -0.020534
v -0.075089 0.022256 0.001019
v -0.067469 0.022256 0.001019
v -0.063930 0.022256 0.027960
v -0.058542 0.022256 0.022571
v -0.036989 0.022256 0.039119
v -0.036989 0.022256 0.031499
v -0.015437 0.003206 0.022571
v -0.036989 0.003206 0.031499
v -0.015437 0.022256 0.022571
v -0.036989 0.022256 0.031499
v -0.058542 0.003206 0.022571
v -0.058542 0.022256 0.022571
v -0.067469 0.003206 0.001019
v -0.067469 0.022256 0.001019
v -0.058542 0.003206 -0.020534
v -0.058542 0.022256 -0.020534
v -0.036989 0.003206 -0.029461
v -0.036989 0.022256 -0.029461
v -0.015436 0.003206 -0.020534
v -0.015436 0.022256 -0.020534
v -0.006509 0.003206 0.001019
v -0.006509 0.022256 0.001019
v -0.010049 0.022256 0.027960
v -0.036989 0.022256 0.039119
v -0.020825 0.094646 0.017183
v -0.036989 0.094646 0.023879
v -0.063930 0.022256 0.027960
v -0.053154 0.094646 0.017183
v -0.075089 0.022256 0.001019
v -0.059849 0.094646 0.001019
v -0.063930 0.022256 -0.025922
v -0.053154 0.094646 -0.015146
v -0.036989 0.022256 -0.037081
v -0.036989 0.094646 -0.021841
v -0.010048 0.022256 -0.025922
v -0.020825 0.094646 -0.015146
v 0.001111 0.022256 0.001019
v -0.014129 0.094646 0.001019
v -0.036989 0.109886 -0.021841
v -0.020825 0.109886 -0.015146
v -0.053154 0.109886 -0.015146
v -0.059849 0.109886 0.001019
v -0.014129 0.109886 0.001019
v -0.053154 0.109886 0.017183
v -0.020825 0.109886 0.017183
v -0.036989 0.109886 0.023879
v -0.015437 0.003206 0.022571
v -0.006509 0.003206 0.001019
v -0.036989 0.003206 0.031499
v -0.058542 0.003206 0.022571
v -0.015436 0.003206 -0.020534
v -0.067469 0.003206 0.001019
v -0.036989 0.003206 -0.029461
v -0.058542 0.003206 -0.020534
vt 0.287868 0.712132
vt 0.500000 0.800000
vt 0.287868 0.712132
vt 0.500000 0.800000
vt 0.712132 0.712132
vt 0.712132 0.712132
vt 0.800001 0.500000
vt 0.800001 0.500000
vt 0.712132 0.287868
vt 0.712132 0.287868
vt 0.500000 0.200000
vt 0.500000 0.200000
vt 0.287868 0.287868
vt 0.287868 0.287868
vt 0.200001 0.500000
vt 0.200001 0.500000
vt 0.853553 0.853554
vt 1.000000 0.500000
vt 0.782842 0.782843
vt 0.900001 0.500000
vt 0.853554 0.146447
vt 0.782844 0.217157
vt 0.500000 0.000000
vt 0.500000 0.100000
vt 0.146447 0.146447
vt 0.217158 0.217157
vt 0.000000 0.500000
vt 0.100000 0.500000
vt 0.146447 0.853553
vt 0.217158 0.782843
vt 0.500000 1.000000
vt 0.500000 0.900000
vt 0.782842 0.782843
vt 0.500000 0.900000
vt 0.782842 0.782843
vt 0.500000 0.900000
vt 0.217158 0.782843
vt 0.217158 0.782843
vt 0.100000 0.500000
vt 0.100000 0.500000
vt 0.217158 0.217157
vt 0.217158 0.217157
vt 0.500000 0.100000
vt 0.500000 0.100000
vt 0.782844 0.217157
vt 0.782844 0.217157
vt 0.900001 0.500000
vt 0.900001 0.500000
vt 0.853553 0.853554
vt 0.500000 1.000000
vt 0.712132 0.712132
vt 0.500000 0.800000
vt 0.146447 0.853553
vt 0.287868 0.712132
vt 0.000000 0.500000
vt 0.200001 0.500000
vt 0.146447 0.146447
vt 0.287868 0.287868
vt 0.500000 0.000000
vt 0.500000 0.200000
vt 0.853554 0.146447
vt 0.712132 0.287868
vt 1.000000 0.500000
vt 0.800001 0.500000
vt 0.500000 0.000000
vt 0.853552 0.146447
vt 0.146447 0.146447
vt 0.000001 0.500000
vt 1.000001 0.500000
vt 0.146447 0.853553
vt 0.853552 0.853554
vt 0.500000 1.000000
vt 0.782842 0.782843
vt 0.900001 0.500000
vt 0.500000 0.900000
vt 0.217158 0.782843
vt 0.782844 0.217157
vt 0.100000 0.500000
vt 0.500000 0.100000
vt 0.217158 0.217157
vn 0.7071 0.0000 -0.7071
vn -0.0000 0.0000 -1.0000
vn -0.7071 0.0000 -0.7071
vn -1.0000 -0.0000 -0.0000
vn -0.7071 -0.0000 0.7071
vn -0.0000 -0.0000 1.0000
vn 0.7071 -0.0000 0.7071
vn 1.0000 0.0000 -0.0000
vn -0.0000 1.0000 0.0000
vn -0.6919 -0.2060 -0.6919
vn -0.0000 -0.2060 -0.9785
vn 0.6919 -0.2060 -0.6919
vn 0.9786 -0.2060 -0.0000
vn 0.6919 -0.2060 0.6919
vn -0.0000 -0.2060 0.9786
vn -0.6919 -0.2060 0.6919
vn -0.9785 -0.2060 -0.0000
vn 0.0000 -1.0000 0.0000
usemtl mug
s 1
f 1/1/1 2/2/2 3/3/1
f 3/3/1 2/2/2 4/4/2
f 2/2/2 5/5/3 4/4/2
f 4/4/2 5/5/3 6/6/3
f 5/5/3 7/7/4 6/6/3
f 6/6/3 7/7/4 8/8/4
f 7/7/4 9/9/5 8/8/4
f 8/8/4 9/9/5 10/10/5
f 9/9/5 11/11/6 10/10/5
f 10/10/5 11/11/6 12/12/6
f 11/11/6 13/13/7 12/12/6
f 12/12/6 13/13/7 14/14/7
f 13/13/7 15/15/8 14/14/7
f 14/14/7 15/15/8 16/16/8
f 15/15/8 1/1/1 16/16/8
f 16/16/8 1/1/1 3/3/1
f 17/17/9 18/18/9 19/19/9
f 19/19/9 18/18/9 20/20/9
f 18/18/9 21/21/9 20/20/9
f 20/20/9 21/21/9 22/22/9
f 21/21/9 23/23/9 22/22/9
f 22/22/9 23/23/9 24/24/9
f 23/23/9 25/25/9 24/24/9
f 24/24/9 25/25/9 26/26/9
f 25/25/9 27/27/9 26/26/9
f 26/26/9 27/27/9 28/28/9
f 27/27/9 29/29/9 28/28/9
f 28/28/9 29/29/9 30/30/9
f 29/29/9 31/31/9 30/30/9
f 30/30/9 31/31/9 32/32/9
f 31/31/9 17/17/9 32/32/9
f 32/32/9 17/17/9 19/19/9
f 33/33/3 34/34/2 35/35/3
f 35/35/3 34/34/2 36/36/2
f 34/34/2 37/37/1 36/36/2
f 36/36/2 37/37/1 38/38/1
f 37/37/1 39/39/8 38/38/1
f 38/38/1 39/39/8 40/40/8
f 39/39/8 41/41/7 40/40/8
f 40/40/8 41/41/7 42/42/7
f 41/41/7 43/43/6 42/42/7
f 42/42/7 43/43/6 44/44/6
f 43/43/6 45/45/5 44/44/6
f 44/44/6 45/45/5 46/46/5
f 45/45/5 47/47/4 46/46/5
f 46/46/5 47/47/4 48/48/4
f 47/47/4 33/33/3 48/48/4
f 48/48/4 33/33/3 35/35/3
f 49/49/10 50/50/11 51/51/10
f 51/51/10 50/50/11 52/52/11
f 50/50/11 53/53/12 52/52/11
f 52/52/11 53/53/12 54/54/12
f 53/53/12 55/55/13 54/54/12
f 54/54/12 55/55/13 56/56/13
f 55/55/13 57/57/14 56/56/13
f 56/56/13 57/57/14 58/58/14
f 57/57/14 59/59/15 58/58/14
f 58/58/14 59/59/15 60/60/15
f 59/59/15 61/61/16 60/60/15
f 60/60/15 61/61/16 62/62/16
f 61/61/16 63/63/17 62/62/16
f 62/62/16 63/63/17 64/64/17
f 63/63/17 49/49/10 64/64/17
f 64/64/17 49/49/10 51/51/10
f 65/65/18 66/66/18 67/67/18
f 67/67/18 66/66/18 68/68/18
f 66/66/18 69/69/18 68/68/18
f 68/68/18 69/69/18 70/70/18
f 69/69/18 71/71/18 70/70/18
f 70/70/18 71/71/18 72/72/18
f 73/73/9 74/74/9 75/75/9
f 75/75/9 74/74/9 76/76/9
f 74/74/9 77/77/9 76/76/9
f 76/76/9 77/77/9 78/78/9
f 77/77/9 79/79/9 78/78/9
f 78/78/9 79/79/9 80/80/9
