# Blender v2.93.0 OBJ File: ''
# www.blender.org
mtllib Stool.mtl
o Mesh_0017_Mesh_0017Mesh
v -0.074728 0.094109 -0.057290
v -0.074728 0.110001 -0.057290
v -0.086350 0.094109 -0.039890
v -0.086350 0.125894 -0.039890
v -0.066013 0.110001 -0.070327
v -0.066013 0.125894 -0.070327
v -0.052973 0.110001 -0.079042
v -0.035576 0.125894 -0.090664
v -0.052973 0.094109 -0.079042
v -0.035576 0.094109 -0.090664
v 0.000327 0.094109 -0.097806
v 0.000327 0.125894 -0.097806
v 0.036230 0.094109 -0.090664
v 0.036230 0.125894 -0.090664
v 0.087005 0.094109 -0.039890
v 0.094147 0.094109 -0.003987
v 0.087005 0.125894 -0.039890
v 0.094147 0.125894 -0.003987
v 0.087005 0.094109 0.031917
v 0.087005 0.125894 0.031917
v 0.075383 0.094109 0.049317
v 0.075383 0.110001 0.049317
v 0.066668 0.110001 0.062354
v 0.066668 0.125894 0.062354
v 0.053631 0.110001 0.071069
v 0.036230 0.125894 0.082691
v 0.053631 0.094109 0.071069
v 0.036230 0.094109 0.082691
v 0.000327 0.094109 0.089833
v 0.000327 0.125894 0.089833
v -0.035576 0.094109 0.082691
v -0.035576 0.125894 0.082691
v -0.050794 0.094109 0.071069
v -0.050794 0.110001 0.071069
v -0.093492 0.125894 -0.003987
v -0.093492 0.094109 -0.003987
v -0.086350 0.125894 0.031916
v -0.086350 0.094109 0.031916
v -0.074728 0.110001 0.049317
v -0.074728 0.094109 0.049317
v 0.053631 0.094109 -0.079042
v 0.053631 0.110001 -0.079042
v 0.066668 0.110001 -0.070327
v 0.066668 0.125894 -0.070327
v 0.075383 0.110001 -0.057290
v 0.075383 0.094109 -0.057290
v -0.066013 0.125894 0.062354
v -0.066013 0.110001 0.062354
v -0.035576 0.125894 0.082691
v -0.066013 0.125894 0.062354
v 0.000327 0.125894 0.089833
v 0.036230 0.125894 0.082691
v -0.086350 0.125894 0.031916
v 0.066668 0.125894 0.062354
v -0.093492 0.125894 -0.003987
v 0.087005 0.125894 0.031917
v -0.086350 0.125894 -0.039890
v 0.094147 0.125894 -0.003987
v -0.066013 0.125894 -0.070327
v 0.087005 0.125894 -0.039890
v -0.035576 0.125894 -0.090664
v 0.066668 0.125894 -0.070327
v 0.000327 0.125894 -0.097806
v 0.036230 0.125894 -0.090664
v -0.000248 0.002467 0.063805
v -0.024684 0.002467 0.058945
v -0.000248 0.033947 0.063805
v -0.024684 0.033947 0.058945
v -0.045400 0.002467 0.045103
v -0.045400 0.033947 0.045103
v -0.059242 0.002467 0.024387
v -0.059242 0.033947 0.024387
v -0.064102 0.002467 -0.000048
v -0.064102 0.033947 -0.000048
v -0.059242 0.002467 -0.024484
v -0.059242 0.033947 -0.024484
v -0.045400 0.002467 -0.045200
v -0.045400 0.033947 -0.045200
v -0.024684 0.002467 -0.059042
v -0.024684 0.033947 -0.059042
v -0.000248 0.002467 -0.063902
v -0.000248 0.033947 -0.063902
v 0.024187 0.002467 -0.059042
v 0.024187 0.033947 -0.059042
v 0.044903 0.002467 -0.045200
v 0.044903 0.033947 -0.045200
v 0.058745 0.002467 -0.024484
v 0.058745 0.033947 -0.024484
v 0.063605 0.002467 -0.000048
v 0.063605 0.033947 -0.000048
v 0.058745 0.002467 0.024387
v 0.058745 0.033947 0.024387
v 0.044903 0.002467 0.045103
v 0.044903 0.033947 0.045103
v 0.024187 0.002467 0.058945
v 0.024187 0.033947 0.058945
v -0.000248 0.002467 0.063805
v -0.000248 0.033947 0.063805
v -0.000248 0.075921 0.018196
v 0.006733 0.075921 0.016807
v -0.000248 0.044441 0.036439
v 0.013715 0.044441 0.033662
v 0.012652 0.075921 0.012852
v 0.025552 0.044441 0.025752
v 0.016607 0.075921 0.006933
v 0.033462 0.044441 0.013915
v 0.017996 0.075921 -0.000048
v 0.036239 0.044441 -0.000048
v 0.016607 0.075921 -0.007030
v 0.033462 0.044441 -0.014012
v 0.012652 0.075921 -0.012949
v 0.025552 0.044441 -0.025849
v 0.006733 0.075921 -0.016904
v 0.013715 0.044441 -0.033759
v -0.000248 0.075921 -0.018292
v -0.000248 0.044441 -0.036536
v -0.007230 0.075921 -0.016904
v -0.014212 0.044441 -0.033759
v -0.013149 0.075921 -0.012949
v -0.026049 0.044441 -0.025849
v -0.017104 0.075921 -0.007030
v -0.033959 0.044441 -0.014012
v -0.018492 0.075921 -0.000048
v -0.036736 0.044441 -0.000048
v -0.017104 0.075921 0.006933
v -0.033959 0.044441 0.013915
v -0.013149 0.075921 0.012852
v -0.026049 0.044441 0.025752
v -0.007230 0.075921 0.016807
v -0.014212 0.044441 0.033662
v -0.000248 0.075921 0.018196
v -0.000248 0.044441 0.036439
v -0.000248 0.117895 0.013635
v 0.004988 0.117895 0.012593
v 0.009427 0.117895 0.009627
v 0.012393 0.117895 0.005188
v 0.013435 0.117895 -0.000048
v 0.012393 0.117895 -0.005285
v 0.009427 0.117895 -0.009724
v 0.004988 0.117895 -0.012690
v -0.000248 0.117895 -0.013731
v -0.005485 0.117895 -0.012690
v -0.009924 0.117895 -0.009724
v -0.012890 0.117895 -0.005285
v -0.013931 0.117895 -0.000048
v -0.012890 0.117895 0.005188
v -0.009924 0.117895 0.009627
v -0.005485 0.117895 0.012593
v -0.000248 0.117895 0.013635
v -0.000248 0.033947 0.063805
v 0.024187 0.033947 0.058945
v 0.044903 0.033947 0.045103
v 0.058745 0.033947 0.024387
v 0.063605 0.033947 -0.000048
v 0.058745 0.033947 -0.024484
v 0.044903 0.033947 -0.045200
v 0.024187 0.033947 -0.059042
v -0.000248 0.033947 -0.063902
v -0.024684 0.033947 -0.059042
v -0.045400 0.033947 -0.045200
v -0.059242 0.033947 -0.024484
v -0.064102 0.033947 -0.000048
v -0.059242 0.033947 0.024387
v -0.045400 0.033947 0.045103
v -0.024684 0.033947 0.058945
v -0.000248 0.033947 0.063805
vt 0.734527 0.881429
vt 0.734527 0.881429
vt 0.762344 0.839782
vt 0.762344 0.839782
vt 0.713668 0.912632
vt 0.713668 0.912632
vt 0.682457 0.933491
vt 0.640818 0.961308
vt 0.682457 0.933491
vt 0.640818 0.961308
vt 0.554887 0.978401
vt 0.554887 0.978401
vt 0.468955 0.961309
vt 0.468955 0.961309
vt 0.347429 0.839783
vt 0.330336 0.753851
vt 0.347429 0.839783
vt 0.330336 0.753851
vt 0.347429 0.667919
vt 0.347429 0.667919
vt 0.375246 0.626273
vt 0.375246 0.626273
vt 0.396106 0.595070
vt 0.396106 0.595070
vt 0.427308 0.574211
vt 0.468955 0.546394
vt 0.427308 0.574211
vt 0.468955 0.546394
vt 0.554887 0.529301
vt 0.554887 0.529301
vt 0.640818 0.546393
vt 0.640818 0.546393
vt 0.677243 0.574211
vt 0.677243 0.574211
vt 0.779437 0.753851
vt 0.779437 0.753851
vt 0.762344 0.667919
vt 0.762344 0.667919
vt 0.734527 0.626273
vt 0.734527 0.626273
vt 0.427309 0.933491
vt 0.427309 0.933491
vt 0.396106 0.912632
vt 0.396106 0.912632
vt 0.375246 0.881429
vt 0.375246 0.881429
vt 0.713668 0.595070
vt 0.713668 0.595070
vt 0.640818 0.546393
vt 0.713668 0.595070
vt 0.554887 0.529301
vt 0.468955 0.546394
vt 0.762344 0.667919
vt 0.396106 0.595070
vt 0.779437 0.753851
vt 0.347429 0.667919
vt 0.762344 0.839782
vt 0.330336 0.753851
vt 0.713668 0.912632
vt 0.347429 0.839783
vt 0.640818 0.961308
vt 0.396106 0.912632
vt 0.554887 0.978401
vt 0.468955 0.961309
vt 0.682239 0.407806
vt 0.682239 0.387599
vt 0.601411 0.407806
vt 0.601411 0.387599
vt 0.682239 0.367392
vt 0.601411 0.367392
vt 0.682239 0.347185
vt 0.601411 0.347185
vt 0.682239 0.326977
vt 0.601411 0.326977
vt 0.682239 0.306770
vt 0.601411 0.306770
vt 0.682239 0.286563
vt 0.601411 0.286563
vt 0.682239 0.266356
vt 0.601411 0.266356
vt 0.682239 0.246149
vt 0.601411 0.246149
vt 0.682239 0.225942
vt 0.601411 0.225942
vt 0.682239 0.205735
vt 0.601411 0.205735
vt 0.682239 0.185528
vt 0.601411 0.185528
vt 0.682239 0.165320
vt 0.601411 0.165320
vt 0.682239 0.145113
vt 0.601411 0.145113
vt 0.682239 0.124906
vt 0.601411 0.124906
vt 0.682239 0.104699
vt 0.601411 0.104699
vt 0.682239 0.084492
vt 0.601411 0.084492
vt 0.439754 0.084492
vt 0.439754 0.104699
vt 0.520582 0.084492
vt 0.520582 0.104699
vt 0.439754 0.124906
vt 0.520582 0.124906
vt 0.439754 0.145113
vt 0.520582 0.145113
vt 0.439754 0.165320
vt 0.520582 0.165320
vt 0.439754 0.185528
vt 0.520582 0.185528
vt 0.439754 0.205735
vt 0.520582 0.205735
vt 0.439754 0.225942
vt 0.520582 0.225942
vt 0.439754 0.246149
vt 0.520582 0.246149
vt 0.439754 0.266356
vt 0.520582 0.266356
vt 0.439754 0.286563
vt 0.520582 0.286563
vt 0.439754 0.306770
vt 0.520582 0.306770
vt 0.439754 0.326977
vt 0.520582 0.326977
vt 0.439754 0.347185
vt 0.520582 0.347185
vt 0.439754 0.367392
vt 0.520582 0.367392
vt 0.439754 0.387599
vt 0.520582 0.387599
vt 0.439754 0.407806
vt 0.520582 0.407806
vt 0.358926 0.084492
vt 0.358926 0.104699
vt 0.358926 0.124906
vt 0.358926 0.145113
vt 0.358926 0.165320
vt 0.358926 0.185528
vt 0.358926 0.205735
vt 0.358926 0.225942
vt 0.358926 0.246149
vt 0.358926 0.266356
vt 0.358926 0.286563
vt 0.358926 0.306770
vt 0.358926 0.326977
vt 0.358926 0.347185
vt 0.358926 0.367392
vt 0.358926 0.387599
vt 0.358926 0.407806
vt 0.601411 0.084492
vt 0.601411 0.104699
vt 0.601411 0.124906
vt 0.601411 0.145113
vt 0.601411 0.165320
vt 0.601411 0.185528
vt 0.601411 0.205735
vt 0.601411 0.225942
vt 0.601411 0.246149
vt 0.601411 0.266356
vt 0.601411 0.286563
vt 0.601411 0.306770
vt 0.601411 0.326977
vt 0.601411 0.347185
vt 0.601411 0.367392
vt 0.601411 0.387599
vt 0.601411 0.407806
vn 0.8316 -0.0000 0.5554
vn 0.8315 -0.0003 0.5556
vn 0.9239 -0.0000 0.3826
vn 0.9239 -0.0000 0.3827
vn 0.7071 -0.0001 0.7071
vn 0.7071 -0.0000 0.7071
vn 0.5555 -0.0000 0.8315
vn 0.3827 -0.0000 0.9239
vn 0.3826 -0.0000 0.9239
vn 0.0000 -0.0000 1.0000
vn -0.3826 -0.0000 0.9239
vn -0.9239 0.0000 0.3826
vn -1.0000 0.0000 0.0000
vn -0.9239 0.0000 -0.3826
vn -0.9239 -0.0000 -0.3827
vn -0.8316 0.0000 -0.5554
vn -0.8315 -0.0003 -0.5556
vn -0.7072 -0.0001 -0.7070
vn -0.7071 -0.0001 -0.7071
vn -0.5555 -0.0001 -0.8315
vn -0.3826 -0.0000 -0.9239
vn -0.5554 0.0000 -0.8316
vn 0.0000 0.0000 -1.0000
vn 0.4117 0.0000 -0.9113
vn 0.3989 0.0172 -0.9169
vn 0.6069 0.0000 -0.7947
vn 0.5716 0.0276 -0.8201
vn 1.0000 0.0000 0.0000
vn 0.9239 -0.0000 -0.3826
vn 0.8315 -0.0001 -0.5555
vn 0.8316 -0.0000 -0.5554
vn -0.5554 -0.0000 0.8316
vn -0.5556 -0.0003 0.8315
vn -0.7070 -0.0001 0.7072
vn -0.7071 -0.0001 0.7072
vn -0.8315 -0.0001 0.5555
vn -0.8316 -0.0000 0.5554
vn 0.6939 0.0182 -0.7198
vn 0.6822 0.0000 -0.7311
vn 0.0000 -1.0000 0.0000
vn 0.1951 0.0000 -0.9808
vn 0.3827 0.0000 -0.9239
vn 0.7071 0.0000 -0.7071
vn 0.9239 0.0000 -0.3827
vn -0.3827 -0.0000 0.9239
vn -0.7071 -0.0000 0.7071
vn -0.9239 -0.0000 0.3827
vn -0.7071 0.0000 -0.7071
vn -0.3827 0.0000 -0.9239
vn -0.1951 0.0000 -0.9808
vn -0.1853 -0.3138 -0.9312
vn -0.3627 -0.3193 -0.8755
vn -0.1230 -0.7760 -0.6186
vn -0.2385 -0.7820 -0.5759
vn -0.6701 -0.3193 -0.6701
vn -0.4408 -0.7820 -0.4408
vn -0.8755 -0.3194 -0.3627
vn -0.5759 -0.7820 -0.2385
vn -0.9476 -0.3194 -0.0000
vn -0.6233 -0.7820 -0.0000
vn -0.8755 -0.3193 0.3627
vn -0.5759 -0.7820 0.2385
vn -0.6701 -0.3193 0.6701
vn -0.4408 -0.7820 0.4408
vn -0.3626 -0.3194 0.8755
vn -0.2385 -0.7820 0.5759
vn -0.0000 -0.3193 0.9476
vn -0.0000 -0.7820 0.6233
vn 0.3626 -0.3194 0.8755
vn 0.2385 -0.7820 0.5759
vn 0.6701 -0.3193 0.6701
vn 0.4408 -0.7820 0.4408
vn 0.8755 -0.3194 0.3626
vn 0.5759 -0.7820 0.2385
vn 0.9476 -0.3193 -0.0000
vn 0.6233 -0.7820 -0.0000
vn 0.8755 -0.3194 -0.3626
vn 0.5759 -0.7820 -0.2385
vn 0.6701 -0.3193 -0.6701
vn 0.4408 -0.7820 -0.4408
vn 0.3627 -0.3194 -0.8755
vn 0.2385 -0.7820 -0.5759
vn 0.1852 -0.3138 -0.9312
vn 0.1230 -0.7760 -0.6186
vn -0.1941 -0.1060 -0.9752
vn -0.3805 -0.1080 -0.9185
vn -0.7030 -0.1080 -0.7030
vn -0.9185 -0.1080 -0.3805
vn -0.9941 -0.1080 -0.0000
vn -0.9185 -0.1080 0.3805
vn -0.7030 -0.1080 0.7030
vn -0.3804 -0.1080 0.9185
vn -0.0000 -0.1080 0.9941
vn 0.3804 -0.1080 0.9185
vn 0.7030 -0.1080 0.7030
vn 0.9185 -0.1080 0.3804
vn 0.9941 -0.1080 -0.0000
vn 0.9185 -0.1080 -0.3804
vn 0.7030 -0.1080 -0.7030
vn 0.3805 -0.1080 -0.9185
vn 0.1940 -0.1060 -0.9753
vn -0.0710 -0.9313 -0.3571
vn -0.1370 -0.9337 -0.3308
vn -0.2532 -0.9337 -0.2532
vn -0.3308 -0.9337 -0.1370
vn -0.3580 -0.9337 -0.0000
vn -0.3308 -0.9337 0.1370
vn -0.2532 -0.9337 0.2532
vn -0.1370 -0.9337 0.3308
vn -0.0000 -0.9337 0.3580
vn 0.1370 -0.9337 0.3308
vn 0.2532 -0.9337 0.2532
vn 0.3308 -0.9337 0.1370
vn 0.3580 -0.9337 -0.0000
vn 0.3308 -0.9337 -0.1370
vn 0.2532 -0.9337 -0.2532
vn 0.1370 -0.9337 -0.3308
vn 0.0710 -0.9313 -0.3571
usemtl stool
s 1
f 1/1/1 2/2/2 3/3/3
f 3/3/3 2/2/2 4/4/4
f 2/2/2 5/5/5 4/4/4
f 4/4/4 5/5/5 6/6/6
f 5/5/5 7/7/7 6/6/6
f 6/6/6 7/7/7 8/8/8
f 7/7/7 9/9/7 8/8/8
f 8/8/8 9/9/7 10/10/9
f 10/10/9 11/11/10 8/8/8
f 8/8/8 11/11/10 12/12/10
f 11/11/10 13/13/11 12/12/10
f 12/12/10 13/13/11 14/14/11
f 15/15/12 16/16/13 17/17/12
f 17/17/12 16/16/13 18/18/13
f 16/16/13 19/19/14 18/18/13
f 18/18/13 19/19/14 20/20/15
f 21/21/16 22/22/17 19/19/14
f 19/19/14 22/22/17 20/20/15
f 22/22/17 23/23/18 20/20/15
f 20/20/15 23/23/18 24/24/19
f 23/23/18 25/25/20 24/24/19
f 24/24/19 25/25/20 26/26/21
f 25/25/20 27/27/22 26/26/21
f 26/26/21 27/27/22 28/28/21
f 28/28/21 29/29/23 26/26/21
f 26/26/21 29/29/23 30/30/23
f 29/29/23 31/31/24 30/30/23
f 30/30/23 31/31/24 32/32/25
f 31/31/24 33/33/26 32/32/25
f 32/32/25 33/33/26 34/34/27
f 4/4/4 35/35/28 3/3/3
f 3/3/3 35/35/28 36/36/28
f 35/35/28 37/37/29 36/36/28
f 36/36/28 37/37/29 38/38/29
f 37/37/29 39/39/30 38/38/29
f 38/38/29 39/39/30 40/40/31
f 41/41/32 42/42/33 13/13/11
f 13/13/11 42/42/33 14/14/11
f 42/42/33 43/43/34 14/14/11
f 14/14/11 43/43/34 44/44/35
f 43/43/34 45/45/36 44/44/35
f 44/44/35 45/45/36 17/17/12
f 45/45/36 46/46/37 17/17/12
f 17/17/12 46/46/37 15/15/12
f 37/37/29 47/47/38 39/39/30
f 39/39/30 47/47/38 48/48/39
f 47/47/38 34/34/27 48/48/39
f 47/47/38 32/32/25 34/34/27
f 49/49/40 50/50/40 51/51/40
f 51/51/40 50/50/40 52/52/40
f 50/50/40 53/53/40 52/52/40
f 52/52/40 53/53/40 54/54/40
f 53/53/40 55/55/40 54/54/40
f 54/54/40 55/55/40 56/56/40
f 55/55/40 57/57/40 56/56/40
f 56/56/40 57/57/40 58/58/40
f 57/57/40 59/59/40 58/58/40
f 58/58/40 59/59/40 60/60/40
f 59/59/40 61/61/40 60/60/40
f 60/60/40 61/61/40 62/62/40
f 61/61/40 63/63/40 62/62/40
f 62/62/40 63/63/40 64/64/40
f 65/65/41 66/66/42 67/67/41
f 67/67/41 66/66/42 68/68/42
f 66/66/42 69/69/43 68/68/42
f 68/68/42 69/69/43 70/70/43
f 69/69/43 71/71/44 70/70/43
f 70/70/43 71/71/44 72/72/44
f 71/71/44 73/73/28 72/72/44
f 72/72/44 73/73/28 74/74/28
f 73/73/28 75/75/4 74/74/28
f 74/74/28 75/75/4 76/76/4
f 75/75/4 77/77/6 76/76/4
f 76/76/4 77/77/6 78/78/6
f 77/77/6 79/79/8 78/78/6
f 78/78/6 79/79/8 80/80/8
f 79/79/8 81/81/10 80/80/8
f 80/80/8 81/81/10 82/82/10
f 81/81/10 83/83/45 82/82/10
f 82/82/10 83/83/45 84/84/45
f 83/83/45 85/85/46 84/84/45
f 84/84/45 85/85/46 86/86/46
f 85/85/46 87/87/47 86/86/46
f 86/86/46 87/87/47 88/88/47
f 87/87/47 89/89/13 88/88/47
f 88/88/47 89/89/13 90/90/13
f 89/89/13 91/91/15 90/90/13
f 90/90/13 91/91/15 92/92/15
f 91/91/15 93/93/48 92/92/15
f 92/92/15 93/93/48 94/94/48
f 93/93/48 95/95/49 94/94/48
f 94/94/48 95/95/49 96/96/49
f 95/95/49 97/97/50 96/96/49
f 96/96/49 97/97/50 98/98/50
f 99/99/51 100/100/52 101/101/53
f 101/101/53 100/100/52 102/102/54
f 100/100/52 103/103/55 102/102/54
f 102/102/54 103/103/55 104/104/56
f 103/103/55 105/105/57 104/104/56
f 104/104/56 105/105/57 106/106/58
f 105/105/57 107/107/59 106/106/58
f 106/106/58 107/107/59 108/108/60
f 107/107/59 109/109/61 108/108/60
f 108/108/60 109/109/61 110/110/62
f 109/109/61 111/111/63 110/110/62
f 110/110/62 111/111/63 112/112/64
f 111/111/63 113/113/65 112/112/64
f 112/112/64 113/113/65 114/114/66
f 113/113/65 115/115/67 114/114/66
f 114/114/66 115/115/67 116/116/68
f 115/115/67 117/117/69 116/116/68
f 116/116/68 117/117/69 118/118/70
f 117/117/69 119/119/71 118/118/70
f 118/118/70 119/119/71 120/120/72
f 119/119/71 121/121/73 120/120/72
f 120/120/72 121/121/73 122/122/74
f 121/121/73 123/123/75 122/122/74
f 122/122/74 123/123/75 124/124/76
f 123/123/75 125/125/77 124/124/76
f 124/124/76 125/125/77 126/126/78
f 125/125/77 127/127/79 126/126/78
f 126/126/78 127/127/79 128/128/80
f 127/127/79 129/129/81 128/128/80
f 128/128/80 129/129/81 130/130/82
f 129/129/81 131/131/83 130/130/82
f 130/130/82 131/131/83 132/132/84
f 133/133/85 134/134/86 99/99/51
f 99/99/51 134/134/86 100/100/52
f 134/134/86 135/135/87 100/100/52
f 100/100/52 135/135/87 103/103/55
f 135/135/87 136/136/88 103/103/55
f 103/103/55 136/136/88 105/105/57
f 136/136/88 137/137/89 105/105/57
f 105/105/57 137/137/89 107/107/59
f 137/137/89 138/138/90 107/107/59
f 107/107/59 138/138/90 109/109/61
f 138/138/90 139/139/91 109/109/61
f 109/109/61 139/139/91 111/111/63
f 139/139/91 140/140/92 111/111/63
f 111/111/63 140/140/92 113/113/65
f 140/140/92 141/141/93 113/113/65
f 113/113/65 141/141/93 115/115/67
f 141/141/93 142/142/94 115/115/67
f 115/115/67 142/142/94 117/117/69
f 142/142/94 143/143/95 117/117/69
f 117/117/69 143/143/95 119/119/71
f 143/143/95 144/144/96 119/119/71
f 119/119/71 144/144/96 121/121/73
f 144/144/96 145/145/97 121/121/73
f 121/121/73 145/145/97 123/123/75
f 145/145/97 146/146/98 123/123/75
f 123/123/75 146/146/98 125/125/77
f 146/146/98 147/147/99 125/125/77
f 125/125/77 147/147/99 127/127/79
f 147/147/99 148/148/100 127/127/79
f 127/127/79 148/148/100 129/129/81
f 148/148/100 149/149/101 129/129/81
f 129/129/81 149/149/101 131/131/83
f 101/101/53 102/102/54 150/150/102
f 150/150/102 102/102/54 151/151/103
f 102/102/54 104/104/56 151/151/103
f 151/151/103 104/104/56 152/152/104
f 104/104/56 106/106/58 152/152/104
f 152/152/104 106/106/58 153/153/105
f 106/106/58 108/108/60 153/153/105
f 153/153/105 108/108/60 154/154/106
f 108/108/60 110/110/62 154/154/106
f 154/154/106 110/110/62 155/155/107
f 110/110/62 112/112/64 155/155/107
f 155/155/107 112/112/64 156/156/108
f 112/112/64 114/114/66 156/156/108
f 156/156/108 114/114/66 157/157/109
f 114/114/66 116/116/68 157/157/109
f 157/157/109 116/116/68 158/158/110
f 116/116/68 118/118/70 158/158/110
f 158/158/110 118/118/70 159/159/111
f 118/118/70 120/120/72 159/159/111
f 159/159/111 120/120/72 160/160/112
f 120/120/72 122/122/74 160/160/112
f 160/160/112 122/122/74 161/161/113
f 122/122/74 124/124/76 161/161/113
f 161/161/113 124/124/76 162/162/114
f 124/124/76 126/126/78 162/162/114
f 162/162/114 126/126/78 163/163/115
f 126/126/78 128/128/80 163/163/115
f 163/163/115 128/128/80 164/164/116
f 128/128/80 130/130/82 164/164/116
f 164/164/116 130/130/82 165/165/117
f 130/130/82 132/132/84 165/165/117
f 165/165/117 132/132/84 166/166/118
