# Blender v2.93.0 OBJ File: 'extra2.blend'
# www.blender.org
mtllib Extra2SeatedLeftArm.mtl
o Mesh_0142.003_Mesh_0142Mesh.002
v 0.077714 0.004048 0.074741
v 0.059438 -0.001805 0.080682
v 0.071427 0.011964 0.072301
v 0.061929 0.016190 0.072107
v 0.051762 0.015595 0.074211
v 0.067114 -0.019204 0.087154
v 0.075223 -0.013946 0.083317
v 0.079103 -0.005436 0.078774
v 0.041163 -0.007656 0.086624
v 0.047449 -0.015572 0.089064
v 0.056948 -0.019799 0.089258
v 0.043653 0.010338 0.078048
v 0.039773 0.001827 0.082592
v 0.033558 -0.014155 0.046900
v 0.037350 -0.000671 0.046337
v 0.037922 -0.000964 0.048989
v 0.046729 0.005743 0.047634
v 0.046234 0.006155 0.045386
v 0.035869 -0.033100 0.033979
v 0.032046 -0.023410 0.037741
v 0.038177 -0.034604 0.038610
v 0.033531 -0.024847 0.041717
v 0.031726 -0.012397 0.039481
v 0.032720 -0.014042 0.042965
v 0.034692 0.001047 0.038923
v 0.036098 0.000301 0.042525
v 0.041947 0.009747 0.035400
v 0.044514 0.007431 0.040737
v 0.053634 0.007842 0.038095
v 0.055914 0.006685 0.043192
v 0.056545 0.006294 0.045506
v 0.043235 -0.037509 0.027420
v 0.034479 -0.025227 0.046116
v 0.039639 -0.035322 0.043808
v 0.049540 -0.039267 0.046917
v 0.048126 -0.040857 0.040749
v 0.040823 -0.033698 0.049327
v 0.057759 -0.040151 0.038625
v 0.046071 -0.039593 0.034364
v 0.055165 -0.038470 0.031967
v 0.052018 -0.035894 0.024685
v 0.063326 -0.031622 0.031578
v 0.060556 -0.028577 0.024940
v 0.064974 -0.018345 0.025800
v 0.070539 -0.022750 0.038021
v 0.066040 -0.033416 0.037882
v 0.071898 -0.021707 0.042959
v 0.067594 -0.032154 0.043779
v 0.059327 -0.038703 0.044889
v 0.079103 -0.005436 0.078774
v 0.069146 -0.029743 0.049445
v 0.075223 -0.013946 0.083317
v 0.067114 -0.019204 0.087154
v 0.060628 -0.036413 0.050882
v 0.056948 -0.019799 0.089258
v 0.050462 -0.037000 0.052989
v 0.047449 -0.015572 0.089064
v 0.041372 -0.031346 0.055201
v 0.041163 -0.007656 0.086624
v 0.035630 -0.021849 0.055046
v 0.039773 0.001827 0.082592
v 0.034673 -0.011082 0.053660
v 0.043653 0.010338 0.078048
v 0.073244 -0.019678 0.047251
v 0.072147 -0.008620 0.045868
v 0.077714 0.004048 0.074741
v 0.066188 0.000346 0.045243
v 0.071427 0.011964 0.072301
v 0.057162 0.006887 0.047170
v 0.061929 0.016190 0.072107
v 0.047210 0.006313 0.049234
v 0.051762 0.015595 0.074211
v 0.038479 -0.000272 0.050991
v 0.067795 -0.021286 0.032128
v 0.065373 -0.000920 0.042830
v 0.064545 -0.001200 0.039769
v 0.069975 -0.011127 0.038632
v 0.067280 -0.010213 0.032984
v 0.062051 -0.000200 0.034471
v 0.059414 0.002117 0.028510
v 0.050716 0.010067 0.032151
v 0.071068 -0.010366 0.042574
v 0.037493 0.014491 0.025329
v 0.031784 0.003894 0.031600
v 0.025839 0.011343 0.017655
v 0.030149 -0.010731 0.032119
v 0.026749 0.000936 0.018884
v 0.026996 -0.007398 0.017396
v 0.030220 -0.020431 0.029415
v 0.026566 -0.014475 0.012763
v 0.032873 -0.029372 0.024835
v 0.025453 -0.021180 0.004735
v 0.038175 -0.031909 0.014092
v 0.033114 -0.026309 0.000763
v 0.039133 -0.022635 -0.003228
v 0.032691 -0.016006 -0.017185
v 0.047439 -0.014786 -0.001123
v 0.058286 -0.013012 0.013185
v 0.050402 -0.007677 0.000599
v 0.053998 -0.021681 0.011908
v 0.040880 -0.007892 -0.014154
v 0.035559 -0.001114 -0.022382
v 0.029564 -0.007054 -0.024601
v 0.028591 0.004790 -0.025366
v 0.025548 0.001775 -0.026492
v 0.021490 0.009523 -0.025039
v 0.021428 0.000678 -0.026831
v 0.017333 0.001792 -0.026291
v 0.021445 -0.009216 -0.025268
v 0.013378 -0.007020 -0.024204
v 0.021600 -0.018958 -0.018096
v 0.010581 -0.015958 -0.016643
v 0.010841 -0.020336 -0.005631
v 0.002584 -0.007810 -0.013215
v 0.002845 -0.012187 -0.002203
v -0.000246 0.003302 -0.008730
v 0.000015 -0.001074 0.002282
v 0.002848 0.014404 -0.004390
v 0.003109 0.010027 0.006621
v 0.011037 0.022517 -0.001359
v 0.011298 0.018141 0.009652
v 0.023970 0.021090 0.010524
v 0.033033 0.018719 0.015052
v 0.039005 0.018508 0.009518
v 0.044863 0.014546 0.020937
v 0.047233 0.010254 0.005950
v 0.053324 0.006186 0.017230
v 0.057608 -0.004333 0.014582
v 0.064425 -0.008103 0.026781
v 0.045576 -0.029265 0.010728
v 0.035416 -0.023697 0.051000
v 0.034123 -0.013112 0.050603
v 0.018547 -0.013425 0.013370
v 0.026566 -0.014475 0.012763
v 0.026996 -0.007398 0.017396
v 0.015773 -0.010599 0.014559
v 0.014791 -0.006744 0.016114
v 0.015864 -0.002893 0.017620
v 0.018705 -0.000078 0.018671
v 0.026749 0.000936 0.018884
v 0.014425 0.009189 0.017068
v 0.008430 0.003249 0.014849
v 0.006165 -0.004877 0.011673
v 0.008237 -0.013013 0.008390
v 0.014091 -0.018978 0.005880
v 0.023443 -0.023339 -0.007123
v 0.028054 -0.020708 -0.012566
v 0.037824 0.007012 -0.019206
v 0.029741 0.008914 -0.023754
v 0.044564 0.003208 -0.009829
v 0.035752 0.015148 -0.015923
v 0.028689 0.013045 -0.022088
v 0.025718 0.016072 -0.020813
v 0.021623 0.017186 -0.020274
v 0.029898 0.021113 -0.013413
v 0.021831 0.023309 -0.012348
v 0.033147 0.022471 -0.001902
v 0.022127 0.025470 -0.000448
v 0.028572 0.022948 0.004776
v 0.050791 -0.000561 0.002384
v 0.007524 -0.001054 -0.021694
v 0.005452 0.007081 -0.018411
v 0.014362 0.004820 -0.025017
v 0.013310 0.008950 -0.023351
v 0.041143 0.014322 -0.005330
v 0.007717 0.015207 -0.015234
v 0.013712 0.021147 -0.013016
v 0.014460 0.013075 -0.021738
v 0.017503 0.016089 -0.020612
vt 0.660962 0.440963
vt 0.667790 0.435646
vt 0.663278 0.444856
vt 0.666803 0.446280
vt 0.670592 0.444856
vt 0.664988 0.426437
vt 0.661950 0.430329
vt 0.660476 0.435646
vt 0.674619 0.430329
vt 0.672303 0.426437
vt 0.668778 0.425013
vt 0.673631 0.440963
vt 0.675105 0.435646
vt 0.677073 0.455658
vt 0.675672 0.459616
vt 0.675484 0.457728
vt 0.672210 0.460315
vt 0.672373 0.461960
vt 0.676083 0.459278
vt 0.677543 0.459401
vt 0.675268 0.455693
vt 0.677027 0.456291
vt 0.677686 0.461196
vt 0.677348 0.458372
vt 0.676592 0.465153
vt 0.676103 0.462485
vt 0.673875 0.469774
vt 0.672970 0.465487
vt 0.669564 0.467244
vt 0.668763 0.463436
vt 0.668550 0.461751
vt 0.673288 0.462422
vt 0.676715 0.453188
vt 0.674773 0.451948
vt 0.671125 0.448614
vt 0.671592 0.452394
vt 0.674385 0.448621
vt 0.668000 0.453872
vt 0.672297 0.457101
vt 0.668903 0.458885
vt 0.670006 0.464572
vt 0.665878 0.460865
vt 0.666847 0.466237
vt 0.665224 0.468342
vt 0.663268 0.458770
vt 0.664927 0.456060
vt 0.662810 0.455678
vt 0.664405 0.452373
vt 0.667477 0.449986
vt 0.660476 0.435646
vt 0.663883 0.449153
vt 0.661950 0.430329
vt 0.664988 0.426437
vt 0.667051 0.446516
vt 0.668778 0.425013
vt 0.670840 0.445091
vt 0.672303 0.426437
vt 0.674236 0.445261
vt 0.674619 0.430329
vt 0.676373 0.448021
vt 0.675105 0.435646
vt 0.676723 0.451881
vt 0.673631 0.440963
vt 0.662351 0.453292
vt 0.662754 0.457230
vt 0.660962 0.440963
vt 0.664966 0.460169
vt 0.663278 0.444856
vt 0.668337 0.460771
vt 0.666803 0.446280
vt 0.672046 0.459376
vt 0.670592 0.444856
vt 0.675296 0.456547
vt 0.664234 0.463208
vt 0.665245 0.461478
vt 0.665524 0.463494
vt 0.663492 0.461499
vt 0.664441 0.465622
vt 0.666402 0.467399
vt 0.667328 0.472112
vt 0.670594 0.471925
vt 0.663123 0.459012
vt 0.675440 0.477961
vt 0.677606 0.470938
vt 0.679690 0.482508
vt 0.678206 0.466667
vt 0.679356 0.478851
vt 0.679244 0.477609
vt 0.678147 0.465884
vt 0.679356 0.478851
vt 0.677114 0.466538
vt 0.679690 0.482508
vt 0.675048 0.473059
vt 0.676808 0.483697
vt 0.674542 0.487300
vt 0.676810 0.498663
vt 0.671487 0.487854
vt 0.667595 0.478449
vt 0.670409 0.488556
vt 0.669167 0.477045
vt 0.673806 0.498663
vt 0.675711 0.506161
vt 0.677910 0.506161
vt 0.678273 0.509891
vt 0.679389 0.509891
vt 0.680913 0.511060
vt 0.680913 0.509891
vt 0.682438 0.509891
vt 0.680913 0.506161
vt 0.683917 0.506161
vt 0.680913 0.498663
vt 0.685016 0.498663
vt 0.685016 0.490006
vt 0.688020 0.498663
vt 0.688020 0.490006
vt 0.689119 0.498663
vt 0.689119 0.490006
vt 0.688020 0.498663
vt 0.688020 0.490006
vt 0.685016 0.498663
vt 0.685016 0.490006
vt 0.680326 0.490006
vt 0.677004 0.486148
vt 0.674738 0.489751
vt 0.672666 0.480838
vt 0.671647 0.489813
vt 0.669487 0.480962
vt 0.667866 0.479853
vt 0.665445 0.470447
vt 0.672274 0.475936
vt 0.676414 0.450271
vt 0.676898 0.453416
vt 0.682337 0.478851
vt 0.679356 0.478851
vt 0.679244 0.477609
vt 0.683379 0.478851
vt 0.683760 0.478851
vt 0.683379 0.478851
vt 0.682337 0.478851
vt 0.679356 0.478851
vt 0.683917 0.482508
vt 0.686116 0.482508
vt 0.686921 0.482508
vt 0.686116 0.482508
vt 0.683917 0.482508
vt 0.680326 0.490006
vt 0.678568 0.494334
vt 0.674906 0.506161
vt 0.677864 0.509891
vt 0.672488 0.498663
vt 0.675711 0.506161
vt 0.678273 0.509891
vt 0.679389 0.509891
vt 0.680913 0.509891
vt 0.677910 0.506161
vt 0.680913 0.506161
vt 0.676810 0.498663
vt 0.680913 0.498663
vt 0.678568 0.494334
vt 0.670286 0.489258
vt 0.686116 0.506161
vt 0.686921 0.506161
vt 0.683554 0.509891
vt 0.683962 0.509891
vt 0.673806 0.498663
vt 0.686116 0.506161
vt 0.683917 0.506161
vt 0.683554 0.509891
vt 0.682438 0.509891
vn -0.1623 -0.4061 -0.8993
vn 0.9809 -0.0751 -0.1796
vn 0.7853 -0.5374 -0.3074
vn 0.8280 -0.5437 -0.1372
vn 0.3710 -0.9285 -0.0128
vn 0.2810 -0.9164 -0.2851
vn 0.7583 0.6479 -0.0728
vn 0.9471 0.2502 -0.2009
vn 0.7124 0.6946 -0.1007
vn 0.9329 0.2990 -0.2008
vn 0.9559 -0.0660 -0.2861
vn 0.9656 -0.0530 -0.2546
vn 0.7786 -0.4460 -0.4414
vn 0.7622 -0.5003 -0.4109
vn 0.2279 -0.8562 -0.4637
vn 0.2391 -0.8784 -0.4138
vn -0.3892 -0.9157 -0.1001
vn -0.3658 -0.9295 -0.0469
vn -0.2769 -0.9418 0.1908
vn 0.2702 0.9318 0.2423
vn 0.9190 0.3180 -0.2332
vn 0.6663 0.7107 -0.2258
vn 0.1587 0.9342 -0.3195
vn 0.2060 0.9751 -0.0824
vn 0.6360 0.6926 -0.3403
vn -0.3552 0.9271 0.1200
vn 0.2532 0.9544 0.1585
vn -0.3151 0.8651 0.3904
vn -0.3087 0.8227 0.4774
vn -0.7000 0.5274 0.4815
vn -0.6970 0.4709 0.5408
vn -0.8752 0.1090 0.4713
vn -0.9262 0.1799 0.3313
vn -0.7523 0.6030 0.2653
vn -0.9595 0.1840 0.2134
vn -0.7920 0.6104 0.0135
vn -0.3830 0.9056 -0.1822
vn -0.9791 0.1772 0.0994
vn -0.8021 0.5916 -0.0815
vn -0.7880 0.5999 -0.1384
vn -0.3870 0.8589 -0.3355
vn -0.3928 0.8722 -0.2913
vn 0.1219 0.8881 -0.4431
vn 0.1461 0.9042 -0.4013
vn 0.5976 0.6790 -0.4264
vn 0.6346 0.6754 -0.3757
vn 0.9111 0.2887 -0.2943
vn 0.9247 0.2920 -0.2442
vn 0.9796 -0.1786 -0.0927
vn 0.9840 -0.1521 -0.0929
vn 0.7902 -0.6045 0.1007
vn -0.9724 0.1644 0.1654
vn -0.8897 -0.2799 0.3606
vn -0.9102 -0.2862 0.2994
vn -0.6214 -0.6311 0.4644
vn -0.6134 -0.6844 0.3941
vn -0.1949 -0.8971 0.3964
vn -0.1378 -0.9191 0.3691
vn 0.3743 -0.8960 0.2388
vn 0.3774 -0.8872 0.2653
vn 0.8125 -0.5822 0.0300
vn -0.8792 0.1400 0.4555
vn -0.6753 -0.6274 0.3877
vn -0.7428 -0.6239 0.2429
vn -0.9043 -0.2601 0.3385
vn -0.8959 -0.2719 0.3513
vn -0.7671 -0.6183 0.1711
vn -0.7723 -0.6167 0.1525
vn -0.4087 -0.9022 -0.1380
vn -0.8956 -0.2601 0.3609
vn 0.1892 -0.8670 -0.4611
vn 0.7847 -0.3912 -0.4809
vn 0.4139 -0.4616 -0.7846
vn 0.9729 -0.0064 -0.2313
vn 0.9786 0.0628 -0.1960
vn 0.9789 0.0642 -0.1938
vn 0.9667 0.2084 -0.1484
vn 0.9635 0.1576 -0.2164
vn 0.8073 0.5897 -0.0200
vn 0.4678 0.8389 -0.2781
vn 0.2528 0.9200 0.2995
vn 0.1286 0.9516 0.2791
vn -0.4273 0.7250 0.5402
vn -0.4438 0.6066 0.6596
vn -0.7429 0.3666 0.5601
vn -0.8454 0.0831 0.5276
vn -0.8558 0.0749 0.5119
vn -0.6976 0.4254 0.5766
vn -0.7495 0.2563 0.6104
vn -0.6282 0.0743 0.7745
vn -0.3597 0.3187 0.8770
vn -0.3234 -0.1684 0.9312
vn -0.1789 -0.0406 0.9830
vn 0.0220 -0.3693 0.9291
vn 0.0244 0.0076 0.9997
vn 0.2268 -0.0415 0.9731
vn 0.0232 0.4119 0.9109
vn 0.4037 0.3171 0.8582
vn 0.0475 0.7848 0.6179
vn 0.5201 0.6677 0.5326
vn 0.4985 0.8655 0.0489
vn 0.8609 0.3334 0.3842
vn 0.8498 0.5201 -0.0855
vn 0.9736 -0.0942 0.2080
vn 0.9626 0.0900 -0.2555
vn 0.8508 -0.5237 0.0438
vn 0.8396 -0.3370 -0.4259
vn 0.4983 -0.8633 -0.0800
vn 0.4728 -0.6770 -0.5640
vn 0.1272 -0.8077 -0.5757
vn 0.0195 -0.8868 -0.4617
vn -0.4777 -0.8759 -0.0680
vn -0.4412 -0.8903 -0.1126
vn -0.7872 -0.5762 0.2198
vn -0.7770 -0.5959 0.2029
vn -0.8709 -0.2794 0.4044
vn -0.8941 -0.2804 0.3491
vn -0.3582 0.7690 0.5294
vn 0.9185 0.3174 -0.2357
vn 0.9883 -0.0953 -0.1194
vn 0.1562 0.6330 -0.7582
vn 0.0310 0.6670 -0.7444
vn 0.0520 0.3681 -0.9283
vn 0.2944 0.4973 -0.8161
vn 0.3345 0.3445 -0.8772
vn 0.2908 0.1922 -0.9373
vn 0.1451 0.0491 -0.9882
vn 0.0335 0.0173 -0.9993
vn 0.3268 -0.3204 -0.8891
vn 0.6181 -0.0647 -0.7834
vn 0.7130 0.2515 -0.6545
vn 0.6257 0.5719 -0.5306
vn 0.3477 0.8315 -0.4334
vn 0.1519 0.9756 0.1584
vn -0.2101 0.8618 0.4617
vn -0.7126 -0.2456 0.6572
vn -0.3759 -0.3382 0.8627
vn -0.8633 -0.1807 0.4712
vn -0.6293 -0.5778 0.5198
vn -0.3274 -0.5097 0.7956
vn -0.1860 -0.6413 0.7444
vn 0.0163 -0.6919 0.7218
vn -0.3733 -0.8260 0.4222
vn 0.0074 -0.9250 0.3798
vn -0.4629 -0.8834 0.0736
vn 0.0345 -0.9951 -0.0922
vn -0.2283 -0.9402 -0.2527
vn -0.8856 -0.2328 0.4018
vn 0.6658 0.0715 0.7427
vn 0.7543 -0.2501 0.6071
vn 0.3680 -0.1699 0.9142
vn 0.4163 -0.3399 0.8433
vn -0.7638 -0.5883 0.2655
vn 0.6581 -0.5752 0.4858
vn 0.3901 -0.8277 0.4035
vn 0.3639 -0.5112 0.7786
vn 0.2196 -0.6421 0.7345
usemtl extra2
s 1
f 1/1/1 2/2/1 3/3/1
f 3/3/1 2/2/1 4/4/1
f 2/2/1 5/5/1 4/4/1
f 6/6/1 2/2/1 7/7/1
f 7/7/1 2/2/1 8/8/1
f 2/2/1 1/1/1 8/8/1
f 9/9/1 2/2/1 10/10/1
f 10/10/1 2/2/1 11/11/1
f 2/2/1 6/6/1 11/11/1
f 5/5/1 2/2/1 12/12/1
f 12/12/1 2/2/1 13/13/1
f 2/2/1 9/9/1 13/13/1
f 14/14/2 15/15/3 16/16/4
f 16/16/4 15/15/3 17/17/5
f 15/15/3 18/18/6 17/17/5
f 19/19/7 20/20/8 21/21/9
f 21/21/9 20/20/8 22/22/10
f 20/20/8 23/23/11 22/22/10
f 22/22/10 23/23/11 24/24/12
f 23/23/11 25/25/13 24/24/12
f 24/24/12 25/25/13 26/26/14
f 25/25/13 27/27/15 26/26/14
f 26/26/14 27/27/15 28/28/16
f 27/27/15 29/29/17 28/28/16
f 28/28/16 29/29/17 18/18/6
f 29/29/17 30/30/18 18/18/6
f 18/18/6 30/30/18 17/17/5
f 30/30/18 31/31/19 17/17/5
f 32/32/20 19/19/7 21/21/9
f 33/33/21 34/34/22 21/21/9
f 21/21/9 22/22/10 33/33/21
f 33/33/21 22/22/10 14/14/2
f 22/22/10 24/24/12 14/14/2
f 14/14/2 24/24/12 15/15/3
f 24/24/12 26/26/14 15/15/3
f 15/15/3 26/26/14 18/18/6
f 26/26/14 28/28/16 18/18/6
f 35/35/23 36/36/24 37/37/25
f 35/35/23 38/38/26 36/36/24
f 36/36/24 38/38/26 39/39/27
f 38/38/26 40/40/28 39/39/27
f 39/39/27 40/40/28 41/41/29
f 40/40/28 42/42/30 41/41/29
f 41/41/29 42/42/30 43/43/31
f 42/42/30 44/44/32 43/43/31
f 45/45/33 46/46/34 47/47/35
f 47/47/35 46/46/34 48/48/36
f 46/46/34 38/38/26 48/48/36
f 48/48/36 38/38/26 49/49/37
f 38/38/26 35/35/23 49/49/37
f 50/50/38 51/51/39 52/52/40
f 52/52/40 51/51/39 53/53/41
f 51/51/39 54/54/42 53/53/41
f 53/53/41 54/54/42 55/55/43
f 54/54/42 56/56/44 55/55/43
f 55/55/43 56/56/44 57/57/45
f 56/56/44 58/58/46 57/57/45
f 57/57/45 58/58/46 59/59/47
f 58/58/46 60/60/48 59/59/47
f 59/59/47 60/60/48 61/61/49
f 60/60/48 62/62/50 61/61/49
f 61/61/49 62/62/50 63/63/51
f 51/51/39 50/50/38 64/64/52
f 64/64/52 50/50/38 65/65/53
f 50/50/38 66/66/54 65/65/53
f 65/65/53 66/66/54 67/67/55
f 66/66/54 68/68/56 67/67/55
f 67/67/55 68/68/56 69/69/57
f 68/68/56 70/70/58 69/69/57
f 69/69/57 70/70/58 71/71/59
f 70/70/58 72/72/60 71/71/59
f 71/71/59 72/72/60 73/73/61
f 40/40/28 38/38/26 42/42/30
f 42/42/30 38/38/26 46/46/34
f 44/44/32 42/42/30 74/74/62
f 74/74/62 42/42/30 45/45/33
f 42/42/30 46/46/34 45/45/33
f 75/75/63 76/76/64 77/77/65
f 77/77/65 76/76/64 78/78/66
f 76/76/64 79/79/67 78/78/66
f 78/78/66 79/79/67 80/80/68
f 79/79/67 81/81/69 80/80/68
f 82/82/70 75/75/63 77/77/65
f 76/76/64 75/75/63 31/31/19
f 31/31/19 30/30/18 76/76/64
f 76/76/64 30/30/18 79/79/67
f 30/30/18 29/29/17 79/79/67
f 79/79/67 29/29/17 81/81/69
f 29/29/17 27/27/15 81/81/69
f 83/83/71 84/84/72 85/85/73
f 85/85/73 84/84/72 86/86/74
f 85/85/73 86/86/74 87/87/75
f 87/87/75 86/86/74 88/88/76
f 86/86/74 89/89/77 88/88/76
f 88/88/76 89/89/77 90/90/78
f 89/89/77 91/91/79 90/90/78
f 90/90/78 91/91/79 92/92/80
f 91/91/79 93/93/81 92/92/80
f 92/92/80 93/93/81 94/94/82
f 93/93/81 95/95/83 94/94/82
f 94/94/82 95/95/83 96/96/84
f 95/95/83 97/97/85 96/96/84
f 98/98/86 99/99/87 100/100/88
f 100/100/88 99/99/87 97/97/85
f 99/99/87 101/101/89 97/97/85
f 97/97/85 101/101/89 96/96/84
f 101/101/89 102/102/90 96/96/84
f 96/96/84 102/102/90 103/103/91
f 102/102/90 104/104/92 103/103/91
f 103/103/91 104/104/92 105/105/93
f 104/104/92 106/106/94 105/105/93
f 105/105/93 106/106/94 107/107/95
f 106/106/94 108/108/96 107/107/95
f 107/107/95 108/108/96 109/109/97
f 108/108/96 110/110/98 109/109/97
f 109/109/97 110/110/98 111/111/99
f 110/110/98 112/112/100 111/111/99
f 111/111/99 112/112/100 113/113/101
f 112/112/100 114/114/102 113/113/101
f 113/113/101 114/114/102 115/115/103
f 114/114/102 116/116/104 115/115/103
f 115/115/103 116/116/104 117/117/105
f 116/116/104 118/118/106 117/117/105
f 117/117/105 118/118/106 119/119/107
f 118/118/106 120/120/108 119/119/107
f 119/119/107 120/120/108 121/121/109
f 120/120/108 122/122/110 121/121/109
f 121/121/109 122/122/110 85/85/73
f 122/122/110 123/123/111 85/85/73
f 85/85/73 123/123/111 83/83/71
f 123/123/111 124/124/112 83/83/71
f 83/83/71 124/124/112 125/125/113
f 124/124/112 126/126/114 125/125/113
f 125/125/113 126/126/114 127/127/115
f 126/126/114 128/128/116 127/127/115
f 127/127/115 128/128/116 129/129/117
f 128/128/116 98/98/86 129/129/117
f 129/129/117 98/98/86 44/44/32
f 98/98/86 100/100/88 44/44/32
f 44/44/32 100/100/88 43/43/31
f 100/100/88 130/130/118 43/43/31
f 43/43/31 130/130/118 41/41/29
f 130/130/118 32/32/20 41/41/29
f 41/41/29 32/32/20 39/39/27
f 32/32/20 21/21/9 39/39/27
f 39/39/27 21/21/9 36/36/24
f 21/21/9 34/34/22 36/36/24
f 36/36/24 34/34/22 37/37/25
f 34/34/22 33/33/21 37/37/25
f 37/37/25 33/33/21 131/131/119
f 33/33/21 14/14/2 131/131/119
f 131/131/119 14/14/2 132/132/120
f 14/14/2 16/16/4 132/132/120
f 132/132/120 16/16/4 73/73/61
f 16/16/4 17/17/5 73/73/61
f 73/73/61 17/17/5 71/71/59
f 17/17/5 31/31/19 71/71/59
f 71/71/59 31/31/19 69/69/57
f 31/31/19 75/75/63 69/69/57
f 69/69/57 75/75/63 67/67/55
f 75/75/63 82/82/70 67/67/55
f 67/67/55 82/82/70 65/65/53
f 82/82/70 47/47/35 65/65/53
f 65/65/53 47/47/35 64/64/52
f 47/47/35 48/48/36 64/64/52
f 64/64/52 48/48/36 51/51/39
f 48/48/36 49/49/37 51/51/39
f 51/51/39 49/49/37 54/54/42
f 49/49/37 35/35/23 54/54/42
f 54/54/42 35/35/23 56/56/44
f 35/35/23 37/37/25 56/56/44
f 56/56/44 37/37/25 58/58/46
f 37/37/25 131/131/119 58/58/46
f 58/58/46 131/131/119 60/60/48
f 131/131/119 132/132/120 60/60/48
f 60/60/48 132/132/120 62/62/50
f 132/132/120 73/73/61 62/62/50
f 62/62/50 73/73/61 63/63/51
f 73/73/61 72/72/60 63/63/51
f 92/92/80 133/133/121 134/134/122
f 134/134/122 133/133/121 135/135/123
f 133/133/121 136/136/124 135/135/123
f 135/135/123 136/136/124 137/137/125
f 137/137/125 138/138/126 135/135/123
f 135/135/123 138/138/126 139/139/127
f 135/135/123 139/139/127 140/140/128
f 140/140/128 139/139/127 141/141/129
f 139/139/127 138/138/126 141/141/129
f 141/141/129 138/138/126 142/142/130
f 138/138/126 137/137/125 142/142/130
f 142/142/130 137/137/125 143/143/131
f 137/137/125 136/136/124 143/143/131
f 143/143/131 136/136/124 144/144/132
f 136/136/124 133/133/121 144/144/132
f 144/144/132 133/133/121 145/145/133
f 133/133/121 92/92/80 145/145/133
f 145/145/133 92/92/80 146/146/134
f 92/92/80 94/94/82 146/146/134
f 146/146/134 94/94/82 147/147/135
f 94/94/82 96/96/84 147/147/135
f 147/147/135 96/96/84 111/111/99
f 96/96/84 103/103/91 111/111/99
f 111/111/99 103/103/91 109/109/97
f 103/103/91 105/105/93 109/109/97
f 109/109/97 105/105/93 107/107/95
f 101/101/89 148/148/136 102/102/90
f 102/102/90 148/148/136 104/104/92
f 148/148/136 149/149/137 104/104/92
f 104/104/92 149/149/137 106/106/94
f 99/99/87 150/150/138 101/101/89
f 101/101/89 150/150/138 148/148/136
f 150/150/138 151/151/139 148/148/136
f 148/148/136 151/151/139 149/149/137
f 151/151/139 152/152/140 149/149/137
f 149/149/137 152/152/140 106/106/94
f 152/152/140 153/153/141 106/106/94
f 106/106/94 153/153/141 154/154/142
f 153/153/141 155/155/143 154/154/142
f 154/154/142 155/155/143 156/156/144
f 155/155/143 157/157/145 156/156/144
f 156/156/144 157/157/145 158/158/146
f 157/157/145 159/159/147 158/158/146
f 126/126/114 160/160/148 128/128/116
f 129/129/117 44/44/32 74/74/62
f 140/140/128 141/141/129 85/85/73
f 85/85/73 141/141/129 121/121/109
f 141/141/129 142/142/130 121/121/109
f 121/121/109 142/142/130 119/119/107
f 142/142/130 143/143/131 119/119/107
f 119/119/107 143/143/131 117/117/105
f 143/143/131 144/144/132 117/117/105
f 117/117/105 144/144/132 115/115/103
f 144/144/132 145/145/133 115/115/103
f 115/115/103 145/145/133 113/113/101
f 145/145/133 146/146/134 113/113/101
f 113/113/101 146/146/134 111/111/99
f 146/146/134 147/147/135 111/111/99
f 114/114/102 161/161/149 116/116/104
f 116/116/104 161/161/149 162/162/150
f 161/161/149 163/163/151 162/162/150
f 162/162/150 163/163/151 164/164/152
f 112/112/100 110/110/98 114/114/102
f 114/114/102 110/110/98 161/161/149
f 110/110/98 108/108/96 161/161/149
f 161/161/149 108/108/96 163/163/151
f 108/108/96 106/106/94 163/163/151
f 163/163/151 106/106/94 164/164/152
f 150/150/138 165/165/153 151/151/139
f 151/151/139 165/165/153 155/155/143
f 165/165/153 157/157/145 155/155/143
f 118/118/106 166/166/154 120/120/108
f 120/120/108 166/166/154 167/167/155
f 166/166/154 168/168/156 167/167/155
f 167/167/155 168/168/156 169/169/157
f 116/116/104 162/162/150 118/118/106
f 118/118/106 162/162/150 166/166/154
f 162/162/150 164/164/152 166/166/154
f 166/166/154 164/164/152 168/168/156
f 164/164/152 106/106/94 168/168/156
f 168/168/156 106/106/94 169/169/157
f 106/106/94 154/154/142 169/169/157
f 169/169/157 154/154/142 167/167/155
f 154/154/142 156/156/144 167/167/155
f 167/167/155 156/156/144 120/120/108
f 156/156/144 158/158/146 120/120/108
f 120/120/108 158/158/146 122/122/110
f 158/158/146 159/159/147 122/122/110
f 122/122/110 159/159/147 123/123/111
f 159/159/147 157/157/145 123/123/111
f 123/123/111 157/157/145 124/124/112
f 157/157/145 165/165/153 124/124/112
f 124/124/112 165/165/153 126/126/114
f 165/165/153 150/150/138 126/126/114
f 126/126/114 150/150/138 160/160/148
f 150/150/138 99/99/87 160/160/148
f 160/160/148 99/99/87 128/128/116
f 99/99/87 98/98/86 128/128/116
f 155/155/143 153/153/141 151/151/139
f 151/151/139 153/153/141 152/152/140
f 97/97/85 95/95/83 100/100/88
f 100/100/88 95/95/83 130/130/118
f 95/95/83 93/93/81 130/130/118
f 130/130/118 93/93/81 32/32/20
f 93/93/81 91/91/79 32/32/20
f 32/32/20 91/91/79 19/19/7
f 91/91/79 89/89/77 19/19/7
f 19/19/7 89/89/77 20/20/8
f 89/89/77 86/86/74 20/20/8
f 20/20/8 86/86/74 23/23/11
f 86/86/74 84/84/72 23/23/11
f 23/23/11 84/84/72 25/25/13
f 84/84/72 83/83/71 25/25/13
f 25/25/13 83/83/71 27/27/15
f 83/83/71 125/125/113 27/27/15
f 27/27/15 125/125/113 81/81/69
f 125/125/113 127/127/115 81/81/69
f 81/81/69 127/127/115 80/80/68
f 127/127/115 129/129/117 80/80/68
f 80/80/68 129/129/117 78/78/66
f 129/129/117 74/74/62 78/78/66
f 78/78/66 74/74/62 77/77/65
f 74/74/62 45/45/33 77/77/65
f 77/77/65 45/45/33 82/82/70
f 45/45/33 47/47/35 82/82/70
